<?xml version="1.0" standalone="no"?>
<!DOCTYPE svg PUBLIC "-//W3C//DTD SVG 1.1//EN" "http://www.w3.org/Graphics/SVG/1.1/DTD/svg11.dtd" >
<svg xmlns="http://www.w3.org/2000/svg" xmlns:xlink="http://www.w3.org/1999/xlink" version="1.1">
<metadata>
Created by FontForge 20160407 at Thu Sep  8 08:50:59 2016
 By Jimmy Warting
Copyright (c) 2011 by Anna Giedrys (http://ancymonic.com), with Reserved Font Names "Signika".
</metadata>
<defs>
<font id="SignikaNegative-Bold" horiz-adv-x="398" >
  <font-face 
    font-family="Signika Negative"
    font-weight="700"
    font-stretch="normal"
    units-per-em="1000"
    panose-1="2 1 0 3 2 6 0 0 0 4"
    ascent="800"
    descent="-200"
    x-height="498"
    cap-height="689"
    bbox="-122 -288 1007 935"
    underline-thickness="50"
    underline-position="-150"
    unicode-range="U+000D-20AC"
  />
<missing-glyph horiz-adv-x="186" 
 />
    <glyph glyph-name=".notdef" horiz-adv-x="186" 
 />
    <glyph glyph-name=".null" horiz-adv-x="0" 
 />
    <glyph glyph-name=".null" horiz-adv-x="0" 
 />
    <glyph glyph-name="nonmarkingreturn" horiz-adv-x="333" 
 />
    <glyph glyph-name="CR" unicode="&#xd;" horiz-adv-x="186" 
 />
    <glyph glyph-name="space" unicode=" " horiz-adv-x="220" 
 />
    <glyph glyph-name="exclam" unicode="!" horiz-adv-x="305" 
d="M92 207l-20 443q58 42 158 42l9 -11l-34 -474q-22 -7 -56.5 -7t-56.5 7zM77 119q29 16 72.5 16t70.5 -16q11 -19 11 -57t-11 -57q-25 -16 -71 -16t-72 16q-11 19 -11 57t11 57z" />
    <glyph glyph-name="quotedbl" unicode="&#x22;" horiz-adv-x="443" 
d="M255 725q0 17 7 49q29 17 66 17t66 -17q7 -32 7 -49t-7 -51q-21 -112 -29 -180q-13 -8 -37 -8t-37 8q-8 68 -22 141t-14 90zM42 725q0 17 7 49q29 17 66 17t66 -17q7 -32 7 -49t-6 -51q-22 -112 -30 -180q-13 -8 -37 -8t-37 8q-8 68 -22 141t-14 90z" />
    <glyph glyph-name="numbersign" unicode="#" horiz-adv-x="708" 
d="M461 527l28 123q24 10 65.5 10t64.5 -10l-28 -123h93q9 -26 9 -59t-9 -59h-119l-35 -156h101q9 -26 9 -59.5t-9 -58.5h-128l-27 -123q-24 -10 -66 -10t-64 10l27 123h-120l-27 -123q-24 -10 -66 -10t-64 10l27 123h-95q-9 25 -9 59t9 59h122l35 156h-105q-9 26 -9 59
t9 59h131l28 123q24 10 66 10t64 -10l-28 -123h120zM315 409l-35 -156h120l35 156h-120z" />
    <glyph glyph-name="dollar" unicode="$" horiz-adv-x="508" 
d="M23 95q1 29 17.5 63t38.5 47q104 -54 178 -54q30 0 48.5 11.5t18.5 32.5q0 35 -49 52l-95 34q-133 51 -133 159q0 65 42.5 110.5t111.5 58.5v81q19 4 53.5 4t54.5 -4v-79q73 -8 157 -44q0 -32 -14 -63.5t-37 -51.5q-100 40 -157 40q-26 0 -41.5 -11.5t-15.5 -30.5
q0 -25 50 -42l93 -36q137 -51 137 -171q0 -66 -48 -110.5t-128 -55.5v-76q-15 -3 -54.5 -3t-53.5 3v77q-107 14 -174 59z" />
    <glyph glyph-name="percent" unicode="%" horiz-adv-x="979" 
d="M764 -13q-170 0 -170 216q0 119 48 167t122 48t118 -45q52 -51 52 -171t-52 -171q-43 -44 -118 -44zM714 203q0 -60 10 -92t40 -32t39.5 31.5t9.5 92.5t-9.5 92t-39.5 31t-40 -31.5t-10 -91.5zM215 696q74 0 122 -48t48 -168t-52 -170q-42 -45 -117.5 -45t-119.5 45
q-51 50 -51 170t51 172q45 44 119 44zM166 481q0 -61 9.5 -92.5t39.5 -31.5t39.5 31.5t9.5 92.5t-9.5 92t-39.5 31t-39.5 -31t-9.5 -92zM228 0l378 683q30 7 52 7q70 0 91 -7l-377 -683q-30 -7 -52 -7q-70 0 -92 7z" />
    <glyph glyph-name="ampersand" unicode="&#x26;" horiz-adv-x="652" 
d="M531 296l1 -61v-76q0 -80 7 -159q-27 -9 -67 -9t-70 7l-10 44q-64 -57 -156 -57t-143.5 55.5t-51.5 131t37 125.5t91 67q-44 17 -71 58t-27 94q0 81 58.5 131.5t163.5 50.5t202 -33v-19t-10 -44t-28 -49q-87 27 -136.5 27t-71.5 -21.5t-22 -55.5q0 -81 103 -81h192
q59 0 105 19q19 -24 19 -70q0 -75 -92 -75h-23zM385 234q0 39 1 62h-68q-59 0 -90 -27t-31 -74t22.5 -70.5t58.5 -23.5q61 0 107 40v93z" />
    <glyph glyph-name="quotesingle" unicode="'" horiz-adv-x="237" 
d="M41 725q0 17 7 49q29 17 66 17t66 -17q7 -32 7 -49t-7 -51q-21 -112 -29 -180q-13 -8 -37 -8t-37 8q-8 68 -22 141t-14 90z" />
    <glyph glyph-name="parenleft" unicode="(" horiz-adv-x="369" 
d="M249 553.5q-34 -116.5 -34 -231t34 -231t101 -209.5q-25 -57 -86 -78q-98 94 -151.5 236.5t-53.5 282.5t53.5 282.5t151.5 235.5q61 -21 86 -78q-67 -93 -101 -209.5z" />
    <glyph glyph-name="parenright" unicode=")" horiz-adv-x="369" 
d="M120 91.5q34 116.5 34 231t-34 231t-101 209.5q25 57 86 78q98 -93 151.5 -235.5t53.5 -282.5t-53.5 -282.5t-151.5 -236.5q-61 21 -86 78q67 93 101 209.5z" />
    <glyph glyph-name="asterisk" unicode="*" horiz-adv-x="518" 
d="M37 525v15.5t11.5 47t26.5 52.5l58 -23q33 -11 92 -54q-22 70 -23 104l-3 63q20 9 59.5 9t60.5 -9l-3 -63q-2 -31 -23 -103q51 35 91 52l59 23q14 -17 26.5 -54t11.5 -60l-62 -17q-36 -9 -106 -9q56 -42 79 -71l40 -49q-11 -19 -42.5 -42.5t-53.5 -28.5l-35 53
q-20 30 -42 97q-23 -65 -43 -96l-34 -53q-22 4 -53.5 27t-43.5 43l39 50q22 28 80 70q-69 0 -105 10z" />
    <glyph glyph-name="plus" unicode="+" horiz-adv-x="530" 
d="M202 357l-1 67v90q28 5 64.5 5t63.5 -5v-90l-1 -67l65 1h84q6 -32 6 -61t-6 -59h-84l-65 1l1 -64v-91q-27 -5 -64 -5t-64 5v91l1 64l-65 -1h-84q-6 28 -6 60t6 60h84z" />
    <glyph glyph-name="comma" unicode="," horiz-adv-x="292" 
d="M221 124q13 -32 13 -77q0 -73 -45.5 -135.5t-129.5 -89.5q-18 9 -27 27.5t-9 28.5v14q37 13 62.5 40t29.5 60q-29 6 -43 15q-11 22 -11 58.5t11 58.5q32 18 77.5 18t71.5 -18z" />
    <glyph glyph-name="hyphen" unicode="-" horiz-adv-x="373" 
d="M325 209h-277q-6 24 -6 60t6 60h277q6 -24 6 -60t-6 -60z" />
    <glyph glyph-name="period" unicode="." horiz-adv-x="283" 
d="M54 66q0 36 12 59q31 18 76 18t76 -18q11 -23 11 -59t-11 -59q-27 -17 -76 -17t-76 17q-12 23 -12 59z" />
    <glyph glyph-name="slash" unicode="/" horiz-adv-x="447" 
d="M2 -70l314 837q76 -9 127 -48l-314 -837q-78 9 -127 48z" />
    <glyph glyph-name="zero" unicode="0" horiz-adv-x="530" 
d="M32 324q0 96 14 161.5t57 113.5q66 64 162 64q56 0 93 -16.5t69 -47.5q43 -48 57 -113.5t14 -161.5t-14 -161.5t-57 -113.5q-66 -64 -162 -64t-162 64q-43 48 -57 113.5t-14 161.5zM185 324q0 -142 18.5 -183.5t61.5 -41.5t59 37q21 47 21 188.5t-18.5 183t-61.5 41.5
t-61.5 -41.5t-18.5 -183.5z" />
    <glyph glyph-name="one" unicode="1" horiz-adv-x="530" 
d="M223 121l-1 73v145q0 15 3 58t4 59q-54 -61 -134 -95q-23 10 -41 34t-22 52q141 88 195 201q31 6 70 6t70 -6v-454l-1 -73l67 1h56q7 -25 7 -60t-7 -62h-412q-7 33 -7 61.5t7 60.5h83z" />
    <glyph glyph-name="two" unicode="2" horiz-adv-x="530" 
d="M486 126q0 -30 -3 -56q-12 -71 -91 -71h-301q-51 54 -51 91q0 76 116 179l107 97q55 50 55 101q0 32 -19.5 53t-53.5 21t-58 -26t-34 -63q-29 0 -61 12.5t-45 32.5q20 72 76.5 119t144 47t145 -55t57.5 -145q0 -60 -31 -105t-90 -95l-72 -62q-70 -58 -84 -85
q77 10 149 10h144z" />
    <glyph glyph-name="three" unicode="3" horiz-adv-x="530" 
d="M434 498l-80 -82q-13 -13 -31 -26q75 -9 120.5 -58.5t45.5 -130.5q0 -100 -69.5 -158t-169.5 -58q-129 0 -212 72q11 55 63 97q62 -49 130 -49q48 0 77 27.5t29 72t-26 69t-60.5 24.5t-61.5 -12q-18 8 -33.5 30.5t-22.5 48.5l98 101q48 48 68 62l-4 7q-41 -12 -100 -12
h-124q-10 26 -10 61.5t13 63.5h359q30 -55 30 -87.5t-29 -62.5z" />
    <glyph glyph-name="four" unicode="4" horiz-adv-x="530" 
d="M417 118l1 -70v-48q-31 -6 -72 -6t-72 6v48l1 70l-71 -2h-149q-32 52 -32 92q0 19 18 65l163 383q13 2 31.5 2t53 -7t51.5 -26l-74 -175q-58 -145 -104 -212l3 -5q36 3 109 6v61q0 55 27 86.5t76 31.5h34l7 -6v-102l-1 -70l56 1h30q4 -24 4 -57t-9 -66h-81z" />
    <glyph glyph-name="five" unicode="5" horiz-adv-x="530" 
d="M450 648q10 -30 10 -61q0 -63 -64 -63h-177v-29l-4 -51l-3 -19q30 8 59 8q99 0 156 -58t57 -162.5t-73 -166t-173 -61.5q-122 0 -199 69q5 23 22.5 52.5t38.5 44.5q63 -45 117 -45t84 28.5t30 80.5t-29.5 78t-75.5 26t-87 -32q-20 4 -41.5 19t-32.5 32l17 302l7 8h361z
" />
    <glyph glyph-name="six" unicode="6" horiz-adv-x="530" 
d="M271 -15q-237 0 -237 335q0 161 71.5 252t200.5 91q93 0 160 -35q-4 -67 -48 -102q-47 20 -100 20q-121 0 -129 -154q55 43 133 43t126 -53.5t48 -162.5t-64.5 -171.5t-160.5 -62.5zM189 270q0 -174 84 -174q38 0 57 30t19 81q0 109 -73 109q-46 0 -87 -35v-11z" />
    <glyph glyph-name="seven" unicode="7" horiz-adv-x="530" 
d="M60 648h409q26 -58 26 -88t-20 -59l-39 -53q-127 -179 -147 -403l-4 -45q-29 -6 -72 -6t-79 6l4 47q21 232 144 395l12 17q25 35 63 71l-5 5q-49 -12 -140 -12h-158q-8 22 -8 55t14 70z" />
    <glyph glyph-name="eight" unicode="8" horiz-adv-x="530" 
d="M28 165q0 102 110 168q-94 58 -94 154q0 75 63 125.5t160 50.5t157 -48.5t60 -124.5q0 -88 -94 -140q112 -66 112 -178q-1 -86 -70.5 -136.5t-174 -50.5t-167 48.5t-62.5 131.5zM260 277l-25 9q-57 -46 -57 -112q0 -38 24 -61.5t63 -23.5t62 24t23 60q0 71 -90 104z
M190 487q0 -57 88 -87l13 -5q50 35 50 89q0 32 -21.5 52.5t-54.5 20.5t-54 -20t-21 -50z" />
    <glyph glyph-name="nine" unicode="9" horiz-adv-x="530" 
d="M259 663q237 0 237 -335q0 -161 -71.5 -252t-200.5 -91q-93 0 -160 35q4 67 48 102q47 -20 100 -20q120 0 128 153q-55 -42 -132.5 -42t-125.5 53.5t-48 162.5t64.5 171.5t160.5 62.5zM341 378q0 174 -84 174q-38 0 -57 -30t-19 -81q0 -109 73 -109q46 0 87 35v11z" />
    <glyph glyph-name="colon" unicode=":" horiz-adv-x="291" 
d="M58 66q0 36 12 59q31 18 76 18t76 -18q11 -23 11 -59t-11 -59q-27 -17 -76 -17t-76 17q-12 23 -12 59zM58 378q0 36 12 59q31 18 76 18t76 -18q11 -23 11 -59t-11 -59q-27 -17 -76 -17t-76 17q-12 23 -12 59z" />
    <glyph glyph-name="semicolon" unicode=";" horiz-adv-x="295" 
d="M221 124q13 -32 13 -77q0 -73 -45.5 -135.5t-129.5 -89.5q-18 9 -27 27.5t-9 28.5v14q37 13 62.5 40t29.5 60q-29 6 -43 15q-11 22 -11 58.5t11 58.5q32 18 77.5 18t71.5 -18zM60 378q0 36 12 59q31 18 76 18t76 -18q11 -23 11 -59t-11 -59q-27 -17 -76 -17t-76 17
q-12 23 -12 59z" />
    <glyph glyph-name="less" unicode="&#x3c;" horiz-adv-x="530" 
d="M52 354l357 197q28 -15 47 -47.5t20 -67.5l-191 -98q-37 -20 -84 -36v-8q52 -17 84 -35l191 -99q-3 -35 -22.5 -68.5t-45.5 -47.5l-356 197q-8 29 -8 57.5t8 55.5z" />
    <glyph glyph-name="equal" unicode="=" horiz-adv-x="530" 
d="M477 128h-424q-6 24 -6 59.5t6 60.5h424q6 -25 6 -60.5t-6 -59.5zM477 351h-424q-6 24 -6 60t6 60h424q6 -24 6 -60t-6 -60z" />
    <glyph glyph-name="greater" unicode="&#x3e;" horiz-adv-x="530" 
d="M478 242l-357 -196q-28 15 -47 47.5t-20 67.5l191 98q37 20 84 36v7q-47 16 -84 36l-191 98q3 35 22.5 69t45.5 48l356 -198q8 -29 8 -57t-8 -56z" />
    <glyph glyph-name="question" unicode="?" horiz-adv-x="417" 
d="M3 641q95 57 197.5 57t156 -49.5t53.5 -130.5q0 -129 -130 -198l-61 -32l-10 -80q-23 -8 -55.5 -8t-56.5 8l-8 149l12 15l54 25q99 45 99 104q0 32 -21 50.5t-66 18.5t-111 -35q-20 16 -36 47t-17 59zM83 116q26 16 71.5 16t71.5 -16q11 -19 11 -57t-11 -57
q-29 -16 -71.5 -16t-71.5 16q-11 19 -11 57t11 57z" />
    <glyph glyph-name="at" unicode="@" horiz-adv-x="975" 
d="M692 411l-1 -248q0 -53 32 -53q73 0 73 189q0 128 -79.5 202t-217 74t-224 -98t-86.5 -253.5t74 -233.5t207 -78q99 0 197 38q37 -40 37 -101q-114 -50 -245 -50q-191 0 -305 106.5t-114 312.5t131.5 336.5t328.5 130.5t320 -104.5t123 -285.5q0 -143 -65.5 -218
t-153.5 -75t-137 59q-65 -63 -140 -63t-117.5 62.5t-42.5 173t56.5 181.5t157.5 71q55 0 107.5 -22t83.5 -53zM441.5 139q12.5 -30 45 -30t66.5 37v217q-24 19 -52 19q-72 0 -72 -148q0 -65 12.5 -95z" />
    <glyph glyph-name="A" unicode="A" horiz-adv-x="634" 
d="M240 146q-28 0 -42 1l-44 -148q-23 -6 -67 -6t-71 11l-6 8l222 671q36 6 89 6t87 -7l216 -672q-33 -19 -79 -19t-66 17.5t-33 65.5l-21 73q-14 -1 -43 -1h-142zM233 266l42 1h77q5 0 18 -0.5t20 -0.5l-76 276h-5q-9 -49 -48 -184z" />
    <glyph glyph-name="B" unicode="B" horiz-adv-x="613" 
d="M85 685q158 4 227 4q109 0 170.5 -45.5t61.5 -136.5q0 -45 -24.5 -83t-63.5 -55q50 -16 85 -65t35 -108q0 -100 -65 -151t-183 -51q-75 0 -243 4l-7 7v673zM316 304h-88v-202q34 1 90.5 1t80.5 29.5t24 70t-25 71t-82 30.5zM228 580v-167h77q49 0 69.5 24.5t20.5 59.5
q0 82 -90 82q-50 0 -77 1z" />
    <glyph glyph-name="C" unicode="C" horiz-adv-x="608" 
d="M437 416v10q0 63 -25.5 107t-89.5 44t-94 -60t-30 -173.5t37 -169.5t107.5 -56t167.5 71q23 -16 44.5 -44.5t26.5 -53.5q-45 -45 -118 -75.5t-142.5 -30.5t-117 20.5t-78 54t-50.5 80.5q-37 86 -37 199q0 179 81.5 269t201.5 90t190.5 -59t70.5 -147q0 -84 -87 -84
q-28 0 -58 8z" />
    <glyph glyph-name="D" unicode="D" horiz-adv-x="665" 
d="M602.5 514.5q23.5 -72.5 23.5 -173t-23 -173.5t-89 -124q-31 -25 -83 -37.5t-112 -12.5t-234 4l-7 7v673l7 7q115 4 247 4q47 0 99 -13t83 -38q65 -51 88.5 -123.5zM254 114l78 -1q137 0 137 228t-137 228l-102 1v-457q1 1 24 1z" />
    <glyph glyph-name="E" unicode="E" horiz-adv-x="572" 
d="M228 193l-1 -69v-1q44 2 73 2h236q0 -36 -3 -54q-14 -74 -98 -74h-270q-41 0 -64.5 24t-23.5 66v589l7 7h427q5 -23 5 -58t-12 -70h-277l1 -71v-79q26 1 67 1h157q9 -24 9 -61.5t-9 -63.5h-224v-88z" />
    <glyph glyph-name="F" unicode="F" horiz-adv-x="533" 
d="M231 0q-31 -6 -76.5 -6t-76.5 6v677l7 6h423q7 -24 7 -59q0 -71 -82 -71h-203q1 -28 1 -83v-67h217q8 -24 8 -62.5t-8 -62.5h-217v-278z" />
    <glyph glyph-name="G" unicode="G" horiz-adv-x="653" 
d="M342 384l156 1h2q100 0 100 -96v-262q-124 -42 -268 -42t-219 94t-75 258q0 88 26.5 158.5t71.5 114.5q90 88 220 88t242 -72q-3 -31 -23.5 -62.5t-45.5 -47.5q-82 55 -165 55q-170 0 -170 -232.5t170 -232.5q43 0 92 9v73q0 45 2 69h-55q-38 0 -55 14.5t-17 49.5t11 63z
" />
    <glyph glyph-name="H" unicode="H" horiz-adv-x="685" 
d="M455 415l-1 74v194q30 6 76.5 6t76.5 -6v-683q-31 -6 -76.5 -6t-76.5 6v215l1 74l-51 -1h-123l-51 1l1 -74v-215q-30 -6 -77 -6t-76 6v683q29 6 76 6t77 -6v-194l-1 -74l51 1h123z" />
    <glyph glyph-name="I" unicode="I" horiz-adv-x="314" 
d="M80 0v683q30 6 76.5 6t76.5 -6v-683q-30 -6 -76.5 -6t-76.5 6z" />
    <glyph glyph-name="J" unicode="J" horiz-adv-x="468" 
d="M63 147q48 -31 96.5 -31t68 31t19.5 98v438q30 6 76.5 6t76.5 -6v-423q0 -123 -44 -193q-49 -77 -184 -77q-93 0 -162 44q10 66 53 113z" />
    <glyph glyph-name="K" unicode="K" horiz-adv-x="617" 
d="M609 38q-31 -46 -101 -46q-40 0 -59.5 20t-33.5 67l-40 121q-16 49 -38 69.5t-59 20.5q-11 0 -47 -2v-288q-30 -6 -77 -6t-76 6v683q29 6 76 6t77 -6v-267l29 1q18 0 26 6.5t19 26.5l99 185q15 29 31.5 41t58 12t81.5 -4l8 -11l-125 -233q-23 -44 -54 -70
q46 -10 70.5 -38t41.5 -76l42 -127q1 -2 5 -14t5.5 -15t5 -12.5t6.5 -13.5t7.5 -11.5t10.5 -12.5z" />
    <glyph glyph-name="L" unicode="L" horiz-adv-x="521" 
d="M323 129h177q0 -33 -4 -57q-12 -75 -100 -75h-230q-41 0 -65 24t-24 66v596l7 6h56q90 0 90 -96v-467q50 3 93 3z" />
    <glyph glyph-name="M" unicode="M" horiz-adv-x="830" 
d="M57 2l53 680q38 7 100.5 7t99.5 -7l64 -254q27 -111 38 -179h6q11 68 38 179l64 254q38 7 100 7t99 -7l53 -680q-28 -8 -72 -8t-72 5l-16 290q-8 138 -8 227h-7l-104 -415q-27 -5 -77.5 -5t-79.5 5l-103 415h-7q-2 -122 -8 -227l-16 -290q-28 -5 -72 -5t-73 8z" />
    <glyph glyph-name="N" unicode="N" horiz-adv-x="694" 
d="M609 689l7 -6v-680q-38 -9 -89.5 -9t-91.5 6l-166 366q-42 100 -57 141l-4 -1q12 -142 12 -291v-215q-30 -6 -71.5 -6t-70.5 6v680q36 9 87.5 9t91.5 -6l162 -365l63 -151l4 1q-12 138 -12 289v140q0 50 20 71t65 21h50z" />
    <glyph glyph-name="O" unicode="O" horiz-adv-x="665" 
d="M197 341.5q0 -238.5 135.5 -238.5t135.5 238.5t-135.5 238.5t-135.5 -238.5zM145 48q-107 89 -107 293.5t107 293.5q77 63 188 63t188 -63q107 -89 107 -293.5t-107 -293.5q-77 -63 -188 -63t-188 63z" />
    <glyph glyph-name="P" unicode="P" horiz-adv-x="586" 
d="M490 629q66 -60 66 -174.5t-66.5 -175.5t-175.5 -61h-83v-218q-30 -6 -77 -6t-76 6v678l7 7q168 4 229 4q110 0 176 -60zM231 572v-239q29 1 69 1t63.5 20.5t30 44.5t6.5 62.5t-21.5 74t-70.5 35.5t-77 1z" />
    <glyph glyph-name="Q" unicode="Q" horiz-adv-x="669" 
d="M438 -104l-103 89h-1q-112 0 -188 62q-108 92 -108 295t108 294q74 62 187.5 62t187.5 -62q108 -92 108 -295q0 -177 -79 -262q-29 -33 -63 -47l24 -17q68 -48 126 -48q-1 -49 -29 -79t-67 -30q-60 0 -103 38zM333 580q-138 0 -138 -238.5t138 -238.5t138 238.5
t-138 238.5z" />
    <glyph glyph-name="R" unicode="R" horiz-adv-x="613" 
d="M562 473q0 -67 -36.5 -116t-85.5 -67q51 -18 76 -91l32 -89q17 -48 49 -73q-15 -20 -43 -33t-63 -13t-54 20t-36 69l-38 109q-10 31 -29.5 48t-57.5 17h-47v-254q-30 -6 -76 -6t-75 6v678l7 7q168 4 236 4q109 0 175 -54.5t66 -161.5zM229 574v-203q66 2 80 2
q97 0 97 100t-97 100q-50 0 -80 1z" />
    <glyph glyph-name="S" unicode="S" horiz-adv-x="557" 
d="M17 60q3 32 20 63.5t40 50.5q109 -66 202 -66q43 0 65.5 20.5t22.5 49.5q0 50 -67 80l-118 50q-142 62 -142 183q0 91 69 149t181.5 58t222.5 -57q-5 -69 -52 -115q-102 49 -180 49q-41 0 -63 -19.5t-22 -44.5q0 -40 62 -67l120 -50q72 -31 111.5 -81.5t39.5 -114.5
q0 -95 -67.5 -154t-193.5 -59q-62 0 -129.5 20t-121.5 55z" />
    <glyph glyph-name="T" unicode="T" horiz-adv-x="507" 
d="M330 557l1 -74v-483q-31 -6 -76.5 -6t-76.5 6v483l1 74h-1l-62 -1h-106q-5 29 -5 63.5t5 63.5h490q8 -26 8 -61t-19 -50.5t-61 -15.5h-35l-62 1h-1z" />
    <glyph glyph-name="U" unicode="U" horiz-adv-x="673" 
d="M604 683v-432q0 -127 -70 -196.5t-198 -69.5t-198 69.5t-70 196.5v432l7 6h56q90 0 90 -96v-344q0 -72 27.5 -107t88 -35t87.5 35t27 107v434q30 6 77 6t76 -6z" />
    <glyph glyph-name="V" unicode="V" horiz-adv-x="602" 
d="M314 128l136 555q26 6 66.5 6t69.5 -10l7 -9l-189 -670q-54 -6 -109 -6t-79.5 14t-36.5 56l-169 605q54 23 90 23t55 -18t30 -58l80 -295q20 -70 39 -180q2 -13 10 -13z" />
    <glyph glyph-name="W" unicode="W" horiz-adv-x="896" 
d="M136 64l-119 610q41 18 81 18t58.5 -18t25.5 -66l45 -270q22 -127 25.5 -166.5t5 -42t7.5 -2.5l86 543q42 7 98.5 7t97.5 -7l79 -529q1 -10 3.5 -12t7.5 -2q10 92 30 213l60 343q28 6 67 6t74 -10l7 -10l-134 -668q-61 -7 -116 -7t-78 14t-30 56l-36 223q-23 162 -30 234
h-8q-13 -110 -34 -234l-47 -286q-65 -7 -118 -7t-76.5 13.5t-31.5 56.5z" />
    <glyph glyph-name="X" unicode="X" horiz-adv-x="612" 
d="M434 683q24 6 66.5 6t77.5 -13l4 -8l-188 -310l208 -334q-47 -33 -89.5 -33t-64.5 13t-43 47l-110 177l-136 -228q-24 -6 -65 -6t-80 13l-4 9l207 337l-190 306q47 33 89.5 33t64 -13t42.5 -46l93 -150z" />
    <glyph glyph-name="Y" unicode="Y" horiz-adv-x="537" 
d="M324 505l71 178q25 6 65.5 6t71.5 -11l6 -9l-193 -458v-211q-30 -6 -77 -6t-76 6v215l-193 450q47 26 86 26t57 -14t31 -47l52 -130q24 -62 45 -141h6q16 65 48 146z" />
    <glyph glyph-name="Z" unicode="Z" horiz-adv-x="577" 
d="M57 149l227 316q32 45 80 99l-3 3q-68 -9 -154 -9h-146q-6 22 -6 53t11 72h438q21 -75 21 -99t-17 -49l-227 -316q-32 -45 -78 -95l3 -3q86 6 146 6h63q65 0 113 23q10 -32 10 -70.5t-27 -59t-73 -20.5h-382q-17 76 -17 100t18 49z" />
    <glyph glyph-name="bracketleft" unicode="[" horiz-adv-x="388" 
d="M350 -153l-243 -9l-9 8v973l9 7l243 -8q5 -17 5 -47.5t-11 -54.5l-100 -3v-761l100 -3q11 -26 11 -56.5t-5 -45.5z" />
    <glyph glyph-name="backslash" unicode="\" horiz-adv-x="447" 
d="M318 -118l-314 837q51 39 127 48l314 -837q-51 -39 -127 -48z" />
    <glyph glyph-name="bracketright" unicode="]" horiz-adv-x="388" 
d="M281 -162l-243 9q-5 11 -5 43.5t11 58.5l100 3v761l-100 3q-11 24 -11 57t5 45l243 8l8 -7v-973z" />
    <glyph glyph-name="asciicircum" unicode="^" horiz-adv-x="530" 
d="M500 306q-30 -7 -73 -7t-69 7l-53 127q-15 35 -36 104h-8q-21 -69 -36 -104l-53 -127q-26 -7 -47 -7q-65 0 -95 7l156 342q27 7 80.5 7t77.5 -7z" />
    <glyph glyph-name="underscore" unicode="_" horiz-adv-x="560" 
d="M561 -174h-562q-6 23 -6 55.5t6 56.5h562q6 -30 6 -57t-6 -55z" />
    <glyph glyph-name="grave" unicode="`" 
d="M145 765l154 -167q-7 -20 -25 -36t-37 -22l-183 138q9 28 36 53t55 34z" />
    <glyph glyph-name="a" unicode="a" horiz-adv-x="512" 
d="M481 69q-4 -20 -18.5 -43t-28.5 -34q-69 3 -104 53q-64 -60 -141.5 -60t-117 46t-39.5 105q0 85 56.5 129t140.5 44q33 0 75 -3v22q0 66 -68 66q-43 0 -149 -32q-30 35 -36 104q47 20 111.5 32t114.5 12q75 0 125.5 -41.5t50.5 -128.5v-204q0 -47 28 -67zM226 96
q39 0 78 33v83q-22 1 -60 1q-67 0 -67 -67q0 -21 13.5 -35.5t35.5 -14.5z" />
    <glyph glyph-name="b" unicode="b" horiz-adv-x="534" 
d="M456.5 439q45.5 -69 45.5 -187.5t-66.5 -189.5t-176.5 -71t-197 34v704l7 7h56q45 0 64 -20.5t19 -69.5v-174q55 36 117 36q86 0 131.5 -69zM282 388q-42 0 -74 -35v-250q27 -5 51 -5q91 0 91 156q0 132 -68 134z" />
    <glyph glyph-name="c" unicode="c" horiz-adv-x="474" 
d="M313 281v9q0 56 -11.5 84t-49 28t-53 -36.5t-15.5 -116.5t22.5 -113.5t69.5 -33.5t110 43q18 -10 35 -35.5t22 -47.5q-34 -35 -86 -56t-107 -21q-105 0 -161.5 71t-56.5 198.5t65 193t153.5 65.5t142.5 -46t54 -118q0 -36 -19.5 -54.5t-55 -18.5t-59.5 5z" />
    <glyph glyph-name="d" unicode="d" horiz-adv-x="537" 
d="M78.5 55q-45.5 70 -45.5 191.5t57.5 191.5t142.5 70q45 0 95 -23v244l7 7h58q44 0 62 -20t18 -70v-502q0 -54 28 -75q-4 -20 -17.5 -42.5t-28.5 -34.5q-70 3 -104 56q-58 -63 -142.5 -63t-130 70zM251 105q44 0 77 43v223q-43 26 -70 26q-72 0 -72 -155q0 -69 18 -103
t47 -34z" />
    <glyph glyph-name="e" unicode="e" horiz-adv-x="497" 
d="M448 201h-265q3 -48 24 -74.5t74 -26.5t126 31q31 -30 41 -89q-81 -57 -196 -57q-62 0 -107 21.5t-69 59.5q-44 73 -44 187t55 187t159 73t159.5 -59.5t55.5 -152.5q0 -52 -13 -100zM306 381.5q-17 25.5 -52.5 25.5t-52 -25t-19.5 -78h141v12q0 40 -17 65.5z" />
    <glyph glyph-name="f" unicode="f" horiz-adv-x="354" 
d="M90 0v394l-86 -1q-6 25 -6 53.5t6 52.5l78 -1q-5 38 -5 70q0 75 47.5 123.5t125 48.5t148.5 -27v-16t-8.5 -40.5t-23.5 -42.5q-49 14 -78 14q-68 0 -68 -71q0 -25 5 -60l132 2q6 -24 6 -52.5t-6 -53.5l-122 2v-395q-33 -6 -72.5 -6t-72.5 6z" />
    <glyph glyph-name="g" unicode="g" horiz-adv-x="535" 
d="M78.5 60q-45.5 70 -45.5 191t57.5 191.5t139 70.5t135.5 -47q34 37 91 40q15 -11 29 -34t17 -42q-28 -21 -28 -75v-269q0 -170 -50 -235q-57 -72 -185 -72q-97 0 -186 33q0 27 10.5 58.5t26.5 49.5q66 -30 135 -30q104 0 104 107v34q-54 -41 -116 -41q-89 0 -134.5 70z
M329 147v219q-37 35 -70 35q-73 0 -73 -154q0 -69 17.5 -103t46.5 -34q43 0 79 37z" />
    <glyph glyph-name="h" unicode="h" horiz-adv-x="543" 
d="M484 331v-208q0 -64 23 -99q-39 -32 -87.5 -32t-66.5 23t-18 70v218q0 37 -10 53.5t-36 16.5q-42 0 -81 -38v-335q-31 -6 -71.5 -6t-74.5 6v729l7 7h58q44 0 62.5 -20.5t18.5 -69.5v-196q68 57 136 57t104 -48t36 -128z" />
    <glyph glyph-name="i" unicode="i" horiz-adv-x="294" 
d="M233 387v-387q-30 -6 -73 -6t-76 6v336q0 57 -47 57h-14q-6 25 -6 52t6 52q50 5 85 5h20q49 0 77 -31t28 -84zM54 641q0 29 11 56q28 15 73.5 15t70.5 -15q11 -27 11 -56t-11 -56q-25 -15 -73 -15t-71 15q-11 27 -11 56z" />
    <glyph glyph-name="j" unicode="j" horiz-adv-x="301" 
d="M240 387v-360q0 -116 -36.5 -170.5t-148.5 -76.5q-16 13 -28 39t-13 52q45 19 62 44t17 78v343q0 57 -47 57h-23q-6 25 -6 52t6 52q57 5 93 5h20q49 0 76.5 -31t27.5 -84zM58 641q0 29 11 56q28 15 73.5 15t70.5 -15q11 -27 11 -56t-11 -56q-25 -15 -73 -15t-71 15
q-11 27 -11 56z" />
    <glyph glyph-name="k" unicode="k" horiz-adv-x="520" 
d="M241 202l-33 -1v-201q-31 -6 -72 -6t-74 6v729l7 7h58q44 0 62.5 -20.5t18.5 -69.5v-322h18q18 0 28 18l57 105q27 55 84 55q29 0 83 -2l6 -8l-81 -152q-19 -35 -50 -56q60 -22 85 -87l25 -74q16 -43 25.5 -59t22.5 -25q-40 -47 -100 -47q-32 0 -48.5 15t-29.5 53l-30 88
q-12 32 -25.5 43t-36.5 11z" />
    <glyph glyph-name="l" unicode="l" horiz-adv-x="311" 
d="M249 109h29q12 -32 12 -61.5t-3 -42.5q-60 -10 -115 -10t-83 32t-28 102v600l7 7h58q44 0 62.5 -20.5t18.5 -69.5v-490q0 -47 42 -47z" />
    <glyph glyph-name="m" unicode="m" horiz-adv-x="807" 
d="M330 302q0 72 -47 72q-34 -1 -72 -38v-336q-31 -6 -73.5 -6t-75.5 6v498l7 7h56q62 0 80 -63q72 65 138 65q81 0 117 -70q77 70 148 70t105 -44t34 -115v-225q0 -62 24 -99q-39 -32 -87.5 -32t-67 23t-18.5 70v218q0 71 -49 71q-31 0 -70 -39v-335q-32 -6 -74 -6t-75 6
v302z" />
    <glyph glyph-name="n" unicode="n" horiz-adv-x="547" 
d="M487 331v-208q0 -64 24 -99q-39 -32 -87.5 -32t-67 23t-18.5 70v218q0 37 -10 54t-35 17q-43 0 -82 -39v-335q-31 -6 -73.5 -6t-75.5 6v498l7 7h56q62 0 79 -60q73 62 142 62t105 -48t36 -128z" />
    <glyph glyph-name="o" unicode="o" horiz-adv-x="522" 
d="M418 455q72 -72 72 -205.5t-72 -205.5q-59 -59 -157 -59t-157 59q-72 72 -72 205.5t72 205.5q59 58 157 58t157 -58zM185 249q0 -73 15.5 -112.5t60.5 -39.5t60.5 39.5t15.5 112.5t-15.5 113t-60.5 40t-60.5 -40t-15.5 -113z" />
    <glyph glyph-name="p" unicode="p" horiz-adv-x="537" 
d="M457.5 443q45.5 -70 45.5 -191.5t-57 -191.5t-142 -70q-45 0 -95 23v-139q0 -49 -19 -69.5t-63 -20.5h-58l-7 7v707l7 7h40q56 0 83 -49q57 57 138.5 57t127 -70zM286 393q-44 0 -77 -42v-224q40 -25 69 -25q73 0 73 154q0 69 -18 103t-47 34z" />
    <glyph glyph-name="q" unicode="q" horiz-adv-x="537" 
d="M328 -126v155q-54 -39 -115 -39q-89 0 -134.5 70t-45.5 191t57.5 191.5t138.5 70.5t135 -47q32 37 91 40q14 -10 28 -33t19 -43q-28 -20 -28 -75v-564l-7 -7h-58q-44 0 -62.5 20.5t-18.5 69.5zM250 110q44 0 78 36v221q-37 34 -69 34q-73 0 -73 -154q0 -69 17.5 -103
t46.5 -34z" />
    <glyph glyph-name="r" unicode="r" horiz-adv-x="393" 
d="M33 429q4 20 18 43t28 34q89 -9 122 -90q38 89 126 89q33 0 65 -8q0 -29 -10 -69.5t-27 -69.5q-21 7 -50 9q-53 0 -86 -54v-313q-30 -6 -73 -6t-76 6v326q0 75 -37 103z" />
    <glyph glyph-name="s" unicode="s" horiz-adv-x="442" 
d="M21 35q1 24 13.5 54t28.5 46q78 -41 139 -41q30 0 46.5 10.5t16.5 27.5q0 32 -48 49l-55 20q-126 46 -126 149q0 75 52 119t139 44q43 0 95 -12t87 -29q1 -27 -11.5 -59t-30.5 -45q-82 37 -138 37q-22 0 -34 -10t-12 -26q0 -25 42 -41l61 -22q133 -49 133 -159
q0 -74 -55 -118t-155 -44t-188 50z" />
    <glyph glyph-name="t" unicode="t" horiz-adv-x="371" 
d="M348 499q6 -27 6 -53t-6 -53l-120 2v-239q0 -47 44 -47h58q12 -36 12 -64t-4 -40q-72 -10 -132 -10q-123 0 -123 134v265l-78 -1q-6 22 -6 53t6 53l78 -1v61q0 50 18 70t62 20h58l7 -7v-145z" />
    <glyph glyph-name="u" unicode="u" horiz-adv-x="549" 
d="M60 167v209q0 63 -24 98q37 32 86.5 32t68 -23t18.5 -69v-219q0 -37 10 -53.5t35 -16.5q43 0 81 37v336q31 6 74 6t76 -6v-356q0 -55 28 -75q-4 -20 -18 -41.5t-29 -33.5q-80 3 -114 70q-76 -71 -148 -71t-108 48.5t-36 127.5z" />
    <glyph glyph-name="v" unicode="v" horiz-adv-x="476" 
d="M247 114l92 384q22 5 60.5 5t70.5 -11l5 -7q-98 -348 -141 -485q-50 -6 -103 -6t-76 14.5t-36 57.5l-122 421q49 20 83.5 20t55 -16t29.5 -53l48 -191q7 -25 15 -70.5t10 -54.5q1 -8 9 -8z" />
    <glyph glyph-name="w" unicode="w" horiz-adv-x="752" 
d="M105 65l-98 424q43 18 80 18t52.5 -15t21.5 -48l33 -168q20 -101 27 -158q1 -8 8 -8l59 383q32 8 88 8t87 -8l60 -375q1 -8 8 -8q13 91 28 166l46 222q24 6 67.5 6t68.5 -12l4 -9l-117 -483q-36 -6 -96 -6t-81 13.5t-27 55.5l-19 112q-2 16 -7 53q-13 86 -20 138h-6
q-7 -60 -28 -189l-30 -177q-46 -6 -101 -6t-77 14.5t-31 56.5z" />
    <glyph glyph-name="x" unicode="x" horiz-adv-x="478" 
d="M325 498q24 6 59.5 6t72.5 -10l4 -10l-141 -218l158 -242q-50 -33 -100 -33t-79 45l-69 107l-85 -143q-18 -6 -62.5 -6t-74.5 11l-4 10l154 239l-143 221q46 33 101 33q27 0 43.5 -11t32.5 -35l57 -88z" />
    <glyph glyph-name="y" unicode="y" horiz-adv-x="493" 
d="M487 483l-125 -469q-31 -117 -83.5 -175t-158.5 -58q-60 0 -118 20v18.5t7.5 42.5t22.5 45q52 -15 88 -15q75 0 101 87l4 14q-84 2 -100 62l-119 432q44 20 82.5 20t55.5 -14t26 -50l50 -198q8 -29 24 -133q1 -7 9 -7l90 393q25 6 65.5 6t73.5 -11z" />
    <glyph glyph-name="z" unicode="z" horiz-adv-x="449" 
d="M47 129l125 167q20 26 80 94l-3 5q-70 -8 -125 -8h-81q-5 19 -5 49t8 62h347q19 -57 19 -82t-14 -45l-128 -171q-43 -57 -76 -91l3 -4q48 5 81 5h37q61 0 95 16q15 -38 15 -60q0 -66 -81 -66h-301q-17 51 -17 75.5t21 53.5z" />
    <glyph glyph-name="braceleft" unicode="{" horiz-adv-x="391" 
d="M44 375q37 7 61 38.5t24 71.5v162q0 75 43 119.5t115 56.5l65 10q15 -16 22.5 -41.5t7.5 -37t-2 -17.5l-59 -20q-18 -6 -30.5 -24.5t-12.5 -46.5v-159q0 -51 -24 -94.5t-63 -61.5v-8q39 -17 63 -60.5t24 -95.5v-158q0 -28 12.5 -46.5t30.5 -24.5l59 -20q2 -6 2 -17.5
t-7.5 -37.5t-22.5 -42l-65 11q-72 11 -115 56t-43 120v161q0 40 -24 72t-61 39q-7 17 -7 47t7 48z" />
    <glyph glyph-name="bar" unicode="|" horiz-adv-x="268" 
d="M65 -142v915q24 7 68 7t70 -7v-915q-26 -6 -69.5 -6t-68.5 6z" />
    <glyph glyph-name="braceright" unicode="}" horiz-adv-x="391" 
d="M347 375q7 -18 7 -48t-7 -47q-36 -7 -60 -39t-24 -72v-161q0 -75 -43.5 -120t-115.5 -56l-64 -11q-15 16 -22.5 42t-7.5 37.5t2 17.5l59 20q18 6 30 24.5t12 46.5v158q0 52 24.5 95.5t63.5 60.5v8q-39 18 -63.5 61.5t-24.5 94.5v159q0 28 -12 46.5t-30 24.5l-59 20
q-2 6 -2 17.5t7.5 37t22.5 41.5l64 -10q72 -12 115.5 -57t43.5 -119v-162q0 -40 23.5 -71.5t60.5 -38.5z" />
    <glyph glyph-name="asciitilde" unicode="~" horiz-adv-x="626" 
d="M298 381l83 -38q25 -11 50 -11t50 28l24 25q25 -2 51.5 -17.5t37.5 -39.5l-20 -32q-60 -101 -157 -101q-43 0 -89 21l-83 37q-24 12 -49.5 12t-50.5 -28l-24 -26q-26 2 -52 18t-37 40l19 32q61 101 158 101q42 0 89 -21z" />
    <glyph glyph-name="exclamdown" unicode="&#xa1;" horiz-adv-x="305" 
d="M213 291l21 -444q-58 -41 -159 -41l-8 11l33 474q24 6 57 6t56 -6zM229 379q-28 -16 -73 -16t-71 16q-11 19 -11 57t11 57q29 16 71.5 16t72.5 -16q10 -20 10 -57t-10 -57z" />
    <glyph glyph-name="cent" unicode="&#xa2;" horiz-adv-x="464" 
d="M188 -33v100q-86 19 -123 89.5t-37 174.5t45.5 168t117.5 82v101q17 4 52.5 4t54.5 -4v-98q63 -13 101.5 -55t38.5 -96q0 -81 -80 -81q-34 0 -53 6v7q0 113 -62 113q-35 0 -49.5 -37t-14.5 -117q0 -145 91 -145q47 0 109 43q18 -14 34.5 -37.5t20.5 -44.5
q-50 -56 -139 -74v-99q-14 -3 -54 -3t-53 3z" />
    <glyph glyph-name="sterling" unicode="&#xa3;" horiz-adv-x="537" 
d="M241 362l171 1q8 -20 8 -52.5t-8 -54.5q-105 0 -157 1q-7 -76 -53 -139l3 -3q88 7 173 7h131q0 -31 -2 -49q-14 -75 -100 -75h-342q-17 77 -17 99.5t18 47.5l13 20q35 50 42 91h-72q-8 22 -8 54.5t8 52.5q8 0 26.5 -0.5t27.5 -0.5q-35 70 -35 116q0 72 57 128.5t159 56.5
q64 0 120 -24t92 -56q-5 -30 -27 -55.5t-50 -35.5q-62 49 -124 49q-36 0 -59 -20t-23 -52t28 -107z" />
    <glyph glyph-name="currency" unicode="&#xa4;" horiz-adv-x="589" 
d="M94 217q-30 51 -30 116.5t29 115.5l-69 77q20 41 75 76l81 -73q50 25 112 25t114 -25l83 75q46 -27 76 -75l-71 -80q29 -50 29 -116t-31 -117l70 -78q-26 -45 -75 -76l-84 74q-49 -23 -110.5 -23t-110.5 23l-83 -73q-45 27 -75 76zM230.5 414q-20.5 -31 -20.5 -80
t20.5 -80t63 -31t63 30.5t20.5 80t-20.5 80.5t-63 31t-63 -31z" />
    <glyph glyph-name="yen" unicode="&#xa5;" horiz-adv-x="544" 
d="M489 152h-146v-152q-30 -6 -73.5 -6t-72.5 6v152h-146q-7 25 -7 45.5t7 47.5h140l-30 67h-110q-7 25 -7 45t7 48h68l-102 227q54 27 88 27t49 -12t25 -39l49 -120q22 -51 44 -132h6q25 81 49 135l68 157q25 7 59.5 7t70.5 -9l6 -7l-109 -234h67q6 -24 6 -47.5t-6 -45.5
h-110l-31 -67h141q6 -23 6 -47t-6 -46z" />
    <glyph glyph-name="brokenbar" unicode="&#xa6;" horiz-adv-x="262" 
d="M63 -142v387q25 7 67.5 7t68.5 -7v-387q-26 -6 -68.5 -6t-67.5 6zM63 386v387q25 7 67.5 7t68.5 -7v-387q-26 -6 -68.5 -6t-67.5 6z" />
    <glyph glyph-name="section" unicode="&#xa7;" horiz-adv-x="498" 
d="M472 310q0 -86 -99 -147q66 -48 66 -118t-55 -115.5t-152 -45.5t-170 42q-1 26 11.5 56.5t30.5 44.5q79 -35 134 -35q24 0 39 10.5t15 27.5q0 28 -43 45l-58 24q-79 33 -121.5 72t-42.5 102q0 85 99 146q-65 47 -65 117t54 116t140 46t166 -37v-17t-11.5 -41.5
t-29.5 -42.5q-72 29 -119 29q-23 0 -38 -10.5t-15 -27.5q0 -27 43 -43l57 -24q78 -32 121 -71.5t43 -102.5zM234 369l-13 5q-51 -30 -51 -75q0 -27 24 -47t72 -38l12 -5q52 28 52 75t-96 85z" />
    <glyph glyph-name="dieresis" unicode="&#xa8;" 
d="M228 622q0 27 8 48q27 16 63 16t62 -16q9 -21 9 -49t-9 -47q-26 -16 -62 -16t-63 16q-8 21 -8 48zM28 622q0 27 9 48q26 16 62 16t63 -16q8 -21 8 -48.5t-8 -47.5q-27 -16 -63 -16t-62 16q-9 21 -9 48z" />
    <glyph glyph-name="copyright" unicode="&#xa9;" horiz-adv-x="791" 
d="M33 341q0 154 104 258.5t258 104.5t258.5 -104.5t104.5 -258.5t-104.5 -258t-258.5 -104t-258 104t-104 258zM145 341q0 -112 70.5 -188t179.5 -76t180 76t71 188t-71 188.5t-180 76.5t-179.5 -76.5t-70.5 -188.5zM443 366q0 87 -50 87q-54 0 -54 -108t77 -108
q30 0 84 33q34 -24 40 -66q-22 -24 -63.5 -40t-79.5 -16q-92 0 -133 55.5t-41 146t52 138.5t119.5 48t109.5 -33.5t42 -82.5q0 -59 -62 -59q-26 0 -41 5z" />
    <glyph glyph-name="ordfeminine" unicode="&#xaa;" horiz-adv-x="453" 
d="M414 344q-2 -18 -15.5 -37t-30.5 -28q-56 2 -86 42q-56 -47 -115.5 -47t-93.5 36t-34 87q0 68 45 102.5t115 34.5q26 0 59 -3v25q0 24 -15 36t-46 12t-108 -24q-27 30 -30 81q89 37 183 37q60 0 102.5 -34t42.5 -104v-158q0 -43 27 -58zM171 376.5q12 -11.5 35 -11.5
t53 24q-1 6 -1 19v45q-34 2 -48 2q-51 0 -51 -51q0 -16 12 -27.5z" />
    <glyph glyph-name="guillemotleft" unicode="&#xab;" horiz-adv-x="609" 
d="M573 410l-124 -152l128 -156q-7 -23 -32.5 -46t-49.5 -29l-202 185q-7 17 -7 43t7 43l200 188q24 -5 48.5 -28.5t31.5 -47.5zM311 410l-124 -152l128 -156q-7 -23 -32.5 -46t-49.5 -29l-202 185q-7 17 -7 43t7 43l200 188q24 -5 48.5 -28.5t31.5 -47.5z" />
    <glyph glyph-name="logicalnot" unicode="&#xac;" horiz-adv-x="530" 
d="M351 245l-65 -1h-238q-6 24 -6 59.5t6 60.5h423l7 -7v-234q-25 -5 -61 -5t-67 5v61z" />
    <glyph glyph-name="uni00AD" unicode="&#xad;" horiz-adv-x="373" 
d="M325 209h-277q-6 24 -6 60t6 60h277q6 -24 6 -60t-6 -60z" />
    <glyph glyph-name="registered" unicode="&#xae;" horiz-adv-x="600" 
d="M28 471q0 115 78.5 194t193.5 79t193.5 -79t78.5 -194t-78.5 -193.5t-193.5 -78.5t-193.5 78.5t-78.5 193.5zM115 471q0 -80 53 -136t132 -56t132 56t53 136t-53 136.5t-132 56.5t-132 -56.5t-53 -136.5zM200 601l107 3q52 0 76.5 -21t24.5 -51t-14.5 -47t-35.5 -22
q18 -8 33 -37l11 -23q12 -23 23 -29q-19 -27 -49.5 -27t-46.5 30l-21 43q-10 18 -28 18h-8v-86q-14 -4 -38 -4t-37 4v247zM272 495l24 1q32 0 32 25.5t-29 25.5h-27v-52z" />
    <glyph glyph-name="macron" unicode="&#xaf;" 
d="M351 572h-303q-8 25 -8 53t8 55h303q7 -28 7 -54.5t-7 -53.5z" />
    <glyph glyph-name="degree" unicode="&#xb0;" horiz-adv-x="347" 
d="M15 515q0 70 45 114.5t114 44.5t113.5 -44.5t44.5 -114.5t-44.5 -114.5t-113.5 -44.5t-114 44.5t-45 114.5zM119 515q0 -30 15 -48t39.5 -18t39.5 18t15 48t-15 48t-39.5 18t-39.5 -18t-15 -48z" />
    <glyph glyph-name="plusminus" unicode="&#xb1;" horiz-adv-x="530" 
d="M204 415l-1 69v66q25 6 62.5 6t62.5 -6v-66l-1 -69l63 1h76q6 -25 6 -53.5t-6 -54.5h-76l-63 1l1 -67v-67q-26 -5 -62.5 -5t-62.5 5v67l1 67l-64 -1h-76q-6 26 -6 54.5t6 53.5h76zM466 0h-402q-6 25 -6 56t6 56h402q6 -25 6 -56t-6 -56z" />
    <glyph glyph-name="twosuperior" unicode="&#xb2;" horiz-adv-x="420" 
d="M367 429q0 -38 -2 -51q-11 -58 -73 -58h-212q-39 51 -39 75q0 51 67 107l88 73q29 25 29 53q0 16 -11 27t-28 11t-29.5 -14t-17.5 -34q-23 1 -53.5 13t-40.5 27q11 51 53 85t106.5 34t107.5 -39.5t43 -100.5q0 -83 -81 -144l-57 -42q-7 -5 -23 -16t-23 -17q60 11 105 11
h91z" />
    <glyph glyph-name="threesuperior" unicode="&#xb3;" horiz-adv-x="420" 
d="M319 645l-47 -39q-13 -11 -25 -17q50 -5 82 -40t32 -86q0 -68 -49 -107t-119 -39q-95 0 -153 48q8 47 49 81q46 -31 78.5 -31t48.5 14t16 37t-13.5 37.5t-39.5 14.5q-4 0 -29 -5q-15 5 -30.5 25.5t-19.5 38.5l67 59q9 8 46 34l-3 4q-28 -6 -80 -6h-67q-7 21 -7 51t10 51
h254q26 -45 26 -73.5t-27 -51.5z" />
    <glyph glyph-name="acute" unicode="&#xb4;" 
d="M106 598l154 167q28 -9 55.5 -34t35.5 -53l-183 -138q-19 6 -36.5 22t-25.5 36z" />
    <glyph glyph-name="paragraph" unicode="&#xb6;" horiz-adv-x="740" 
d="M277 63v175h-13q-104 0 -170 58t-66 171t66.5 167.5t178.5 54.5q9 0 147 -5l7 -7v-584q0 -67 -10.5 -111t-40.5 -78q-56 -63 -175 -63q-78 0 -145 25q0 24 8.5 56t23.5 52q55 -21 100 -21t67 24t22 86zM488 -131v807l7 7h225q7 -21 7 -64t-7 -64h-29q-18 0 -52 2v-688
q-30 -6 -76 -6t-75 6z" />
    <glyph glyph-name="periodcentered" unicode="&#xb7;" horiz-adv-x="326" 
d="M81 286q0 36 11 59q29 18 71.5 18t71.5 -18q10 -24 10 -59t-10 -59q-25 -17 -71 -17t-72 17q-11 23 -11 59z" />
    <glyph glyph-name="cedilla" unicode="&#xb8;" 
d="M136 -77q9 37 26 77h79q-11 -21 -16 -32q46 -3 73 -27.5t27 -67.5t-38 -73.5t-93.5 -30.5t-90.5 23q2 40 25 65q20 -13 47 -13q37 0 37 30q0 14 -9 22.5t-21 8.5t-24 -4q-15 7 -22 22z" />
    <glyph glyph-name="onesuperior" unicode="&#xb9;" horiz-adv-x="420" 
d="M37 622q55 33 85.5 65.5t53.5 80.5q31 6 55.5 6t60.5 -6v-339h82q6 -25 6 -54t-6 -53h-302q-6 25 -6 53.5t6 53.5h99v95q0 17 4 81q-26 -32 -82 -59q-20 10 -35.5 32t-20.5 44z" />
    <glyph glyph-name="ordmasculine" unicode="&#xba;" horiz-adv-x="450" 
d="M350 653q59 -62 59 -168.5t-59 -166.5q-46 -45 -125 -45t-125 45q-60 60 -60 167t60 168q46 45 125 45t125 -45zM225 604q-61 0 -61 -118.5t61 -118.5t61 118.5t-61 118.5z" />
    <glyph glyph-name="guillemotright" unicode="&#xbb;" horiz-adv-x="609" 
d="M36 103l124 153l-128 155q7 23 32.5 46.5t49.5 28.5l202 -185q8 -17 8 -42.5t-8 -42.5l-200 -189q-25 6 -49 29.5t-31 46.5zM298 103l124 153l-128 155q7 23 32.5 46.5t49.5 28.5l202 -185q8 -17 8 -42.5t-8 -42.5l-200 -189q-25 6 -49 29.5t-31 46.5z" />
    <glyph glyph-name="onequarter" unicode="&#xbc;" horiz-adv-x="1040" 
d="M27 537q55 33 85.5 65.5t53.5 80.5q31 6 55.5 6t60.5 -6v-339h82q6 -26 6 -54.5t-6 -52.5h-302q-6 25 -6 53t6 54h99v95q0 17 4 81q-26 -32 -82 -59q-20 10 -35.5 32t-20.5 44zM292 0l378 683q30 7 52 7q70 0 91 -7l-377 -683q-30 -7 -52 -7q-70 0 -92 7zM981 77l-32 1
v-70q-22 -6 -57.5 -6t-60.5 6v21l1 49l-54 -1h-106q-27 46 -27 71t15 52l114 257q8 1 23.5 1t45.5 -6.5t49 -20.5l-55 -120q-44 -99 -73 -135l2 -2q36 4 65 4v34q0 42 23 66t63 24h29l4 -5v-46l-1 -72h54q4 -17 4 -44.5t-10 -57.5h-16z" />
    <glyph glyph-name="onehalf" unicode="&#xbd;" horiz-adv-x="1040" 
d="M280 0l378 683q30 7 52 7q70 0 91 -7l-377 -683q-30 -7 -52 -7q-70 0 -92 7zM27 537q55 33 85.5 65.5t53.5 80.5q31 6 55.5 6t60.5 -6v-339h82q6 -26 6 -54.5t-6 -52.5h-302q-6 25 -6 53t6 54h99v95q0 17 4 81q-26 -32 -82 -59q-20 10 -35.5 32t-20.5 44zM996 114
q0 -38 -2 -51q-11 -58 -73 -58h-212q-39 51 -39 75q0 51 67 107l88 73q29 25 29 53q0 16 -11 27t-28 11t-29.5 -14t-17.5 -34q-23 1 -53.5 13t-40.5 27q11 51 53 85t106.5 34t107.5 -39.5t43 -100.5q0 -83 -81 -144l-57 -42q-6 -5 -22.5 -16t-23.5 -17q60 11 105 11h91z" />
    <glyph glyph-name="threequarters" unicode="&#xbe;" horiz-adv-x="1040" 
d="M266 0l378 683q30 7 52 7q70 0 91 -7l-377 -683q-30 -7 -52 -7q-70 0 -92 7zM323 560l-47 -39q-13 -11 -25 -17q50 -5 82 -40t32 -86q0 -68 -49 -107t-119 -39q-95 0 -153 48q8 47 49 81q46 -31 78.5 -31t48.5 14t16 37t-13.5 37.5t-39.5 14.5q-4 0 -29 -5
q-15 5 -30.5 25.5t-19.5 38.5l67 59q9 8 46 34l-3 4q-28 -6 -80 -6h-67q-7 21 -7 51t10 51h254q26 -45 26 -73.5t-27 -51.5zM962 77l-32 1v-70q-22 -6 -57.5 -6t-60.5 6v21l1 49l-54 -1h-106q-27 46 -27 71t15 52l114 257q8 1 23.5 1t45.5 -6.5t49 -20.5l-55 -120
q-44 -99 -73 -135l2 -2q36 4 65 4v34q0 42 23 66t63 24h29l4 -5v-46l-1 -72h54q4 -17 4 -44.5t-10 -57.5h-16z" />
    <glyph glyph-name="questiondown" unicode="&#xbf;" horiz-adv-x="417" 
d="M421 -146q-95 -57 -198 -57t-156.5 49.5t-53.5 131.5q0 128 131 197l61 32l9 80q24 8 56.5 8t56.5 -8l8 -149l-12 -15l-54 -24q-100 -47 -100 -105q0 -32 21 -50.5t67 -18.5t110 35q21 -16 37 -47t17 -59zM269 363q-46 0 -71 16q-11 19 -11 57t11 57q27 16 70.5 16
t72.5 -16q11 -19 11 -57t-11 -57q-26 -16 -72 -16z" />
    <glyph glyph-name="Agrave" unicode="&#xc0;" horiz-adv-x="634" 
d="M240 146q-28 0 -42 1l-44 -148q-23 -6 -67 -6t-71 11l-6 8l222 671q36 6 89 6t87 -7l216 -672q-33 -19 -79 -19t-66 17.5t-33 65.5l-21 73q-14 -1 -43 -1h-142zM233 266l42 1h77q5 0 18 -0.5t20 -0.5l-76 276h-5q-9 -49 -48 -184zM230 934l221 -135q-8 -52 -42 -72
l-238 94q3 31 21 64.5t38 48.5z" />
    <glyph glyph-name="Aacute" unicode="&#xc1;" horiz-adv-x="634" 
d="M240 146q-28 0 -42 1l-44 -148q-23 -6 -67 -6t-71 11l-6 8l222 671q36 6 89 6t87 -7l216 -672q-33 -19 -79 -19t-66 17.5t-33 65.5l-21 73q-14 -1 -43 -1h-142zM233 266l42 1h77q5 0 18 -0.5t20 -0.5l-76 276h-5q-9 -49 -48 -184zM199 799l221 135q20 -15 38 -48.5
t21 -64.5l-238 -94q-15 9 -27.5 30.5t-14.5 41.5z" />
    <glyph glyph-name="Acircumflex" unicode="&#xc2;" horiz-adv-x="634" 
d="M240 146q-28 0 -42 1l-44 -148q-23 -6 -67 -6t-71 11l-6 8l222 671q36 6 89 6t87 -7l216 -672q-33 -19 -79 -19t-66 17.5t-33 65.5l-21 73q-14 -1 -43 -1h-142zM233 266l42 1h77q5 0 18 -0.5t20 -0.5l-76 276h-5q-9 -49 -48 -184zM435 735l-117 75l-119 -86
q-17 6 -36.5 24.5t-24.5 37.5l118 120q31 7 62 7t63 -6l113 -110q-6 -21 -24 -38t-35 -24z" />
    <glyph glyph-name="Atilde" unicode="&#xc3;" horiz-adv-x="634" 
d="M240 146q-28 0 -42 1l-44 -148q-23 -6 -67 -6t-71 11l-6 8l222 671q36 6 89 6t87 -7l216 -672q-33 -19 -79 -19t-66 17.5t-33 65.5l-21 73q-14 -1 -43 -1h-142zM233 266l42 1h77q5 0 18 -0.5t20 -0.5l-76 276h-5q-9 -49 -48 -184zM322 758l-48 23q-16 9 -34 9t-34 -24
l-9 -12q-22 0 -44.5 12.5t-30.5 31.5l9 20q41 85 121 85q35 0 66 -17l48 -23q16 -9 33.5 -9t34.5 24l9 13q22 0 44 -13t31 -32l-9 -19q-19 -40 -50.5 -63t-66 -23t-70.5 17z" />
    <glyph glyph-name="Adieresis" unicode="&#xc4;" horiz-adv-x="634" 
d="M240 146q-28 0 -42 1l-44 -148q-23 -6 -67 -6t-71 11l-6 8l222 671q36 6 89 6t87 -7l216 -672q-33 -19 -79 -19t-66 17.5t-33 65.5l-21 73q-14 -1 -43 -1h-142zM233 266l42 1h77q5 0 18 -0.5t20 -0.5l-76 276h-5q-9 -49 -48 -184zM375 850q28 16 61 16t58 -16
q12 -16 12 -49.5t-12 -48.5q-24 -17 -58 -17t-61 17q-14 15 -14 48t14 50zM203 866q34 0 62 -16q12 -14 12 -49.5t-12 -48.5q-27 -17 -62 -17t-57 17q-12 15 -12 48.5t12 49.5q23 16 57 16z" />
    <glyph glyph-name="Aring" unicode="&#xc5;" horiz-adv-x="634" 
d="M402 683l6 -1l216 -672q-33 -19 -79 -19t-66 17.5t-33 65.5l-21 73q-14 -1 -43 -1h-142q-28 0 -42 1l-44 -148q-23 -6 -67 -6t-71 11l-6 8l222 671q3 0 5 1q-56 35 -56 103q0 54 38.5 90t100.5 36t100 -36t38 -96.5t-56 -97.5zM233 266l42 1h77q5 0 18 -0.5t20 -0.5
l-76 276h-5q-9 -49 -48 -184zM270 787q0 -22 14 -36.5t36 -14.5t35.5 14.5t13.5 36.5t-13.5 36.5t-35.5 14.5t-36 -14.5t-14 -36.5z" />
    <glyph glyph-name="AE" unicode="&#xc6;" horiz-adv-x="885" 
d="M539 195l-1 -71v-1q44 2 72 2h239q0 -36 -3 -54q-12 -74 -98 -74h-270q-41 0 -64 24t-23 66v60q-13 -1 -37 -1h-89q-28 0 -42 1l-63 -147q-23 -6 -72.5 -6t-76.5 10l-5 8l300 658q29 13 92 13h426q6 -28 6 -59.5t-13 -68.5h-279l1 -71v-79q26 1 66 1h161q8 -25 8 -61.5
t-8 -63.5h-227v-86zM353 266l38 -1v277h-4q-37 -102 -74 -185l-40 -92l35 1h45z" />
    <glyph glyph-name="Ccedilla" unicode="&#xc7;" horiz-adv-x="608" 
d="M255 -77q8 34 20 64q-64 7 -112 39.5t-74 83.5q-51 99 -51 229q0 179 81.5 269t201.5 90t190.5 -59t70.5 -147q0 -84 -87 -84q-28 0 -58 8v10q0 63 -25.5 107t-89.5 44t-94 -60t-30 -173.5t37 -169.5t107.5 -56t167.5 71q23 -16 44.5 -44.5t26.5 -53.5
q-39 -39 -99.5 -67.5t-128.5 -36.5q-5 -8 -9 -19q46 -3 73 -27.5t27 -67.5t-38 -73.5t-94 -30.5t-89 23q2 41 24 65q22 -13 47 -13q38 0 38 30q0 14 -9.5 22.5t-21.5 8.5t-24 -4q-15 7 -22 22z" />
    <glyph glyph-name="Egrave" unicode="&#xc8;" horiz-adv-x="572" 
d="M228 193l-1 -69v-1q44 2 73 2h236q0 -36 -3 -54q-14 -74 -98 -74h-270q-41 0 -64.5 24t-23.5 66v589l7 7h427q5 -23 5 -58t-12 -70h-277l1 -71v-79q26 1 67 1h157q9 -24 9 -61.5t-9 -63.5h-224v-88zM209 934l221 -135q-8 -52 -42 -72l-238 94q3 31 21 64.5t38 48.5z" />
    <glyph glyph-name="Eacute" unicode="&#xc9;" horiz-adv-x="572" 
d="M228 193l-1 -69v-1q44 2 73 2h236q0 -36 -3 -54q-14 -74 -98 -74h-270q-41 0 -64.5 24t-23.5 66v589l7 7h427q5 -23 5 -58t-12 -70h-277l1 -71v-79q26 1 67 1h157q9 -24 9 -61.5t-9 -63.5h-224v-88zM178 799l221 135q20 -15 38 -48.5t21 -64.5l-238 -94q-15 9 -27.5 30.5
t-14.5 41.5z" />
    <glyph glyph-name="Ecircumflex" unicode="&#xca;" horiz-adv-x="572" 
d="M228 193l-1 -69v-1q44 2 73 2h236q0 -36 -3 -54q-14 -74 -98 -74h-270q-41 0 -64.5 24t-23.5 66v589l7 7h427q5 -23 5 -58t-12 -70h-277l1 -71v-79q26 1 67 1h157q9 -24 9 -61.5t-9 -63.5h-224v-88zM414 735l-117 75l-119 -86q-17 6 -36.5 24.5t-24.5 37.5l118 120
q31 7 62 7t63 -6l113 -110q-6 -21 -24 -38t-35 -24z" />
    <glyph glyph-name="Edieresis" unicode="&#xcb;" horiz-adv-x="572" 
d="M228 193l-1 -69v-1q44 2 73 2h236q0 -36 -3 -54q-14 -74 -98 -74h-270q-41 0 -64.5 24t-23.5 66v589l7 7h427q5 -23 5 -58t-12 -70h-277l1 -71v-79q26 1 67 1h157q9 -24 9 -61.5t-9 -63.5h-224v-88zM354 850q28 16 61 16t58 -16q12 -16 12 -49.5t-12 -48.5
q-24 -17 -58 -17t-61 17q-14 15 -14 48t14 50zM182 866q34 0 62 -16q12 -14 12 -49.5t-12 -48.5q-27 -17 -62 -17t-57 17q-12 15 -12 48.5t12 49.5q23 16 57 16z" />
    <glyph glyph-name="Igrave" unicode="&#xcc;" horiz-adv-x="314" 
d="M80 0v683q30 6 76.5 6t76.5 -6v-683q-30 -6 -76.5 -6t-76.5 6zM67 935l221 -135q-8 -52 -42 -72l-238 94q3 31 21 64.5t38 48.5z" />
    <glyph glyph-name="Iacute" unicode="&#xcd;" horiz-adv-x="314" 
d="M80 0v683q30 6 76.5 6t76.5 -6v-683q-30 -6 -76.5 -6t-76.5 6zM36 800l221 135q20 -15 38 -48.5t21 -64.5l-238 -94q-15 9 -27.5 30.5t-14.5 41.5z" />
    <glyph glyph-name="Icircumflex" unicode="&#xce;" horiz-adv-x="314" 
d="M80 0v683q30 6 76.5 6t76.5 -6v-683q-30 -6 -76.5 -6t-76.5 6zM272 736l-117 75l-119 -86q-17 6 -36.5 24.5t-24.5 37.5l118 120q31 7 62 7t63 -6l113 -110q-6 -21 -24 -38t-35 -24z" />
    <glyph glyph-name="Idieresis" unicode="&#xcf;" horiz-adv-x="314" 
d="M80 0v683q30 6 76.5 6t76.5 -6v-683q-30 -6 -76.5 -6t-76.5 6zM212 851q28 16 61 16t58 -16q12 -16 12 -49.5t-12 -48.5q-24 -17 -58 -17t-61 17q-14 15 -14 48t14 50zM40 867q34 0 62 -16q12 -14 12 -49.5t-12 -48.5q-27 -17 -62 -17t-57 17q-12 15 -12 48.5t12 49.5
q23 16 57 16z" />
    <glyph glyph-name="Eth" unicode="&#xd0;" horiz-adv-x="680" 
d="M617.5 514q23.5 -73 23.5 -173t-23 -173t-88 -124q-32 -25 -83.5 -37.5t-112 -12.5t-234.5 4l-7 7v280h-68q-7 22 -7 61t7 62h68v270l7 7q116 4 248 4q47 0 98.5 -13t83.5 -38q64 -51 87.5 -124zM348 569l-106 1v-162h131q6 -30 6 -62t-6 -61h-131v-172h106
q136 0 136 229q0 162 -65 207q-29 20 -71 20z" />
    <glyph glyph-name="Ntilde" unicode="&#xd1;" horiz-adv-x="694" 
d="M609 689l7 -6v-680q-38 -9 -89.5 -9t-91.5 6l-166 366q-42 100 -57 141l-4 -1q12 -142 12 -291v-215q-30 -6 -71.5 -6t-70.5 6v680q36 9 87.5 9t91.5 -6l162 -365l63 -151l4 1q-12 138 -12 289v140q0 50 20 71t65 21h50zM352 758l-48 23q-16 9 -34 9t-34 -24l-9 -12
q-22 0 -44.5 12.5t-30.5 31.5l9 20q41 85 121 85q35 0 66 -17l48 -23q16 -9 33.5 -9t34.5 24l9 13q22 0 44 -13t31 -32l-9 -19q-19 -40 -50.5 -63t-66 -23t-70.5 17z" />
    <glyph glyph-name="Ograve" unicode="&#xd2;" horiz-adv-x="665" 
d="M197 341.5q0 -238.5 135.5 -238.5t135.5 238.5t-135.5 238.5t-135.5 -238.5zM145 48q-107 89 -107 293.5t107 293.5q77 63 188 63t188 -63q107 -89 107 -293.5t-107 -293.5q-77 -63 -188 -63t-188 63zM243 934l221 -135q-8 -52 -42 -72l-238 94q3 31 21 64.5t38 48.5z
" />
    <glyph glyph-name="Oacute" unicode="&#xd3;" horiz-adv-x="665" 
d="M197 341.5q0 -238.5 135.5 -238.5t135.5 238.5t-135.5 238.5t-135.5 -238.5zM145 48q-107 89 -107 293.5t107 293.5q77 63 188 63t188 -63q107 -89 107 -293.5t-107 -293.5q-77 -63 -188 -63t-188 63zM212 799l221 135q20 -15 38 -48.5t21 -64.5l-238 -94
q-15 9 -27.5 30.5t-14.5 41.5z" />
    <glyph glyph-name="Ocircumflex" unicode="&#xd4;" horiz-adv-x="665" 
d="M197 341.5q0 -238.5 135.5 -238.5t135.5 238.5t-135.5 238.5t-135.5 -238.5zM145 48q-107 89 -107 293.5t107 293.5q77 63 188 63t188 -63q107 -89 107 -293.5t-107 -293.5q-77 -63 -188 -63t-188 63zM448 735l-117 75l-119 -86q-17 6 -36.5 24.5t-24.5 37.5l118 120
q31 7 62 7t63 -6l113 -110q-6 -21 -24 -38t-35 -24z" />
    <glyph glyph-name="Otilde" unicode="&#xd5;" horiz-adv-x="665" 
d="M197 341.5q0 -238.5 135.5 -238.5t135.5 238.5t-135.5 238.5t-135.5 -238.5zM145 48q-107 89 -107 293.5t107 293.5q77 63 188 63t188 -63q107 -89 107 -293.5t-107 -293.5q-77 -63 -188 -63t-188 63zM329 766l-49 23q-18 9 -34.5 9t-35.5 -24l-10 -13q-22 0 -44.5 13
t-30.5 32l9 19q18 39 50 62.5t69 23.5t71 -17l49 -23q18 -9 35 -9t35 24l10 12q22 0 44 -12.5t31 -31.5l-9 -20q-18 -39 -50.5 -62.5t-68 -23.5t-71.5 18z" />
    <glyph glyph-name="Odieresis" unicode="&#xd6;" horiz-adv-x="665" 
d="M197 341.5q0 -238.5 135.5 -238.5t135.5 238.5t-135.5 238.5t-135.5 -238.5zM145 48q-107 89 -107 293.5t107 293.5q77 63 188 63t188 -63q107 -89 107 -293.5t-107 -293.5q-77 -63 -188 -63t-188 63zM388 850q28 16 61 16t58 -16q12 -16 12 -49.5t-12 -48.5
q-24 -17 -58 -17t-61 17q-14 15 -14 48t14 50zM216 866q34 0 62 -16q12 -14 12 -49.5t-12 -48.5q-27 -17 -62 -17t-57 17q-12 15 -12 48.5t12 49.5q23 16 57 16z" />
    <glyph glyph-name="multiply" unicode="&#xd7;" horiz-adv-x="530" 
d="M264 212l-118 -119q-25 12 -51 36q-26 28 -36 51l120 118l-120 119q13 30 36 51q25 25 51 36l78 -78l40 -42l118 120q58 -28 88 -87l-119 -119l119 -118q-27 -58 -88 -87l-76 78z" />
    <glyph glyph-name="Oslash" unicode="&#xd8;" horiz-adv-x="669" 
d="M127 65q-89 93 -89 286t108 284q75 63 188 63q64 0 116 -20l45 78q59 -9 94 -52l-49 -86q91 -94 91 -276q0 -202 -108 -294q-75 -63 -189 -63q-64 0 -116 20l-43 -75q-26 4 -52.5 18t-42.5 33zM478 342q0 75 -15 131l-188 -361q28 -13 59 -13q144 0 144 243zM190 342
q0 -80 15 -131l188 360q-28 13 -59 13q-144 0 -144 -242z" />
    <glyph glyph-name="Ugrave" unicode="&#xd9;" horiz-adv-x="673" 
d="M604 683v-432q0 -127 -70 -196.5t-198 -69.5t-198 69.5t-70 196.5v432l7 6h56q90 0 90 -96v-344q0 -72 27.5 -107t88 -35t87.5 35t27 107v434q30 6 77 6t76 -6zM244 934l221 -135q-8 -52 -42 -72l-238 94q3 31 21 64.5t38 48.5z" />
    <glyph glyph-name="Uacute" unicode="&#xda;" horiz-adv-x="673" 
d="M604 683v-432q0 -127 -70 -196.5t-198 -69.5t-198 69.5t-70 196.5v432l7 6h56q90 0 90 -96v-344q0 -72 27.5 -107t88 -35t87.5 35t27 107v434q30 6 77 6t76 -6zM213 799l221 135q20 -15 38 -48.5t21 -64.5l-238 -94q-15 9 -27.5 30.5t-14.5 41.5z" />
    <glyph glyph-name="Ucircumflex" unicode="&#xdb;" horiz-adv-x="673" 
d="M604 683v-432q0 -127 -70 -196.5t-198 -69.5t-198 69.5t-70 196.5v432l7 6h56q90 0 90 -96v-344q0 -72 27.5 -107t88 -35t87.5 35t27 107v434q30 6 77 6t76 -6zM449 735l-117 75l-119 -86q-17 6 -36.5 24.5t-24.5 37.5l118 120q31 7 62 7t63 -6l113 -110q-6 -21 -24 -38
t-35 -24z" />
    <glyph glyph-name="Udieresis" unicode="&#xdc;" horiz-adv-x="673" 
d="M604 683v-432q0 -127 -70 -196.5t-198 -69.5t-198 69.5t-70 196.5v432l7 6h56q90 0 90 -96v-344q0 -72 27.5 -107t88 -35t87.5 35t27 107v434q30 6 77 6t76 -6zM389 850q28 16 61 16t58 -16q12 -16 12 -49.5t-12 -48.5q-24 -17 -58 -17t-61 17q-14 15 -14 48t14 50z
M217 866q34 0 62 -16q12 -14 12 -49.5t-12 -48.5q-27 -17 -62 -17t-57 17q-12 15 -12 48.5t12 49.5q23 16 57 16z" />
    <glyph glyph-name="Yacute" unicode="&#xdd;" horiz-adv-x="526" 
d="M318 505l71 178q25 6 65.5 6t71.5 -11l6 -9l-193 -458v-211q-30 -6 -77 -6t-76 6v215l-193 450q47 26 86 26t57 -14t31 -47l52 -130q24 -62 45 -141h6q16 65 48 146zM145 799l221 135q20 -15 38 -48.5t21 -64.5l-238 -94q-15 9 -27.5 30.5t-14.5 41.5z" />
    <glyph glyph-name="Thorn" unicode="&#xde;" horiz-adv-x="588" 
d="M78 0v683q29 6 76 6t77 -6v-95q27 1 81 1q112 0 178 -55.5t66 -169t-67 -170.5t-177 -57h-81v-137q-30 -6 -77 -6t-76 6zM299 471l-68 1v-219q58 2 68 2q101 0 101 108t-101 108z" />
    <glyph glyph-name="germandbls" unicode="&#xdf;" horiz-adv-x="653" 
d="M97 0v364l-86 -1q-6 25 -6 57t6 58l86 -1v23q0 97 64 148.5t173.5 51.5t176.5 -56.5t67 -151.5q0 -37 -17 -77q-32 -7 -49 -24.5t-17 -36t23 -40.5l38 -37q71 -69 71 -139t-55.5 -111.5t-135 -41.5t-140.5 29q1 25 12.5 55.5t28.5 47.5q40 -20 70 -20t46.5 12t16.5 35
t-31 52l-40 37q-63 58 -63 112q0 33 23.5 66t64.5 51q2 20 2 29q0 40 -24 67.5t-67 27.5q-87 0 -87 -102v-484q-33 -6 -75.5 -6t-75.5 6z" />
    <glyph glyph-name="agrave" unicode="&#xe0;" horiz-adv-x="512" 
d="M481 69q-4 -20 -18.5 -43t-28.5 -34q-69 3 -104 53q-64 -60 -141.5 -60t-117 46t-39.5 105q0 85 56.5 129t140.5 44q33 0 75 -3v22q0 66 -68 66q-43 0 -149 -32q-30 35 -36 104q47 20 111.5 32t114.5 12q75 0 125.5 -41.5t50.5 -128.5v-204q0 -47 28 -67zM226 96
q39 0 78 33v83q-22 1 -60 1q-67 0 -67 -67q0 -21 13.5 -35.5t35.5 -14.5zM196 765l154 -167q-7 -20 -25 -36t-37 -22l-183 138q9 28 36 53t55 34z" />
    <glyph glyph-name="aacute" unicode="&#xe1;" horiz-adv-x="512" 
d="M481 69q-4 -20 -18.5 -43t-28.5 -34q-69 3 -104 53q-64 -60 -141.5 -60t-117 46t-39.5 105q0 85 56.5 129t140.5 44q33 0 75 -3v22q0 66 -68 66q-43 0 -149 -32q-30 35 -36 104q47 20 111.5 32t114.5 12q75 0 125.5 -41.5t50.5 -128.5v-204q0 -47 28 -67zM226 96
q39 0 78 33v83q-22 1 -60 1q-67 0 -67 -67q0 -21 13.5 -35.5t35.5 -14.5zM158 598l154 167q28 -9 55.5 -34t35.5 -53l-183 -138q-19 6 -36.5 22t-25.5 36z" />
    <glyph glyph-name="acircumflex" unicode="&#xe2;" horiz-adv-x="512" 
d="M481 69q-4 -20 -18.5 -43t-28.5 -34q-69 3 -104 53q-64 -60 -141.5 -60t-117 46t-39.5 105q0 85 56.5 129t140.5 44q33 0 75 -3v22q0 66 -68 66q-43 0 -149 -32q-30 35 -36 104q47 20 111.5 32t114.5 12q75 0 125.5 -41.5t50.5 -128.5v-204q0 -47 28 -67zM226 96
q39 0 78 33v83q-22 1 -60 1q-67 0 -67 -67q0 -21 13.5 -35.5t35.5 -14.5zM345 551l-92 87l-97 -94q-43 17 -66 57l105 136q24 8 41 8q53 0 81 -8l93 -125q-8 -21 -27.5 -38t-37.5 -23z" />
    <glyph glyph-name="atilde" unicode="&#xe3;" horiz-adv-x="512" 
d="M481 69q-4 -20 -18.5 -43t-28.5 -34q-69 3 -104 53q-64 -60 -141.5 -60t-117 46t-39.5 105q0 85 56.5 129t140.5 44q33 0 75 -3v22q0 66 -68 66q-43 0 -149 -32q-30 35 -36 104q47 20 111.5 32t114.5 12q75 0 125.5 -41.5t50.5 -128.5v-204q0 -47 28 -67zM226 96
q39 0 78 33v83q-22 1 -60 1q-67 0 -67 -67q0 -21 13.5 -35.5t35.5 -14.5zM251 572l-45 23q-16 9 -31.5 9t-33.5 -24l-9 -13q-21 0 -42 13t-28 32l8 19q17 39 47 62.5t64 23.5t66 -17l45 -23q16 -9 32 -9t33 24l9 12q21 0 41.5 -12.5t28.5 -31.5l-8 -20q-17 -39 -47.5 -62.5
t-63 -23.5t-66.5 18z" />
    <glyph glyph-name="adieresis" unicode="&#xe4;" horiz-adv-x="512" 
d="M481 69q-4 -20 -18.5 -43t-28.5 -34q-69 3 -104 53q-64 -60 -141.5 -60t-117 46t-39.5 105q0 85 56.5 129t140.5 44q33 0 75 -3v22q0 66 -68 66q-43 0 -149 -32q-30 35 -36 104q47 20 111.5 32t114.5 12q75 0 125.5 -41.5t50.5 -128.5v-204q0 -47 28 -67zM226 96
q39 0 78 33v83q-22 1 -60 1q-67 0 -67 -67q0 -21 13.5 -35.5t35.5 -14.5zM278 622q0 27 8 48q27 16 63 16t62 -16q9 -21 9 -49t-9 -47q-26 -16 -62 -16t-63 16q-8 21 -8 48zM78 622q0 27 9 48q26 16 62 16t63 -16q8 -21 8 -48.5t-8 -47.5q-27 -16 -63 -16t-62 16
q-9 21 -9 48z" />
    <glyph glyph-name="aring" unicode="&#xe5;" horiz-adv-x="512" 
d="M481 69q-4 -20 -18.5 -43t-28.5 -34q-69 3 -104 53q-64 -60 -141.5 -60t-117 46t-39.5 105q0 85 56.5 129t140.5 44q33 0 75 -3v22q0 66 -68 66q-43 0 -149 -32q-30 35 -36 104q47 20 111.5 32t114.5 12q75 0 125.5 -41.5t50.5 -128.5v-204q0 -47 28 -67zM226 96
q39 0 78 33v83q-22 1 -60 1q-67 0 -67 -67q0 -21 13.5 -35.5t35.5 -14.5zM149 578.5q-38 36.5 -38 90t38 90t100 36.5t100 -36.5t38 -90t-38 -90t-100 -36.5t-100 36.5zM200 669q0 -22 13.5 -36.5t35.5 -14.5t35.5 14.5t13.5 36.5t-13.5 36.5t-35.5 14.5t-35.5 -14.5
t-13.5 -36.5z" />
    <glyph glyph-name="ae" unicode="&#xe6;" horiz-adv-x="759" 
d="M715 201h-262q3 -48 23 -74.5t71.5 -26.5t126.5 31q32 -32 40 -89q-79 -57 -191 -57t-168 73q-73 -73 -172 -73q-72 0 -111.5 45.5t-39.5 106.5q0 84 56.5 128t140.5 44q35 0 75 -3v22q0 66 -67 66q-50 0 -150 -32q-30 35 -36 104q106 44 215 44q79 0 124 -48
q54 51 132 51q96 0 150.5 -59.5t54.5 -152.5q0 -56 -12 -100zM226 96q49 0 90 44q-10 35 -11 71q-22 2 -61 2q-67 0 -67 -67q0 -21 13.5 -35.5t35.5 -14.5zM521 407q-34 0 -50 -25t-19 -78h137v11q0 92 -68 92z" />
    <glyph glyph-name="ccedilla" unicode="&#xe7;" horiz-adv-x="474" 
d="M187 -77q11 41 21 65q-85 14 -130.5 83t-45.5 177q0 134 65 199.5t153.5 65.5t142.5 -46t54 -118q0 -36 -19.5 -54.5t-55 -18.5t-59.5 5v9q0 56 -11.5 84t-49 28t-53 -36.5t-15.5 -116.5t22.5 -113.5t69.5 -33.5t110 43q18 -10 35 -35.5t22 -47.5q-59 -62 -158 -75
q-5 -8 -9 -19q46 -3 73 -27.5t27 -67.5t-38 -73.5t-94 -30.5t-89 23q2 40 24 65q22 -13 47 -13q38 0 38 30q0 14 -9.5 22.5t-21.5 8.5t-24 -4q-15 7 -22 22z" />
    <glyph glyph-name="egrave" unicode="&#xe8;" horiz-adv-x="497" 
d="M448 201h-265q3 -48 24 -74.5t74 -26.5t126 31q31 -30 41 -89q-81 -57 -196 -57q-62 0 -107 21.5t-69 59.5q-44 73 -44 187t55 187t159 73t159.5 -59.5t55.5 -152.5q0 -52 -13 -100zM306 381.5q-17 25.5 -52.5 25.5t-52 -25t-19.5 -78h141v12q0 40 -17 65.5zM202 765
l154 -167q-7 -20 -25 -36t-37 -22l-183 138q9 28 36 53t55 34z" />
    <glyph glyph-name="eacute" unicode="&#xe9;" horiz-adv-x="497" 
d="M448 201h-265q3 -48 24 -74.5t74 -26.5t126 31q31 -30 41 -89q-81 -57 -196 -57q-62 0 -107 21.5t-69 59.5q-44 73 -44 187t55 187t159 73t159.5 -59.5t55.5 -152.5q0 -52 -13 -100zM306 381.5q-17 25.5 -52.5 25.5t-52 -25t-19.5 -78h141v12q0 40 -17 65.5zM164 598
l154 167q28 -9 55.5 -34t35.5 -53l-183 -138q-19 6 -36.5 22t-25.5 36z" />
    <glyph glyph-name="ecircumflex" unicode="&#xea;" horiz-adv-x="497" 
d="M448 201h-265q3 -48 24 -74.5t74 -26.5t126 31q31 -30 41 -89q-81 -57 -196 -57q-62 0 -107 21.5t-69 59.5q-44 73 -44 187t55 187t159 73t159.5 -59.5t55.5 -152.5q0 -52 -13 -100zM306 381.5q-17 25.5 -52.5 25.5t-52 -25t-19.5 -78h141v12q0 40 -17 65.5zM351 551
l-92 87l-97 -94q-43 17 -66 57l105 136q24 8 41 8q53 0 81 -8l93 -125q-8 -21 -27.5 -38t-37.5 -23z" />
    <glyph glyph-name="edieresis" unicode="&#xeb;" horiz-adv-x="497" 
d="M448 201h-265q3 -48 24 -74.5t74 -26.5t126 31q31 -30 41 -89q-81 -57 -196 -57q-62 0 -107 21.5t-69 59.5q-44 73 -44 187t55 187t159 73t159.5 -59.5t55.5 -152.5q0 -52 -13 -100zM306 381.5q-17 25.5 -52.5 25.5t-52 -25t-19.5 -78h141v12q0 40 -17 65.5zM284 622
q0 27 8 48q27 16 63 16t62 -16q9 -21 9 -49t-9 -47q-26 -16 -62 -16t-63 16q-8 21 -8 48zM84 622q0 27 9 48q26 16 62 16t63 -16q8 -21 8 -48.5t-8 -47.5q-27 -16 -63 -16t-62 16q-9 21 -9 48z" />
    <glyph glyph-name="igrave" unicode="&#xec;" horiz-adv-x="287" 
d="M227 387v-387q-30 -6 -73 -6t-76 6v336q0 57 -47 57h-14q-6 25 -6 52t6 52q50 5 85 5h20q49 0 77 -31t28 -84zM77 765l154 -167q-7 -20 -25 -36t-37 -22l-183 138q9 28 36 53t55 34z" />
    <glyph glyph-name="iacute" unicode="&#xed;" horiz-adv-x="287" 
d="M227 387v-387q-30 -6 -73 -6t-76 6v336q0 57 -47 57h-14q-6 25 -6 52t6 52q50 5 85 5h20q49 0 77 -31t28 -84zM40 598l154 167q28 -9 55.5 -34t35.5 -53l-183 -138q-19 6 -36.5 22t-25.5 36z" />
    <glyph glyph-name="icircumflex" unicode="&#xee;" horiz-adv-x="287" 
d="M227 387v-387q-30 -6 -73 -6t-76 6v336q0 57 -47 57h-14q-6 25 -6 52t6 52q50 5 85 5h20q49 0 77 -31t28 -84zM227 551l-92 87l-97 -94q-43 17 -66 57l105 136q24 8 41 8q53 0 81 -8l93 -125q-8 -21 -27.5 -38t-37.5 -23z" />
    <glyph glyph-name="idieresis" unicode="&#xef;" horiz-adv-x="287" 
d="M227 387v-387q-30 -6 -73 -6t-76 6v336q0 57 -47 57h-14q-6 25 -6 52t6 52q50 5 85 5h20q49 0 77 -31t28 -84zM160 622q0 27 8 48q27 16 63 16t62 -16q9 -21 9 -49t-9 -47q-26 -16 -62 -16t-63 16q-8 21 -8 48zM-40 622q0 27 9 48q26 16 62 16t63 -16q8 -21 8 -48.5
t-8 -47.5q-27 -16 -63 -16t-62 16q-9 21 -9 48z" />
    <glyph glyph-name="eth" unicode="&#xf0;" horiz-adv-x="519" 
d="M88 571l73 50q-31 22 -64 41q3 26 20.5 53t37.5 37q59 -25 110 -59l85 58q37 -26 48 -69l-64 -44q154 -148 154 -389q0 -134 -72 -205q-59 -59 -157 -59t-157 59q-71 70 -71 197t72 193q59 53 144 53q22 0 43 -8q-18 44 -62 86l-92 -63q-38 26 -48 69zM320 135
q16 41 16 112.5t-11 114.5q-35 19 -64 19q-78 0 -78 -141q0 -67 16 -106.5t60.5 -39.5t60.5 41z" />
    <glyph glyph-name="ntilde" unicode="&#xf1;" horiz-adv-x="547" 
d="M487 331v-208q0 -64 24 -99q-39 -32 -87.5 -32t-67 23t-18.5 70v218q0 37 -10 54t-35 17q-43 0 -82 -39v-335q-31 -6 -73.5 -6t-75.5 6v498l7 7h56q62 0 79 -60q73 62 142 62t105 -48t36 -128zM282 572l-45 23q-16 9 -31.5 9t-33.5 -24l-9 -13q-21 0 -42 13t-28 32l8 19
q17 39 47 62.5t64 23.5t66 -17l45 -23q16 -9 32 -9t33 24l9 12q21 0 41.5 -12.5t28.5 -31.5l-8 -20q-17 -39 -47.5 -62.5t-63 -23.5t-66.5 18z" />
    <glyph glyph-name="ograve" unicode="&#xf2;" horiz-adv-x="522" 
d="M418 455q72 -72 72 -205.5t-72 -205.5q-59 -59 -157 -59t-157 59q-72 72 -72 205.5t72 205.5q59 58 157 58t157 -58zM185 249q0 -73 15.5 -112.5t60.5 -39.5t60.5 39.5t15.5 112.5t-15.5 113t-60.5 40t-60.5 -40t-15.5 -113zM207 765l154 -167q-7 -20 -25 -36t-37 -22
l-183 138q9 28 36 53t55 34z" />
    <glyph glyph-name="oacute" unicode="&#xf3;" horiz-adv-x="522" 
d="M418 455q72 -72 72 -205.5t-72 -205.5q-59 -59 -157 -59t-157 59q-72 72 -72 205.5t72 205.5q59 58 157 58t157 -58zM185 249q0 -73 15.5 -112.5t60.5 -39.5t60.5 39.5t15.5 112.5t-15.5 113t-60.5 40t-60.5 -40t-15.5 -113zM169 598l154 167q28 -9 55.5 -34t35.5 -53
l-183 -138q-19 6 -36.5 22t-25.5 36z" />
    <glyph glyph-name="ocircumflex" unicode="&#xf4;" horiz-adv-x="522" 
d="M418 455q72 -72 72 -205.5t-72 -205.5q-59 -59 -157 -59t-157 59q-72 72 -72 205.5t72 205.5q59 58 157 58t157 -58zM185 249q0 -73 15.5 -112.5t60.5 -39.5t60.5 39.5t15.5 112.5t-15.5 113t-60.5 40t-60.5 -40t-15.5 -113zM357 551l-92 87l-97 -94q-43 17 -66 57
l105 136q24 8 41 8q53 0 81 -8l93 -125q-8 -21 -27.5 -38t-37.5 -23z" />
    <glyph glyph-name="otilde" unicode="&#xf5;" horiz-adv-x="522" 
d="M418 455q72 -72 72 -205.5t-72 -205.5q-59 -59 -157 -59t-157 59q-72 72 -72 205.5t72 205.5q59 58 157 58t157 -58zM185 249q0 -73 15.5 -112.5t60.5 -39.5t60.5 39.5t15.5 112.5t-15.5 113t-60.5 40t-60.5 -40t-15.5 -113zM263 572l-45 23q-16 9 -31.5 9t-33.5 -24
l-9 -13q-21 0 -42 13t-28 32l8 19q17 39 47 62.5t64 23.5t66 -17l45 -23q16 -9 32 -9t33 24l9 12q21 0 41.5 -12.5t28.5 -31.5l-8 -20q-17 -39 -47.5 -62.5t-63 -23.5t-66.5 18z" />
    <glyph glyph-name="odieresis" unicode="&#xf6;" horiz-adv-x="522" 
d="M418 455q72 -72 72 -205.5t-72 -205.5q-59 -59 -157 -59t-157 59q-72 72 -72 205.5t72 205.5q59 58 157 58t157 -58zM185 249q0 -73 15.5 -112.5t60.5 -39.5t60.5 39.5t15.5 112.5t-15.5 113t-60.5 40t-60.5 -40t-15.5 -113zM290 622q0 27 8 48q27 16 63 16t62 -16
q9 -21 9 -49t-9 -47q-26 -16 -62 -16t-63 16q-8 21 -8 48zM90 622q0 27 9 48q26 16 62 16t63 -16q8 -21 8 -48.5t-8 -47.5q-27 -16 -63 -16t-62 16q-9 21 -9 48z" />
    <glyph glyph-name="divide" unicode="&#xf7;" horiz-adv-x="530" 
d="M190 477q0 28 10 51q27 15 66.5 15t62.5 -15q11 -22 11 -51t-11 -51q-22 -14 -64 -14t-65 14q-10 23 -10 51zM200 68q-10 23 -10 51.5t10 51.5q28 14 66 14t63 -14q11 -22 11 -51.5t-11 -51.5q-25 -14 -65.5 -14t-63.5 14zM477 239h-424q-6 24 -6 59.5t6 60.5h424
q6 -25 6 -60.5t-6 -59.5z" />
    <glyph glyph-name="oslash" unicode="&#xf8;" horiz-adv-x="525" 
d="M420 455q71 -70 71 -206.5t-71 -204.5q-58 -59 -158 -59q-50 0 -86 14l-34 -59q-48 10 -75 42l36 62q-69 69 -69 205t70 206q59 58 158 58q47 0 85 -13l34 59q48 -12 75 -41zM353 250q0 44 -5 71l-118 -224q15 -6 33 -6q90 0 90 159zM178 328q-6 -32 -6 -77t5 -72
l117 223q-14 6 -31 6q-36 0 -57.5 -24t-27.5 -56z" />
    <glyph glyph-name="ugrave" unicode="&#xf9;" horiz-adv-x="549" 
d="M60 167v209q0 63 -24 98q37 32 86.5 32t68 -23t18.5 -69v-219q0 -37 10 -53.5t35 -16.5q43 0 81 37v336q31 6 74 6t76 -6v-356q0 -55 28 -75q-4 -20 -18 -41.5t-29 -33.5q-80 3 -114 70q-76 -71 -148 -71t-108 48.5t-36 127.5zM212 765l154 -167q-7 -20 -25 -36t-37 -22
l-183 138q9 28 36 53t55 34z" />
    <glyph glyph-name="uacute" unicode="&#xfa;" horiz-adv-x="549" 
d="M60 167v209q0 63 -24 98q37 32 86.5 32t68 -23t18.5 -69v-219q0 -37 10 -53.5t35 -16.5q43 0 81 37v336q31 6 74 6t76 -6v-356q0 -55 28 -75q-4 -20 -18 -41.5t-29 -33.5q-80 3 -114 70q-76 -71 -148 -71t-108 48.5t-36 127.5zM174 598l154 167q28 -9 55.5 -34t35.5 -53
l-183 -138q-19 6 -36.5 22t-25.5 36z" />
    <glyph glyph-name="ucircumflex" unicode="&#xfb;" horiz-adv-x="549" 
d="M60 167v209q0 63 -24 98q37 32 86.5 32t68 -23t18.5 -69v-219q0 -37 10 -53.5t35 -16.5q43 0 81 37v336q31 6 74 6t76 -6v-356q0 -55 28 -75q-4 -20 -18 -41.5t-29 -33.5q-80 3 -114 70q-76 -71 -148 -71t-108 48.5t-36 127.5zM362 551l-92 87l-97 -94q-43 17 -66 57
l105 136q24 8 41 8q53 0 81 -8l93 -125q-8 -21 -27.5 -38t-37.5 -23z" />
    <glyph glyph-name="udieresis" unicode="&#xfc;" horiz-adv-x="549" 
d="M60 167v209q0 63 -24 98q37 32 86.5 32t68 -23t18.5 -69v-219q0 -37 10 -53.5t35 -16.5q43 0 81 37v336q31 6 74 6t76 -6v-356q0 -55 28 -75q-4 -20 -18 -41.5t-29 -33.5q-80 3 -114 70q-76 -71 -148 -71t-108 48.5t-36 127.5zM295 622q0 27 8 48q27 16 63 16t62 -16
q9 -21 9 -49t-9 -47q-26 -16 -62 -16t-63 16q-8 21 -8 48zM95 622q0 27 9 48q26 16 62 16t63 -16q8 -21 8 -48.5t-8 -47.5q-27 -16 -63 -16t-62 16q-9 21 -9 48z" />
    <glyph glyph-name="yacute" unicode="&#xfd;" horiz-adv-x="493" 
d="M487 483l-125 -469q-31 -117 -83.5 -175t-158.5 -58q-60 0 -118 20v18.5t7.5 42.5t22.5 45q52 -15 88 -15q75 0 101 87l4 14q-84 2 -100 62l-119 432q44 20 82.5 20t55.5 -14t26 -50l50 -198q8 -29 24 -133q1 -7 9 -7l90 393q25 6 65.5 6t73.5 -11zM154 598l154 167
q28 -9 55.5 -34t35.5 -53l-183 -138q-19 6 -36.5 22t-25.5 36z" />
    <glyph glyph-name="thorn" unicode="&#xfe;" horiz-adv-x="533" 
d="M500 264q0 -134 -57.5 -204t-137.5 -70q-48 0 -99 22v-138q0 -49 -18.5 -69.5t-62.5 -20.5h-56l-7 7v938l7 7h56q44 0 62.5 -20.5t18.5 -69.5v-179q51 41 115 41q82 0 130.5 -68.5t48.5 -175.5zM283 389q-44 0 -77 -42v-221q42 -25 69 -25q73 0 73 153q0 68 -18 101.5
t-47 33.5z" />
    <glyph glyph-name="ydieresis" unicode="&#xff;" horiz-adv-x="493" 
d="M487 483l-125 -469q-31 -117 -83.5 -175t-158.5 -58q-60 0 -118 20v18.5t7.5 42.5t22.5 45q52 -15 88 -15q75 0 101 87l4 14q-84 2 -100 62l-119 432q44 20 82.5 20t55.5 -14t26 -50l50 -198q8 -29 24 -133q1 -7 9 -7l90 393q25 6 65.5 6t73.5 -11zM274 622q0 27 8 48
q27 16 63 16t62 -16q9 -21 9 -49t-9 -47q-26 -16 -62 -16t-63 16q-8 21 -8 48zM74 622q0 27 9 48q26 16 62 16t63 -16q8 -21 8 -48.5t-8 -47.5q-27 -16 -63 -16t-62 16q-9 21 -9 48z" />
    <glyph glyph-name="Aogonek" unicode="&#x104;" horiz-adv-x="634" 
d="M10 12l222 671q36 6 89 6t87 -7l216 -672l-9 -5q-76 -42 -76 -93q0 -37 42 -37q23 0 51 14q30 -26 31 -67q-45 -40 -106.5 -40t-94.5 27t-33 72q0 62 64 118q-31 15 -47 75l-21 73q-14 -1 -43 -1h-142q-28 0 -42 1l-44 -148q-23 -6 -67 -6t-71 11zM233 266l42 1h77
q5 0 18 -0.5t20 -0.5l-76 276h-5q-9 -49 -48 -184z" />
    <glyph glyph-name="aogonek" unicode="&#x105;" horiz-adv-x="541" 
d="M477 -111q29 -25 32 -67q-45 -40 -107 -40t-94.5 27t-32.5 72q0 75 84 137q-17 12 -28 28q-67 -61 -143.5 -61t-116 46t-39.5 105q0 85 56.5 129t140.5 44q33 0 75 -3v22q0 66 -68 66q-43 0 -149 -32q-30 35 -36 104q47 20 111.5 32t114.5 12q75 0 125.5 -41.5
t50.5 -128.5v-204q0 -44 31 -67q-12 -40 -56 -82t-44 -75q0 -18 12 -27.5t33.5 -9.5t47.5 14zM226 96q39 0 78 33v83q-22 1 -60 1q-67 0 -67 -67q0 -21 13.5 -35.5t35.5 -14.5z" />
    <glyph glyph-name="Cacute" unicode="&#x106;" horiz-adv-x="608" 
d="M437 416v10q0 63 -25.5 107t-89.5 44t-94 -60t-30 -173.5t37 -169.5t107.5 -56t167.5 71q23 -16 44.5 -44.5t26.5 -53.5q-45 -45 -118 -75.5t-142.5 -30.5t-117 20.5t-78 54t-50.5 80.5q-37 86 -37 199q0 179 81.5 269t201.5 90t190.5 -59t70.5 -147q0 -84 -87 -84
q-28 0 -58 8zM205 800l221 135q20 -15 38 -48.5t21 -64.5l-238 -94q-15 9 -27.5 30.5t-14.5 41.5z" />
    <glyph glyph-name="cacute" unicode="&#x107;" horiz-adv-x="474" 
d="M313 281v9q0 56 -11.5 84t-49 28t-53 -36.5t-15.5 -116.5t22.5 -113.5t69.5 -33.5t110 43q18 -10 35 -35.5t22 -47.5q-34 -35 -86 -56t-107 -21q-105 0 -161.5 71t-56.5 198.5t65 193t153.5 65.5t142.5 -46t54 -118q0 -36 -19.5 -54.5t-55 -18.5t-59.5 5zM161 598
l154 167q28 -9 55.5 -34t35.5 -53l-183 -138q-19 6 -36.5 22t-25.5 36z" />
    <glyph glyph-name="Ccaron" unicode="&#x10c;" horiz-adv-x="608" 
d="M437 416v10q0 63 -25.5 107t-89.5 44t-94 -60t-30 -173.5t37 -169.5t107.5 -56t167.5 71q23 -16 44.5 -44.5t26.5 -53.5q-45 -45 -118 -75.5t-142.5 -30.5t-117 20.5t-78 54t-50.5 80.5q-37 86 -37 199q0 179 81.5 269t201.5 90t190.5 -59t70.5 -147q0 -84 -87 -84
q-28 0 -58 8zM204 916l117 -74l120 86q17 -6 37 -24t25 -37l-119 -121q-31 -8 -62.5 -8t-63.5 7l-113 110q6 21 24 38t35 23z" />
    <glyph glyph-name="ccaron" unicode="&#x10d;" horiz-adv-x="474" 
d="M313 281v9q0 56 -11.5 84t-49 28t-53 -36.5t-15.5 -116.5t22.5 -113.5t69.5 -33.5t110 43q18 -10 35 -35.5t22 -47.5q-34 -35 -86 -56t-107 -21q-105 0 -161.5 71t-56.5 198.5t65 193t153.5 65.5t142.5 -46t54 -118q0 -36 -19.5 -54.5t-55 -18.5t-59.5 5zM156 748l92 -87
l99 95q44 -15 66 -57l-106 -137q-26 -9 -43 -9t-35 0.5t-45 8.5l-93 125q10 21 29.5 38t35.5 23z" />
    <glyph glyph-name="Dcaron" unicode="&#x10e;" horiz-adv-x="665" 
d="M602.5 514.5q23.5 -72.5 23.5 -173t-23 -173.5t-89 -124q-31 -25 -83 -37.5t-112 -12.5t-234 4l-7 7v673l7 7q115 4 247 4q47 0 99 -13t83 -38q65 -51 88.5 -123.5zM254 114l78 -1q137 0 137 228t-137 228l-102 1v-457q1 1 24 1zM197 915l117 -74l120 86q17 -6 37 -24
t25 -37l-119 -121q-31 -8 -62.5 -8t-63.5 7l-113 110q6 21 24 38t35 23z" />
    <glyph glyph-name="dcaron" unicode="&#x10f;" horiz-adv-x="655" 
d="M78.5 55q-45.5 70 -45.5 191.5t57.5 191.5t142.5 70q45 0 95 -23v244l7 7h58q44 0 62 -20t18 -70v-502q0 -54 28 -75q-4 -20 -17.5 -42.5t-28.5 -34.5q-70 3 -104 56q-58 -63 -142.5 -63t-130 70zM251 105q44 0 77 43v223q-43 26 -70 26q-72 0 -72 -155q0 -69 18 -103
t47 -34zM615 556q-13 -5 -37.5 -5t-45.5 11l11 232q16 4 32 4q61 0 93 -23z" />
    <glyph glyph-name="Eogonek" unicode="&#x118;" horiz-adv-x="573" 
d="M228 193l-1 -69v-1q44 2 73 2h236q0 -36 -3 -54q-9 -50 -50 -65q-83 -36 -83 -94q0 -37 42 -37q25 0 51 14q29 -25 32 -67q-47 -40 -108.5 -40t-94 27t-32.5 73q0 66 61 115h-186q-41 0 -64.5 24t-23.5 66v589l7 7h427q5 -23 5 -58t-12 -70h-277l1 -71v-79q26 1 67 1h157
q9 -24 9 -61.5t-9 -63.5h-224v-88z" />
    <glyph glyph-name="eogonek" unicode="&#x119;" horiz-adv-x="497" 
d="M448 201h-265q3 -48 24 -74.5t74 -26.5t126 31q31 -30 41 -89q-27 -20 -61 -32q-65 -48 -65 -98q0 -18 12 -27.5t33 -9.5t49 14q30 -26 31 -67q-45 -40 -107 -40t-94.5 27.5t-32.5 77t54 98.5h-15q-62 0 -107 21.5t-69 59.5q-44 73 -44 187t55 187t159 73t159.5 -59.5
t55.5 -152.5q0 -52 -13 -100zM306 381.5q-17 25.5 -52.5 25.5t-52 -25t-19.5 -78h141v12q0 40 -17 65.5z" />
    <glyph glyph-name="Ecaron" unicode="&#x11a;" horiz-adv-x="572" 
d="M228 193l-1 -69v-1q44 2 73 2h236q0 -36 -3 -54q-14 -74 -98 -74h-270q-41 0 -64.5 24t-23.5 66v589l7 7h427q5 -23 5 -58t-12 -70h-277l1 -71v-79q26 1 67 1h157q9 -24 9 -61.5t-9 -63.5h-224v-88zM177 915l117 -74l120 86q17 -6 37 -24t25 -37l-119 -121
q-31 -8 -62.5 -8t-63.5 7l-113 110q6 21 24 38t35 23z" />
    <glyph glyph-name="ecaron" unicode="&#x11b;" horiz-adv-x="497" 
d="M448 201h-265q3 -48 24 -74.5t74 -26.5t126 31q31 -30 41 -89q-81 -57 -196 -57q-62 0 -107 21.5t-69 59.5q-44 73 -44 187t55 187t159 73t159.5 -59.5t55.5 -152.5q0 -52 -13 -100zM306 381.5q-17 25.5 -52.5 25.5t-52 -25t-19.5 -78h141v12q0 40 -17 65.5zM159 748
l92 -87l99 95q44 -15 66 -57l-106 -137q-26 -9 -43 -9t-35 0.5t-45 8.5l-93 125q10 21 29.5 38t35.5 23z" />
    <glyph glyph-name="Hbar" unicode="&#x126;" horiz-adv-x="693" 
d="M234 287l1 -74v-213q-30 -6 -77 -6t-76 6v489h-65q-8 25 -8 54.5t8 56.5h65v83q29 6 76 6t77 -6v-83h223v83q30 6 76.5 6t76.5 -6v-83h66q7 -28 7 -56t-7 -55h-66v-489q-31 -6 -76.5 -6t-76.5 6v213l1 74l-51 -1h-123zM234 411l51 1h123l51 -1l-1 76v2h-223v-2z" />
    <glyph glyph-name="hbar" unicode="&#x127;" horiz-adv-x="546" 
d="M487 331v-208q0 -64 23 -99q-39 -32 -87.5 -32t-66.5 23t-18 70v218q0 37 -10 53.5t-36 16.5q-42 0 -81 -38v-335q-31 -6 -71 -6t-75 6v560l-74 -1q-6 25 -6 46t6 48l74 -1v77l7 7h58q43 0 61.5 -19.5t19.5 -65.5l146 2q6 -22 6 -48t-6 -46l-146 2v-111q68 57 136 57
t104 -48t36 -128z" />
    <glyph glyph-name="Itilde" unicode="&#x128;" horiz-adv-x="314" 
d="M80 0v683q30 6 76.5 6t76.5 -6v-683q-30 -6 -76.5 -6t-76.5 6zM159 759l-48 23q-16 9 -34 9t-34 -24l-9 -12q-22 0 -44.5 12.5t-30.5 31.5l9 20q41 85 121 85q35 0 66 -17l48 -23q16 -9 33.5 -9t34.5 24l9 13q22 0 44 -13t31 -32l-9 -19q-19 -40 -50.5 -63t-66 -23
t-70.5 17z" />
    <glyph glyph-name="itilde" unicode="&#x129;" horiz-adv-x="287" 
d="M227 387v-387q-30 -6 -73 -6t-76 6v336q0 57 -47 57h-14q-6 25 -6 52t6 52q50 5 85 5h20q49 0 77 -31t28 -84zM133 572l-45 23q-16 9 -31.5 9t-33.5 -24l-9 -13q-21 0 -42 13t-28 32l8 19q17 39 47 62.5t64 23.5t66 -17l45 -23q16 -9 32 -9t33 24l9 12q21 0 41.5 -12.5
t28.5 -31.5l-8 -20q-17 -39 -47.5 -62.5t-63 -23.5t-66.5 18z" />
    <glyph glyph-name="dotlessi" unicode="&#x131;" horiz-adv-x="294" 
d="M233 387v-387q-30 -6 -73 -6t-76 6v336q0 57 -47 57h-14q-6 25 -6 52t6 52q50 5 85 5h20q49 0 77 -31t28 -84z" />
    <glyph glyph-name="IJ" unicode="&#x132;" horiz-adv-x="775" 
d="M80 0v683q30 6 76.5 6t76.5 -6v-683q-30 -6 -76.5 -6t-76.5 6zM370 147q48 -31 96.5 -31t68 31t19.5 98v438q30 6 76.5 6t76.5 -6v-423q0 -123 -44 -193q-49 -77 -184 -77q-93 0 -162 44q10 66 53 113z" />
    <glyph glyph-name="ij" unicode="&#x133;" horiz-adv-x="587" 
d="M233 387v-387q-30 -6 -73 -6t-76 6v336q0 57 -47 57h-14q-6 25 -6 52t6 52q50 5 85 5h20q49 0 77 -31t28 -84zM54 641q0 29 11 56q28 15 73.5 15t70.5 -15q11 -27 11 -56t-11 -56q-25 -15 -73 -15t-71 15q-11 27 -11 56zM526 387v-360q0 -116 -36.5 -170.5t-148.5 -76.5
q-16 13 -28 39t-13 52q45 19 62 44t17 78v343q0 57 -47 57h-23q-6 26 -6 52.5t6 51.5q57 5 93 5h20q49 0 76.5 -31t27.5 -84zM344 641q0 29 11 56q28 15 73.5 15t70.5 -15q11 -27 11 -56t-11 -56q-25 -15 -73 -15t-71 15q-11 27 -11 56z" />
    <glyph glyph-name="Jcircumflex" unicode="&#x134;" horiz-adv-x="468" 
d="M63 147q48 -31 96.5 -31t68 31t19.5 98v438q30 6 76.5 6t76.5 -6v-423q0 -123 -44 -193q-49 -77 -184 -77q-93 0 -162 44q10 66 53 113zM439 735l-117 75l-119 -86q-17 6 -36.5 24.5t-24.5 37.5l118 120q31 7 62 7t63 -6l113 -110q-6 -21 -24 -38t-35 -24z" />
    <glyph glyph-name="jcircumflex" unicode="&#x135;" horiz-adv-x="291" 
d="M232 387v-360q0 -116 -36.5 -170.5t-148.5 -76.5q-16 13 -28 39t-13 52q45 19 62 44t17 78v343q0 57 -47 57h-23q-6 25 -6 52t6 52q57 5 93 5h20q49 0 76.5 -31t27.5 -84zM228 551l-92 87l-97 -94q-43 17 -66 57l105 136q24 8 41 8q53 0 81 -8l93 -125q-8 -21 -27.5 -38
t-37.5 -23z" />
    <glyph glyph-name="Kcommaaccent" unicode="&#x136;" horiz-adv-x="617" 
d="M609 38q-31 -46 -101 -46q-40 0 -59.5 20t-33.5 67l-40 121q-16 49 -38 69.5t-59 20.5q-11 0 -47 -2v-288q-30 -6 -77 -6t-76 6v683q29 6 76 6t77 -6v-267l29 1q18 0 26 6.5t19 26.5l99 185q15 29 31.5 41t58 12t81.5 -4l8 -11l-125 -233q-23 -44 -54 -70
q46 -10 70.5 -38t41.5 -76l42 -127q1 -2 5 -14t5.5 -15t5 -12.5t6.5 -13.5t7.5 -11.5t10.5 -12.5zM267 -75q33 24 83 24q25 0 47 -8q12 -24 12 -60q0 -59 -40 -103.5t-109 -65.5q-38 13 -46 61q66 38 66 99q0 27 -13 53z" />
    <glyph glyph-name="kcommaaccent" unicode="&#x137;" horiz-adv-x="520" 
d="M241 202l-33 -1v-201q-31 -6 -72 -6t-74 6v729l7 7h58q44 0 62.5 -20.5t18.5 -69.5v-322h18q18 0 28 18l57 105q27 55 84 55q29 0 83 -2l6 -8l-81 -152q-19 -35 -50 -56q60 -22 85 -87l25 -74q16 -43 25.5 -59t22.5 -25q-40 -47 -100 -47q-32 0 -48.5 15t-29.5 53l-30 88
q-12 32 -25.5 43t-36.5 11zM213 -75q33 24 83 24q25 0 47 -8q12 -24 12 -60q0 -59 -40 -103.5t-109 -65.5q-38 13 -46 61q66 38 66 99q0 27 -13 53z" />
    <glyph glyph-name="kgreenlandic" unicode="&#x138;" horiz-adv-x="520" 
d="M241 202l-33 -1v-201q-31 -6 -72 -6t-74 6v498l7 7h58q44 0 62.5 -20.5t18.5 -69.5v-91h18q18 0 28 18l57 105q27 55 84 55q29 0 83 -2l6 -8l-81 -152q-19 -35 -50 -56q60 -22 85 -87l25 -74q16 -43 25.5 -59t22.5 -25q-40 -47 -100 -47q-32 0 -48.5 15t-29.5 53l-30 88
q-12 32 -25.5 43t-36.5 11z" />
    <glyph glyph-name="Ldot" unicode="&#x13f;" horiz-adv-x="521" 
d="M323 129h177q0 -33 -4 -57q-12 -75 -100 -75h-230q-41 0 -65 24t-24 66v596l7 6h56q90 0 90 -96v-467q50 3 93 3zM347 304q-11 22 -11 56.5t11 56.5q26 18 65 18t65 -18q9 -21 9 -56.5t-9 -56.5q-23 -17 -65 -17t-65 17z" />
    <glyph glyph-name="ldot" unicode="&#x140;" horiz-adv-x="395" 
d="M249 109h29q12 -32 12 -61.5t-3 -42.5q-60 -10 -115 -10t-83 32t-28 102v600l7 7h58q44 0 62.5 -20.5t18.5 -69.5v-490q0 -47 42 -47zM267 305q-11 22 -11 56.5t11 56.5q26 18 65 18t65 -18q9 -21 9 -56.5t-9 -56.5q-23 -17 -65 -17t-65 17z" />
    <glyph glyph-name="Lslash" unicode="&#x141;" horiz-adv-x="531" 
d="M240 593v-159l157 56l11 -6q8 -25 8 -53.5t-5 -58.5l-171 -59v-187q50 3 93 3h177q0 -33 -4 -57q-12 -75 -100 -75h-230q-41 0 -65 24t-24 66v179l-70 -25l-10 6q-9 25 -9 53.5t6 58.5l83 29v295l7 6h56q90 0 90 -96z" />
    <glyph glyph-name="lslash" unicode="&#x142;" horiz-adv-x="360" 
d="M284 109h29q12 -36 12 -64t-4 -40q-58 -10 -113 -10t-83 32t-28 102v140l-68 -33l-11 5q-8 24 -8 51t6 56l81 40v341l7 7h56q44 0 62.5 -20.5t18.5 -69.5v-187l75 38l11 -6q8 -23 8 -50.5t-5 -56.5l-89 -44v-184q0 -47 43 -47z" />
    <glyph glyph-name="Nacute" unicode="&#x143;" horiz-adv-x="694" 
d="M609 689l7 -6v-680q-38 -9 -89.5 -9t-91.5 6l-166 366q-42 100 -57 141l-4 -1q12 -142 12 -291v-215q-30 -6 -71.5 -6t-70.5 6v680q36 9 87.5 9t91.5 -6l162 -365l63 -151l4 1q-12 138 -12 289v140q0 50 20 71t65 21h50zM229 799l221 135q20 -15 38 -48.5t21 -64.5
l-238 -94q-15 9 -27.5 30.5t-14.5 41.5z" />
    <glyph glyph-name="nacute" unicode="&#x144;" horiz-adv-x="547" 
d="M487 331v-208q0 -64 24 -99q-39 -32 -87.5 -32t-67 23t-18.5 70v218q0 37 -10 54t-35 17q-43 0 -82 -39v-335q-31 -6 -73.5 -6t-75.5 6v498l7 7h56q62 0 79 -60q73 62 142 62t105 -48t36 -128zM189 598l154 167q28 -9 55.5 -34t35.5 -53l-183 -138q-19 6 -36.5 22
t-25.5 36z" />
    <glyph glyph-name="Ncaron" unicode="&#x147;" horiz-adv-x="694" 
d="M609 689l7 -6v-680q-38 -9 -89.5 -9t-91.5 6l-166 366q-42 100 -57 141l-4 -1q12 -142 12 -291v-215q-30 -6 -71.5 -6t-70.5 6v680q36 9 87.5 9t91.5 -6l162 -365l63 -151l4 1q-12 138 -12 289v140q0 50 20 71t65 21h50zM228 915l117 -74l120 86q17 -6 37 -24t25 -37
l-119 -121q-31 -8 -62.5 -8t-63.5 7l-113 110q6 21 24 38t35 23z" />
    <glyph glyph-name="ncaron" unicode="&#x148;" horiz-adv-x="547" 
d="M487 331v-208q0 -64 24 -99q-39 -32 -87.5 -32t-67 23t-18.5 70v218q0 37 -10 54t-35 17q-43 0 -82 -39v-335q-31 -6 -73.5 -6t-75.5 6v498l7 7h56q62 0 79 -60q73 62 142 62t105 -48t36 -128zM184 748l92 -87l99 95q44 -15 66 -57l-106 -137q-26 -9 -43 -9t-35 0.5
t-45 8.5l-93 125q10 21 29.5 38t35.5 23z" />
    <glyph glyph-name="OE" unicode="&#x152;" horiz-adv-x="914" 
d="M579 194l-1 -69v-1q44 2 73 2h236q0 -36 -3 -54q-12 -74 -97 -74h-312q-95 -13 -140 -13q-112 0 -189 63q-108 91 -108 293.5t108 293.5q77 63 189 63q48 0 142 -15h385q6 -28 6 -59.5t-13 -68.5h-277l1 -71v-79q26 1 67 1h158q9 -28 9 -61.5t-9 -63.5h-225v-87zM334 103
q44 0 97 15v447q-53 15 -96 15q-140 0 -140 -238.5t139 -238.5z" />
    <glyph glyph-name="oe" unicode="&#x153;" horiz-adv-x="804" 
d="M760 201h-263q3 -48 23.5 -74.5t72.5 -26.5t125 31q31 -30 41 -88q-78 -58 -187.5 -58t-159.5 60q-55 -60 -152 -60t-156 59q-72 69 -72 204.5t72 206.5q59 58 157 58t154 -64q51 64 149 64t153 -59.5t55 -152.5q0 -51 -12 -100zM185 249q0 -73 15.5 -112.5t60.5 -39.5
t60.5 39.5t15.5 112.5t-15.5 113t-60.5 40t-60.5 -40t-15.5 -113zM566 407q-34 0 -50.5 -25t-19.5 -78h138v11q0 92 -68 92z" />
    <glyph glyph-name="Racute" unicode="&#x154;" horiz-adv-x="613" 
d="M562 473q0 -67 -36.5 -116t-85.5 -67q51 -18 76 -91l32 -89q17 -48 49 -73q-15 -20 -43 -33t-63 -13t-54 20t-36 69l-38 109q-10 31 -29.5 48t-57.5 17h-47v-254q-30 -6 -76 -6t-75 6v678l7 7q168 4 236 4q109 0 175 -54.5t66 -161.5zM229 574v-203q66 2 80 2
q97 0 97 100t-97 100q-50 0 -80 1zM182 799l221 135q20 -15 38 -48.5t21 -64.5l-238 -94q-15 9 -27.5 30.5t-14.5 41.5z" />
    <glyph glyph-name="racute" unicode="&#x155;" horiz-adv-x="393" 
d="M33 429q4 20 18 43t28 34q89 -9 122 -90q38 89 126 89q33 0 65 -8q0 -29 -10 -69.5t-27 -69.5q-21 7 -50 9q-53 0 -86 -54v-313q-30 -6 -73 -6t-76 6v326q0 75 -37 103zM117 598l154 167q28 -9 55.5 -34t35.5 -53l-183 -138q-19 6 -36.5 22t-25.5 36z" />
    <glyph glyph-name="Rcommaaccent" unicode="&#x156;" horiz-adv-x="613" 
d="M562 473q0 -67 -36.5 -116t-85.5 -67q51 -18 76 -91l32 -89q17 -48 49 -73q-15 -20 -43 -33t-63 -13t-54 20t-36 69l-38 109q-10 31 -29.5 48t-57.5 17h-47v-254q-30 -6 -76 -6t-75 6v678l7 7q168 4 236 4q109 0 175 -54.5t66 -161.5zM229 574v-203q66 2 80 2
q97 0 97 100t-97 100q-50 0 -80 1zM263 -75q33 24 83 24q25 0 47 -8q12 -24 12 -60q0 -59 -40 -103.5t-109 -65.5q-38 13 -46 61q66 38 66 99q0 27 -13 53z" />
    <glyph glyph-name="rcommaaccent" unicode="&#x157;" horiz-adv-x="393" 
d="M33 429q4 20 18 43t28 34q89 -9 122 -90q38 89 126 89q33 0 65 -8q0 -29 -10 -69.5t-27 -69.5q-21 7 -50 9q-53 0 -86 -54v-313q-30 -6 -73 -6t-76 6v326q0 75 -37 103zM85 -75q33 24 83 24q25 0 47 -8q12 -24 12 -60q0 -59 -40 -103.5t-109 -65.5q-38 13 -46 61
q66 38 66 99q0 27 -13 53z" />
    <glyph glyph-name="Rcaron" unicode="&#x158;" horiz-adv-x="613" 
d="M562 473q0 -67 -36.5 -116t-85.5 -67q51 -18 76 -91l32 -89q17 -48 49 -73q-15 -20 -43 -33t-63 -13t-54 20t-36 69l-38 109q-10 31 -29.5 48t-57.5 17h-47v-254q-30 -6 -76 -6t-75 6v678l7 7q168 4 236 4q109 0 175 -54.5t66 -161.5zM229 574v-203q66 2 80 2
q97 0 97 100t-97 100q-50 0 -80 1zM181 915l117 -74l120 86q17 -6 37 -24t25 -37l-119 -121q-31 -8 -62.5 -8t-63.5 7l-113 110q6 21 24 38t35 23z" />
    <glyph glyph-name="rcaron" unicode="&#x159;" horiz-adv-x="393" 
d="M33 429q4 20 18 43t28 34q89 -9 122 -90q38 89 126 89q33 0 65 -8q0 -29 -10 -69.5t-27 -69.5q-21 7 -50 9q-53 0 -86 -54v-313q-30 -6 -73 -6t-76 6v326q0 75 -37 103zM112 748l92 -87l99 95q44 -15 66 -57l-106 -137q-26 -9 -43 -9t-35 0.5t-45 8.5l-93 125
q10 21 29.5 38t35.5 23z" />
    <glyph glyph-name="Sacute" unicode="&#x15a;" horiz-adv-x="557" 
d="M17 60q3 32 20 63.5t40 50.5q109 -66 202 -66q43 0 65.5 20.5t22.5 49.5q0 50 -67 80l-118 50q-142 62 -142 183q0 91 69 149t181.5 58t222.5 -57q-5 -69 -52 -115q-102 49 -180 49q-41 0 -63 -19.5t-22 -44.5q0 -40 62 -67l120 -50q72 -31 111.5 -81.5t39.5 -114.5
q0 -95 -67.5 -154t-193.5 -59q-62 0 -129.5 20t-121.5 55zM164 799l221 135q20 -15 38 -48.5t21 -64.5l-238 -94q-15 9 -27.5 30.5t-14.5 41.5z" />
    <glyph glyph-name="sacute" unicode="&#x15b;" horiz-adv-x="442" 
d="M21 35q1 24 13.5 54t28.5 46q78 -41 139 -41q30 0 46.5 10.5t16.5 27.5q0 32 -48 49l-55 20q-126 46 -126 149q0 75 52 119t139 44q43 0 95 -12t87 -29q1 -27 -11.5 -59t-30.5 -45q-82 37 -138 37q-22 0 -34 -10t-12 -26q0 -25 42 -41l61 -22q133 -49 133 -159
q0 -74 -55 -118t-155 -44t-188 50zM131 598l154 167q28 -9 55.5 -34t35.5 -53l-183 -138q-19 6 -36.5 22t-25.5 36z" />
    <glyph glyph-name="Scaron" unicode="&#x160;" horiz-adv-x="557" 
d="M17 60q3 32 20 63.5t40 50.5q109 -66 202 -66q43 0 65.5 20.5t22.5 49.5q0 50 -67 80l-118 50q-142 62 -142 183q0 91 69 149t181.5 58t222.5 -57q-5 -69 -52 -115q-102 49 -180 49q-41 0 -63 -19.5t-22 -44.5q0 -40 62 -67l120 -50q72 -31 111.5 -81.5t39.5 -114.5
q0 -95 -67.5 -154t-193.5 -59q-62 0 -129.5 20t-121.5 55zM163 915l117 -74l120 86q17 -6 37 -24t25 -37l-119 -121q-31 -8 -62.5 -8t-63.5 7l-113 110q6 21 24 38t35 23z" />
    <glyph glyph-name="scaron" unicode="&#x161;" horiz-adv-x="442" 
d="M21 35q1 24 13.5 54t28.5 46q78 -41 139 -41q30 0 46.5 10.5t16.5 27.5q0 32 -48 49l-55 20q-126 46 -126 149q0 75 52 119t139 44q43 0 95 -12t87 -29q1 -27 -11.5 -59t-30.5 -45q-82 37 -138 37q-22 0 -34 -10t-12 -26q0 -25 42 -41l61 -22q133 -49 133 -159
q0 -74 -55 -118t-155 -44t-188 50zM126 748l92 -87l99 95q44 -15 66 -57l-106 -137q-26 -9 -43 -9t-35 0.5t-45 8.5l-93 125q10 21 29.5 38t35.5 23z" />
    <glyph glyph-name="Tcaron" unicode="&#x164;" horiz-adv-x="507" 
d="M330 557l1 -74v-483q-31 -6 -76.5 -6t-76.5 6v483l1 74h-1l-62 -1h-106q-5 29 -5 63.5t5 63.5h490q8 -26 8 -61t-19 -50.5t-61 -15.5h-35l-62 1h-1zM132 915l117 -74l120 86q17 -6 37 -24t25 -37l-119 -121q-31 -8 -62.5 -8t-63.5 7l-113 110q6 21 24 38t35 23z" />
    <glyph glyph-name="tcaron" unicode="&#x165;" horiz-adv-x="405" 
d="M348 499q6 -27 6 -53t-6 -53l-120 2v-239q0 -47 44 -47h58q12 -36 12 -64t-4 -40q-72 -10 -132 -10q-123 0 -123 134v265l-78 -1q-6 22 -6 53t6 53l78 -1v61q0 50 18 70t62 20h58l7 -7v-145zM369 556q-13 -5 -37.5 -5t-45.5 11l11 232q16 4 32 4q61 0 93 -23z" />
    <glyph glyph-name="Uring" unicode="&#x16e;" horiz-adv-x="673" 
d="M604 683v-432q0 -127 -70 -196.5t-198 -69.5t-198 69.5t-70 196.5v432l7 6h56q90 0 90 -96v-344q0 -72 27.5 -107t88 -35t87.5 35t27 107v434q30 6 77 6t76 -6zM196 787q0 54 38 90t100 36t100 -36t38 -90t-38 -90t-100 -36t-100 36t-38 90zM285 787q0 -22 13.5 -36.5
t35.5 -14.5t35.5 14.5t13.5 36.5t-13.5 36.5t-35.5 14.5t-35.5 -14.5t-13.5 -36.5z" />
    <glyph glyph-name="uring" unicode="&#x16f;" horiz-adv-x="549" 
d="M60 167v209q0 63 -24 98q37 32 86.5 32t68 -23t18.5 -69v-219q0 -37 10 -53.5t35 -16.5q43 0 81 37v336q31 6 74 6t76 -6v-356q0 -55 28 -75q-4 -20 -18 -41.5t-29 -33.5q-80 3 -114 70q-76 -71 -148 -71t-108 48.5t-36 127.5zM166 578.5q-38 36.5 -38 90t38 90t100 36.5
t100 -36.5t38 -90t-38 -90t-100 -36.5t-100 36.5zM217 669q0 -22 13.5 -36.5t35.5 -14.5t35.5 14.5t13.5 36.5t-13.5 36.5t-35.5 14.5t-35.5 -14.5t-13.5 -36.5z" />
    <glyph glyph-name="Ydieresis" unicode="&#x178;" horiz-adv-x="526" 
d="M318 505l71 178q25 6 65.5 6t71.5 -11l6 -9l-193 -458v-211q-30 -6 -77 -6t-76 6v215l-193 450q47 26 86 26t57 -14t31 -47l52 -130q24 -62 45 -141h6q16 65 48 146zM321 850q28 16 61 16t58 -16q12 -16 12 -49.5t-12 -48.5q-24 -17 -58 -17t-61 17q-14 15 -14 48t14 50z
M149 866q34 0 62 -16q12 -14 12 -49.5t-12 -48.5q-27 -17 -62 -17t-57 17q-12 15 -12 48.5t12 49.5q23 16 57 16z" />
    <glyph glyph-name="Zacute" unicode="&#x179;" horiz-adv-x="577" 
d="M57 149l227 316q32 45 80 99l-3 3q-68 -9 -154 -9h-146q-6 22 -6 53t11 72h438q21 -75 21 -99t-17 -49l-227 -316q-32 -45 -78 -95l3 -3q86 6 146 6h63q65 0 113 23q10 -32 10 -70.5t-27 -59t-73 -20.5h-382q-17 76 -17 100t18 49zM167 799l221 135q20 -15 38 -48.5
t21 -64.5l-238 -94q-15 9 -27.5 30.5t-14.5 41.5z" />
    <glyph glyph-name="zacute" unicode="&#x17a;" horiz-adv-x="449" 
d="M47 129l125 167q20 26 80 94l-3 5q-70 -8 -125 -8h-81q-5 19 -5 49t8 62h347q19 -57 19 -82t-14 -45l-128 -171q-43 -57 -76 -91l3 -4q48 5 81 5h37q61 0 95 16q15 -38 15 -60q0 -66 -81 -66h-301q-17 51 -17 75.5t21 53.5zM134 598l154 167q28 -9 55.5 -34t35.5 -53
l-183 -138q-19 6 -36.5 22t-25.5 36z" />
    <glyph glyph-name="Zdotaccent" unicode="&#x17b;" horiz-adv-x="577" 
d="M57 149l227 316q32 45 80 99l-3 3q-68 -9 -154 -9h-146q-6 22 -6 53t11 72h438q21 -75 21 -99t-17 -49l-227 -316q-32 -45 -78 -95l3 -3q86 6 146 6h63q65 0 113 23q10 -32 10 -70.5t-27 -59t-73 -20.5h-382q-17 76 -17 100t18 49zM205 814q0 29 11 56q32 15 74 15
t70 -15q11 -27 11 -56t-11 -57q-28 -15 -73.5 -15t-70.5 15q-11 28 -11 57z" />
    <glyph glyph-name="zdotaccent" unicode="&#x17c;" horiz-adv-x="449" 
d="M47 129l125 167q20 26 80 94l-3 5q-70 -8 -125 -8h-81q-5 19 -5 49t8 62h347q19 -57 19 -82t-14 -45l-128 -171q-43 -57 -76 -91l3 -4q48 5 81 5h37q61 0 95 16q15 -38 15 -60q0 -66 -81 -66h-301q-17 51 -17 75.5t21 53.5zM142 641q0 29 11 56q28 15 73.5 15t70.5 -15
q11 -27 11 -56t-11 -56q-25 -15 -73 -15t-71 15q-11 27 -11 56z" />
    <glyph glyph-name="Zcaron" unicode="&#x17d;" horiz-adv-x="577" 
d="M57 149l227 316q32 45 80 99l-3 3q-68 -9 -154 -9h-146q-6 22 -6 53t11 72h438q21 -75 21 -99t-17 -49l-227 -316q-32 -45 -78 -95l3 -3q86 6 146 6h63q65 0 113 23q10 -32 10 -70.5t-27 -59t-73 -20.5h-382q-17 76 -17 100t18 49zM166 915l117 -74l120 86q17 -6 37 -24
t25 -37l-119 -121q-31 -8 -62.5 -8t-63.5 7l-113 110q6 21 24 38t35 23z" />
    <glyph glyph-name="zcaron" unicode="&#x17e;" horiz-adv-x="449" 
d="M47 129l125 167q20 26 80 94l-3 5q-70 -8 -125 -8h-81q-5 19 -5 49t8 62h347q19 -57 19 -82t-14 -45l-128 -171q-43 -57 -76 -91l3 -4q48 5 81 5h37q61 0 95 16q15 -38 15 -60q0 -66 -81 -66h-301q-17 51 -17 75.5t21 53.5zM129 748l92 -87l99 95q44 -15 66 -57
l-106 -137q-26 -9 -43 -9t-35 0.5t-45 8.5l-93 125q10 21 29.5 38t35.5 23z" />
    <glyph glyph-name="dotlessj" unicode="&#x237;" horiz-adv-x="301" 
d="M240 387v-360q0 -116 -36.5 -170.5t-148.5 -76.5q-16 13 -28 39t-13 52q45 19 62 44t17 78v343q0 57 -47 57h-23q-6 25 -6 52t6 52q57 5 93 5h20q49 0 76.5 -31t27.5 -84z" />
    <glyph glyph-name="circumflex" unicode="&#x2c6;" 
d="M295 551l-92 87l-97 -94q-43 17 -66 57l105 136q24 8 41 8q53 0 81 -8l93 -125q-8 -21 -27.5 -38t-37.5 -23z" />
    <glyph glyph-name="caron" unicode="&#x2c7;" 
d="M103 748l92 -87l99 95q44 -15 66 -57l-106 -137q-26 -9 -43 -9t-35 0.5t-45 8.5l-93 125q10 21 29.5 38t35.5 23z" />
    <glyph glyph-name="dotaccent" unicode="&#x2d9;" 
d="M116 641q0 29 11 56q28 15 73.5 15t70.5 -15q11 -27 11 -56t-11 -56q-25 -15 -73 -15t-71 15q-11 27 -11 56z" />
    <glyph glyph-name="ring" unicode="&#x2da;" 
d="M99 578.5q-38 36.5 -38 90t38 90t100 36.5t100 -36.5t38 -90t-38 -90t-100 -36.5t-100 36.5zM150 669q0 -22 13.5 -36.5t35.5 -14.5t35.5 14.5t13.5 36.5t-13.5 36.5t-35.5 14.5t-35.5 -14.5t-13.5 -36.5z" />
    <glyph glyph-name="tilde" unicode="&#x2dc;" 
d="M201 572l-45 23q-16 9 -31.5 9t-33.5 -24l-9 -13q-21 0 -42 13t-28 32l8 19q17 39 47 62.5t64 23.5t66 -17l45 -23q16 -9 32 -9t33 24l9 12q21 0 41.5 -12.5t28.5 -31.5l-8 -20q-17 -39 -47.5 -62.5t-63 -23.5t-66.5 18z" />
    <glyph glyph-name="mu" unicode="&#x3bc;" horiz-adv-x="552" 
d="M487 498v-355q0 -56 28 -76q-4 -20 -18 -41.5t-29 -33.5q-72 3 -107 59q-38 -60 -108 -60q-29 0 -54 14v-123q0 -50 -14.5 -75.5t-61 -25.5t-85.5 30q23 33 23 100v587q31 6 73 6t75 -6v-305q0 -77 61 -77q38 0 68 36v346q30 6 73 6t76 -6z" />
    <glyph glyph-name="germandbls.cap" unicode="&#x1e9e;" horiz-adv-x="653" 
d="M97 0v364l-86 -1q-6 25 -6 57t6 58l86 -1v23q0 97 64 148.5t173.5 51.5t176.5 -56.5t67 -151.5q0 -37 -17 -77q-32 -7 -49 -24.5t-17 -36t23 -40.5l38 -37q71 -69 71 -139t-55.5 -111.5t-135 -41.5t-140.5 29q1 25 12.5 55.5t28.5 47.5q40 -20 70 -20t46.5 12t16.5 35
t-31 52l-40 37q-63 58 -63 112q0 33 23.5 66t64.5 51q2 20 2 29q0 40 -24 67.5t-67 27.5q-87 0 -87 -102v-484q-33 -6 -75.5 -6t-75.5 6z" />
    <glyph glyph-name="endash" unicode="&#x2013;" horiz-adv-x="552" 
d="M490 209h-427q-7 23 -7 57t7 57h427q7 -23 7 -57t-7 -57z" />
    <glyph glyph-name="emdash" unicode="&#x2014;" horiz-adv-x="813" 
d="M739 209h-664q-7 23 -7 57t7 57h664q6 -24 6 -57t-6 -57z" />
    <glyph glyph-name="quoteleft" unicode="&#x2018;" horiz-adv-x="263" 
d="M52 506q-13 32 -13 77q0 72 42.5 128.5t123.5 79.5q35 -18 35 -58q0 -5 -1 -11q-30 -9 -56.5 -31.5t-27.5 -53.5q37 -6 46 -14q11 -22 11 -58.5t-11 -58.5q-32 -18 -76 -18t-73 18z" />
    <glyph glyph-name="quoteright" unicode="&#x2019;" horiz-adv-x="263" 
d="M211 773q13 -36 13 -77q0 -72 -42.5 -128t-124.5 -80q-34 18 -34 58q0 5 1 11q31 11 56.5 32.5t26.5 52.5q-34 6 -45 14q-11 22 -11 60t11 57q31 18 77 18t72 -18z" />
    <glyph glyph-name="quotesinglbase" unicode="&#x201a;" horiz-adv-x="263" 
d="M210 122q12 -33 12 -77q0 -72 -42.5 -128t-123.5 -80q-34 18 -34 60v9q31 10 57 32t27 53q-34 6 -45 14q-11 19 -11 58.5t11 58.5q31 18 74.5 18t74.5 -18z" />
    <glyph glyph-name="quotedblleft" unicode="&#x201c;" horiz-adv-x="492" 
d="M49 506q-13 32 -13 77q0 72 42.5 128.5t123.5 79.5q35 -18 35 -58q0 -5 -1 -11q-30 -9 -56.5 -31.5t-27.5 -53.5q37 -6 46 -14q11 -22 11 -58.5t-11 -58.5q-32 -18 -76 -18t-73 18zM279 506q-13 32 -13 77q0 72 42.5 128.5t123.5 79.5q35 -18 35 -58q0 -5 -1 -11
q-30 -9 -56.5 -31.5t-27.5 -53.5q37 -6 46 -14q11 -22 11 -58.5t-11 -58.5q-32 -18 -76 -18t-73 18z" />
    <glyph glyph-name="quotedblright" unicode="&#x201d;" horiz-adv-x="492" 
d="M215 773q13 -36 13 -77q0 -72 -42.5 -128t-124.5 -80q-34 18 -34 58q0 5 1 11q31 11 56.5 32.5t26.5 52.5q-34 6 -45 14q-11 22 -11 60t11 57q31 18 77 18t72 -18zM445 773q13 -36 13 -77q0 -72 -42.5 -128t-124.5 -80q-34 18 -34 58q0 5 1 11q31 11 56.5 32.5t26.5 52.5
q-34 6 -45 14q-11 22 -11 60t11 57q31 18 77 18t72 -18z" />
    <glyph glyph-name="quotedblbase" unicode="&#x201e;" horiz-adv-x="492" 
d="M210 122q12 -33 12 -77q0 -72 -42.5 -128t-123.5 -80q-34 18 -34 60v9q31 10 57 32t27 53q-34 6 -45 14q-11 19 -11 58.5t11 58.5q31 18 74.5 18t74.5 -18zM440 122q12 -33 12 -77q0 -72 -42.5 -128t-123.5 -80q-34 18 -34 60v9q31 10 57 32t27 53q-34 6 -45 14
q-11 19 -11 58.5t11 58.5q31 18 74.5 18t74.5 -18z" />
    <glyph glyph-name="bullet" unicode="&#x2022;" horiz-adv-x="460" 
d="M97 268q0 61 18 97q47 29 116.5 29t116.5 -29q17 -40 17 -97t-17 -97q-41 -27 -116.5 -27t-116.5 27q-18 36 -18 97z" />
    <glyph glyph-name="guilsinglleft" unicode="&#x2039;" horiz-adv-x="347" 
d="M311 410l-124 -152l128 -156q-7 -23 -32.5 -46t-49.5 -29l-202 185q-7 17 -7 43t7 43l200 188q24 -5 48.5 -28.5t31.5 -47.5z" />
    <glyph glyph-name="guilsinglright" unicode="&#x203a;" horiz-adv-x="347" 
d="M36 103l124 153l-128 155q7 23 32.5 46.5t49.5 28.5l202 -185q8 -17 8 -42.5t-8 -42.5l-200 -189q-25 6 -49 29.5t-31 46.5z" />
    <glyph glyph-name="fraction" unicode="&#x2044;" horiz-adv-x="278" 
d="M-122 0l378 683q30 7 52 7q70 0 91 -7l-377 -683q-30 -7 -52 -7q-70 0 -92 7z" />
    <glyph glyph-name="foursuperior" unicode="&#x2074;" horiz-adv-x="420" 
d="M363 391l-32 1v-70q-22 -6 -57.5 -6t-60.5 6v21l1 49l-54 -1h-106q-27 46 -27 71t15 52l114 257q8 1 23.5 1t45.5 -6.5t49 -20.5l-55 -120q-44 -99 -73 -135l2 -2q36 4 65 4v34q0 42 23 66t63 24h29l4 -5v-46l-1 -72h54q4 -17 4 -44.5t-10 -57.5h-16z" />
    <glyph glyph-name="Euro" unicode="&#x20ac;" horiz-adv-x="561" 
d="M491 487q-72 56 -147 56t-99 -93h168q5 -25 5 -47.5t-5 -45.5h-180v-67h180q5 -24 5 -47t-5 -46h-168q24 -92 98.5 -92t147.5 55q53 -30 62 -88q-102 -87 -226 -87q-189 0 -231 212h-82q-6 18 -6 46t6 47h72q-1 11 -1 33t1 34h-72q-6 18 -6 45.5t6 47.5h82
q42 213 231 213q122 0 226 -87q-4 -25 -21.5 -50.5t-40.5 -38.5z" />
    <glyph glyph-name="nbspace" horiz-adv-x="220" 
 />
    <glyph glyph-name="commaaccent" 
d="M139 -75q33 24 83 24q25 0 47 -8q12 -24 12 -60q0 -59 -40 -103.5t-109 -65.5q-38 13 -46 61q66 38 66 99q0 27 -13 53z" />
    <glyph glyph-name="grave.cap" 
d="M109 934l221 -135q-8 -52 -42 -72l-238 94q3 31 21 64.5t38 48.5z" />
    <glyph glyph-name="acute.cap" 
d="M78 799l221 135q20 -15 38 -48.5t21 -64.5l-238 -94q-15 9 -27.5 30.5t-14.5 41.5z" />
    <glyph glyph-name="circumflex.cap" 
d="M314 735l-117 75l-119 -86q-17 6 -36.5 24.5t-24.5 37.5l118 120q31 7 62 7t63 -6l113 -110q-6 -21 -24 -38t-35 -24z" />
    <glyph glyph-name="dieresis.cap" 
d="M254 850q28 16 61 16t58 -16q12 -16 12 -49.5t-12 -48.5q-24 -17 -58 -17t-61 17q-14 15 -14 48t14 50zM82 866q34 0 62 -16q12 -14 12 -49.5t-12 -48.5q-27 -17 -62 -17t-57 17q-12 15 -12 48.5t12 49.5q23 16 57 16z" />
    <glyph glyph-name="caron.cap" 
d="M77 915l117 -74l120 86q17 -6 37 -24t25 -37l-119 -121q-31 -8 -62.5 -8t-63.5 7l-113 110q6 21 24 38t35 23z" />
    <glyph glyph-name="ring.cap" 
d="M61 787q0 54 38 90t100 36t100 -36t38 -90t-38 -90t-100 -36t-100 36t-38 90zM150 787q0 -22 13.5 -36.5t35.5 -14.5t35.5 14.5t13.5 36.5t-13.5 36.5t-35.5 14.5t-35.5 -14.5t-13.5 -36.5z" />
    <glyph glyph-name="tilde.cap" 
d="M201 758l-48 23q-16 9 -34 9t-34 -24l-9 -12q-22 0 -44.5 12.5t-30.5 31.5l9 20q41 85 121 85q35 0 66 -17l48 -23q16 -9 33.5 -9t34.5 24l9 13q22 0 44 -13t31 -32l-9 -19q-19 -40 -50.5 -63t-66 -23t-70.5 17z" />
    <glyph glyph-name="dotaccent.cap" 
d="M116 814q0 29 11 56q32 15 74 15t70 -15q11 -27 11 -56t-11 -57q-28 -15 -73.5 -15t-70.5 15q-11 28 -11 57z" />
    <glyph glyph-name="caron.alt" horiz-adv-x="459" 
d="M275 559q-13 -5 -37.5 -5t-45.5 11l11 232q16 4 32 4q61 0 93 -23z" />
    <glyph glyph-name="commaaccent.cap" 
d="M139 -75q33 24 83 24q25 0 47 -8q12 -24 12 -60q0 -59 -40 -103.5t-109 -65.5q-38 13 -46 61q66 38 66 99q0 27 -13 53z" />
    <glyph glyph-name="a.smcp" horiz-adv-x="571" 
d="M211 100q-22 0 -33 1l-33 -101q-25 -7 -67 -7t-67 11l-5 8l195 538q38 6 86 6t88 -6l191 -543q-37 -16 -77 -16t-61.5 12.5t-33.5 51.5l-15 46q-11 -1 -34 -1h-134zM216 218l32 1h66q4 0 14 -0.5t14 -0.5l-13 42q-8 26 -45 174h-6q-2 -6 -20 -73t-27 -97z" />
    <glyph glyph-name="b.smcp" horiz-adv-x="562" 
d="M79 551q106 4 207 4q212 0 212 -146q0 -37 -20 -68.5t-54 -43.5q44 -13 73.5 -52t29.5 -85q0 -164 -229 -164q-100 0 -219 3l-6 5v541zM219 100l77 1q80 0 80 66q0 29 -21 49t-67 20h-69v-136zM219 453v-113h59q73 0 73 56t-72 56q-39 0 -60 1z" />
    <glyph glyph-name="c.smcp" horiz-adv-x="545" 
d="M381 305q0 69 -19.5 105.5t-70.5 36.5q-104 0 -104 -175q0 -162 116 -162q68 0 143 55q22 -12 43 -41t26 -54q-99 -85 -234 -85q-69 0 -119 25t-77 68q-52 83 -52 195q0 144 75.5 218t186 74t169 -54.5t58.5 -127.5q0 -82 -91 -82q-16 0 -50 4z" />
    <glyph glyph-name="d.smcp" horiz-adv-x="604" 
d="M548.5 413q21.5 -59 21.5 -139.5t-21 -139t-80 -98.5t-165 -40t-225 3l-6 6v540l6 6q158 4 211 4q117 0 177 -41.5t81.5 -100.5zM223 110l77 1q116 0 116 164t-116 164q-49 0 -77 1v-330z" />
    <glyph glyph-name="e.smcp" horiz-adv-x="526" 
d="M223 177l-1 -59v-2q44 4 67 4h199q0 -32 -2 -50q-14 -72 -91 -72h-234q-41 0 -64.5 23t-23.5 63v461l6 5h391q5 -21 5 -54.5t-12 -66.5h-241l1 -53v-41q24 1 61 1h132q8 -19 8 -57.5t-8 -59.5h-193v-42z" />
    <glyph glyph-name="f.smcp" horiz-adv-x="485" 
d="M462 550q7 -24 7 -55q0 -69 -75 -69h-169v-101h181q8 -23 8 -59t-8 -59h-181v-207q-31 -6 -76 -6t-76 6v546l6 4h383z" />
    <glyph glyph-name="g.smcp" horiz-adv-x="585" 
d="M298 317q47 2 142 2q53 0 75 -20t22 -61v-220q-38 -13 -105.5 -23t-128.5 -10q-139 0 -204.5 77.5t-65.5 216t80.5 212.5t200 74t214.5 -50q-2 -30 -19.5 -63t-38.5 -47q-75 39 -143.5 39t-104 -44t-35.5 -129q0 -173 143 -173q36 0 68 6v37q0 26 2 56h-42q-68 0 -68 60
q0 38 8 60z" />
    <glyph glyph-name="h.smcp" horiz-adv-x="630" 
d="M407 346l-1 59v145q29 7 75.5 7t75.5 -7v-550q-31 -6 -76 -6t-75 6v166l1 59l-44 -1h-95l-44 1l1 -59v-166q-31 -6 -76.5 -6t-75.5 6v550q29 7 75.5 7t76.5 -7v-145l-1 -59l44 1h95z" />
    <glyph glyph-name="i.smcp" horiz-adv-x="303" 
d="M76 0v550q29 6 75 6t76 -6v-550q-30 -6 -76 -6t-75 6z" />
    <glyph glyph-name="j.smcp" horiz-adv-x="426" 
d="M52 134q43 -29 85 -29q75 0 75 101v344q30 6 78.5 6t73.5 -6v-339q0 -113 -48.5 -169t-159.5 -56q-43 0 -87 12.5t-68 30.5q12 65 51 105z" />
    <glyph glyph-name="k.smcp" horiz-adv-x="572" 
d="M556 37q-16 -20 -43.5 -32.5t-59.5 -12t-50.5 16.5t-33.5 52l-44 107q-12 30 -26 42q-19 16 -74 12v-222q-31 -6 -76.5 -6t-75.5 6v550q30 6 75.5 6t76.5 -6v-207h11q23 0 28.5 7t13.5 20l79 137q15 27 31 38.5t55.5 11.5t83.5 -7l9 -9l-105 -176q-25 -43 -54 -65
q35 -10 55 -31.5t36 -58.5l37 -91q25 -61 51 -82z" />
    <glyph glyph-name="l.smcp" horiz-adv-x="480" 
d="M135 555q88 0 88 -94v-343q55 5 91 5h145q-2 -43 -4 -52q-13 -74 -97 -74h-199q-40 0 -63.5 23t-23.5 63v466l6 6h57z" />
    <glyph glyph-name="m.smcp" horiz-adv-x="756" 
d="M540 302l1 58q0 22 -1 43h-6l-79 -319q-37 -5 -79.5 -5t-75.5 5l-78 319h-7q0 -170 -4 -215l-14 -188q-30 -6 -71 -6t-73 8l56 548q40 8 98 8t91 -8l53 -222q9 -31 24 -123h6q11 74 24 123l52 222q40 8 95.5 8t94.5 -8l56 -548q-32 -8 -73 -8t-71 6l-16 189q-3 40 -3 113
z" />
    <glyph glyph-name="n.smcp" horiz-adv-x="638" 
d="M558 557l6 -7v-547q-36 -9 -91 -9t-83 6l-128 259q-5 10 -26.5 60.5t-28.5 63.5l-3 -1q8 -154 8 -219v-163q-29 -6 -69.5 -6t-69.5 6v547q43 9 95.5 9t76.5 -6l126 -258q6 -12 31.5 -70t28.5 -64l4 1q-13 211 -13 223v92q0 48 20.5 65.5t66.5 17.5h49z" />
    <glyph glyph-name="o.smcp" horiz-adv-x="604" 
d="M302 454q-115 0 -115 -178.5t115 -178.5t115 178.5t-115 178.5zM131 35q-98 74 -98 239.5t98 239.5q68 51 171.5 51t170.5 -50q99 -77 99 -241t-99 -239q-65 -50 -171 -50t-171 50z" />
    <glyph glyph-name="p.smcp" horiz-adv-x="531" 
d="M79 551l204 4q102 0 162.5 -47.5t60.5 -142.5t-61 -143.5t-162 -48.5h-58v-173q-31 -6 -76.5 -6t-75.5 6v545zM225 443v-159q19 1 46 1q81 0 81 78.5t-81 78.5q-23 0 -46 1z" />
    <glyph glyph-name="q.smcp" horiz-adv-x="606" 
d="M131 35q-98 74 -98 239.5t98 239.5q68 51 171.5 51t170.5 -50q99 -77 99 -241q0 -123 -63 -196q-23 -28 -53 -45q25 -20 53.5 -30.5t40 -11.5t36.5 -2q-2 -51 -30.5 -79t-77.5 -28t-94 43l-68 60h-7q-113 0 -178 50zM302 454q-115 0 -115 -178.5t115 -178.5t115 178.5
t-115 178.5z" />
    <glyph glyph-name="r.smcp" horiz-adv-x="567" 
d="M517 384q0 -54 -35 -93.5t-79 -49.5q47 -16 75 -74l27 -63q20 -45 45 -67q-15 -19 -42.5 -32.5t-59 -13.5t-51.5 15.5t-35 51.5l-45 102q-11 23 -25.5 30t-43.5 7h-25v-197q-30 -6 -75 -6t-75 6v545l6 6q158 4 217 4q99 0 160 -40.5t61 -130.5zM289 446l-66 1v-136l59 1
q81 0 81 68q0 29 -18 47.5t-56 18.5z" />
    <glyph glyph-name="s.smcp" horiz-adv-x="507" 
d="M19 42q0 29 16 62.5t38 48.5q94 -50 178 -50q31 1 50 13.5t19 34.5q0 32 -50 50l-91 33q-144 52 -144 157q0 77 59.5 125.5t164.5 48.5t207 -43q0 -33 -13.5 -64.5t-36.5 -49.5q-90 39 -164 39q-28 -1 -43.5 -12.5t-15.5 -27.5t11.5 -24t38.5 -18l90 -32
q149 -55 149 -174q0 -81 -63.5 -127t-164.5 -47q-142 0 -235 57z" />
    <glyph glyph-name="t.smcp" horiz-adv-x="458" 
d="M308 429l1 -61v-368q-27 -6 -73 -6t-78 6v368l1 61h-1l-56 -1h-94q-6 28 -6 62.5t6 59.5h447q7 -24 7 -55q0 -67 -75 -67h-25l-53 1h-1z" />
    <glyph glyph-name="u.smcp" horiz-adv-x="612" 
d="M548 550v-345q0 -104 -62.5 -162t-179.5 -58t-179.5 58t-62.5 162v345l5 6h55q91 0 91 -96v-254q0 -102 91 -102q49 0 70 26t21 76v344q30 6 76 6t75 -6z" />
    <glyph glyph-name="v.smcp" horiz-adv-x="542" 
d="M283 114l114 436q26 6 62 6t71 -10l7 -7l-166 -539q-35 -6 -98 -6t-87 13.5t-35 52.5l-145 480q40 17 80 17t59.5 -16t30.5 -55l58 -189q21 -75 39 -174q2 -9 10 -9z" />
    <glyph glyph-name="w.smcp" horiz-adv-x="820" 
d="M120 58l-103 485q34 14 78 14t60.5 -18t25.5 -66l36 -204q12 -59 17 -101.5t6.5 -44.5t6.5 -2l73 422q42 6 92 6t94 -6l67 -410q1 -9 3 -10.5t6 -1.5q8 74 22 149l52 280q23 5 66.5 5t71.5 -11l7 -8l-117 -536q-39 -8 -125 -8q-38 0 -61 13.5t-30 52.5l-28 162
q-12 74 -26 189h-6q-19 -130 -29 -189l-39 -220q-43 -7 -126 -7q-40 0 -62.5 13t-31.5 52z" />
    <glyph glyph-name="x.smcp" horiz-adv-x="551" 
d="M378 550v1q25 5 66 5t77 -10l1 -8l-161 -243l185 -271q-45 -32 -105 -32q-30 0 -51.5 14t-42.5 46l-83 122l-111 -174q-27 -6 -69 -6t-74 11l-5 7l181 276l-161 239q48 31 104 31q30 0 50 -13.5t43 -45.5l62 -92z" />
    <glyph glyph-name="y.smcp" horiz-adv-x="471" 
d="M278 413l54 137q25 6 57 6t74 -9l6 -8l-160 -377v-162q-29 -6 -74 -6t-74 6v166l-159 371q45 21 86 21q60 0 81 -56l40 -103q21 -55 28 -106h6q34 118 35 120z" />
    <glyph glyph-name="z.smcp" horiz-adv-x="521" 
d="M52 139l191 223q36 40 77 74l-2 3q-70 -8 -143 -8h-119q-5 23 -5 50t10 69h398q21 -75 21 -97.5t-17 -41.5l-191 -222q-34 -41 -71 -71l2 -4q2 0 136 7l35 1q75 4 105 19q9 -30 9 -64.5t-28.5 -56t-71.5 -21.5h-338q-16 75 -16 95t18 45z" />
    <glyph glyph-name="ampersand.smcp" horiz-adv-x="591" 
d="M307 347h165q58 0 98 19q18 -24 18 -65q0 -71 -90 -71h-11q1 -17 1 -57v-75q0 -34 8 -98q-24 -10 -68 -10t-68 6l-9 38q-55 -48 -139 -48t-129.5 45.5t-45.5 106.5t33 101.5t82 53.5q-39 13 -62.5 46t-23.5 76q0 68 55 109t149.5 41t185.5 -28q1 -7 1 -13q0 -54 -38 -96
q-82 24 -122.5 24t-57.5 -14t-17 -36q0 -55 85 -55zM345 125v105h-51q-104 0 -104 -71q0 -32 19.5 -47t48.5 -15q50 0 87 28z" />
    <glyph glyph-name="zero.smcp" horiz-adv-x="482" 
d="M44 137.5q-11 57.5 -11 124t2.5 100.5t16.5 77.5t41 69.5q56 56 148 56t148 -56q38 -38 49 -95.5t11 -123.5t-2.5 -100t-16.5 -77.5t-41 -70.5q-57 -57 -148 -57t-148 57q-38 38 -49 95.5zM241 457q-32 0 -47 -26.5t-15 -155t15 -155t47 -26.5t47 26.5t15 155t-15 155
t-47 26.5z" />
    <glyph glyph-name="one.smcp" horiz-adv-x="482" 
d="M197 116l-1 63v104q0 1 8 92q-44 -47 -114 -77q-22 10 -38.5 34.5t-20.5 51.5q66 38 105 76.5t66 89.5q30 5 69 5t69 -5v-371l-1 -63l64 2h40q6 -26 6 -59t-6 -59h-372q-7 32 -7 60t7 58h66z" />
    <glyph glyph-name="two.smcp" horiz-adv-x="482" 
d="M441 122q0 -35 -4 -55q-12 -69 -89 -69h-261q-17 16 -33.5 41.5t-16.5 44.5q0 63 102 152l96 85q39 34 39 69q0 22 -14 37.5t-39 15.5t-44.5 -19.5t-29.5 -49.5q-30 0 -59.5 14t-43.5 34q17 63 67.5 103t128.5 40t130 -49.5t52 -131t-99 -162.5l-70 -58q-51 -41 -59 -53
q82 11 133 11h114z" />
    <glyph glyph-name="three.smcp" horiz-adv-x="482" 
d="M392 408l-66 -60q-13 -11 -31 -22q66 -8 107.5 -50.5t41.5 -106.5q0 -85 -63.5 -134.5t-154.5 -49.5q-114 0 -190 62q5 26 21.5 53.5t38.5 42.5q57 -41 114 -41q38 0 60.5 19t22.5 50.5t-19.5 50t-46.5 18.5t-52 -9q-19 8 -36.5 33.5t-23.5 47.5h1l77 71q15 13 64 51
l-3 4q-32 -7 -95 -7h-98q-10 28 -10 60t13 59h326q28 -52 28 -85t-26 -57z" />
    <glyph glyph-name="four.smcp" horiz-adv-x="482" 
d="M387 91l1 -65v-26q-31 -6 -68.5 -6t-67.5 6v26l1 65l-71 -2h-128q-31 52 -31 82.5t16 62.5l153 323q12 2 30 2t50 -8t52 -27l-69 -145q-42 -87 -93 -176l3 -4l87 7v44q0 47 27 78.5t70 31.5h34l6 -7v-59l-2 -86v-1l42 1h27q4 -21 4 -52t-11 -65h-62z" />
    <glyph glyph-name="five.smcp" horiz-adv-x="482" 
d="M36 45q4 22 21.5 52t37.5 44q53 -39 112 -39q38 0 61.5 21t23.5 57t-22.5 57t-59.5 21t-74 -30q-19 4 -41 20t-33 34l16 262l8 6h329q10 -28 10 -60q0 -59 -63 -59h-152v-14l-2 -38l-2 -22q25 5 48 5q81 0 133.5 -49t52.5 -135t-64.5 -139.5t-164.5 -53.5t-175 60z" />
    <glyph glyph-name="six.smcp" horiz-adv-x="482" 
d="M392 38q-57 -53 -145.5 -53t-141.5 50q-71 70 -71 246q0 134 64.5 209t181.5 75q83 0 146 -29q-8 -63 -47 -96q-50 16 -90 16q-98 0 -106 -123q49 29 107 29q81 0 120 -47.5t39 -135.5t-57 -141zM183 217q0 -127 66 -127q57 0 57 81t-55 81q-33 0 -68 -20v-15z" />
    <glyph glyph-name="seven.smcp" horiz-adv-x="482" 
d="M53 550h371q29 -52 29 -81.5t-18 -53.5l-36 -47q-65 -83 -95.5 -160.5t-34.5 -185.5l-1 -22q-25 -7 -71.5 -7t-78.5 7l2 23q15 203 139 347l15 17q17 22 46 47l-3 5q-57 -10 -128 -10h-143q-7 26 -7 56t14 65z" />
    <glyph glyph-name="eight.smcp" horiz-adv-x="482" 
d="M27 133q0 92 97 143q-81 50 -81 122.5t56 119.5t144.5 47t141.5 -42t53 -112.5t-72 -112.5q89 -55 89 -139.5t-62 -129t-157.5 -44.5t-152 40.5t-56.5 107.5zM238 225l-12 5q-57 -33 -57 -86q0 -26 19 -43t52 -17t51 18.5t18 42.5q0 53 -71 80zM184 414q0 -41 69 -66
l12 -5q36 29 36 67q0 22 -15.5 38.5t-43 16.5t-43 -15t-15.5 -36z" />
    <glyph glyph-name="nine.smcp" horiz-adv-x="482" 
d="M91.5 512q56.5 53 146.5 53t140 -50q71 -69 71 -246q0 -134 -64.5 -209t-181.5 -75q-81 0 -145 30q8 61 46 96q53 -17 91 -17q98 0 104 122q-48 -28 -106 -28q-80 0 -119 47.5t-39 135.5t56.5 141zM232 298q32 0 68 19v16q0 76 -18.5 101.5t-46.5 25.5q-57 0 -57 -81
t54 -81z" />
    <glyph glyph-name="currency.smcp" horiz-adv-x="480" 
d="M66 173q-22 41 -22 93.5t21 91.5l-56 64q21 41 75 74l68 -61q40 17 86 17t86 -16l72 63q42 -24 76 -75l-59 -68q21 -42 21 -91.5t-23 -92.5l57 -64q-24 -44 -75 -76l-72 63q-37 -14 -83 -14t-83 15l-71 -62q-40 23 -75 74zM180 266q0 -37 14.5 -60.5t44.5 -23.5
q60 0 60 84q0 38 -15 62t-45 24q-59 0 -59 -86z" />
    <glyph glyph-name="dollar.smcp" horiz-adv-x="455" 
d="M19 77q2 28 17 59t36 46q88 -45 159 -45q51 0 51 30q0 23 -36 36l-86 31q-120 45 -120 138q0 57 36.5 95.5t100.5 52.5v66q17 5 52 5t52 -5v-62q74 -9 139 -40q-1 -67 -50 -104q-75 36 -138 36q-46 0 -46 -31q0 -17 39 -32l78 -28q129 -47 129 -150q0 -62 -42.5 -100
t-112.5 -48v-61q-17 -4 -50.5 -4t-52.5 4v60q-92 11 -155 51z" />
    <glyph glyph-name="cent.smcp" horiz-adv-x="419" 
d="M165 -31v80q-76 19 -108.5 81t-32.5 152t40 147t104 74v82q21 3 50.5 3t52.5 -3v-80q58 -12 92 -49.5t34 -95.5q0 -77 -78 -77q-29 0 -51 6q0 59 -10.5 84.5t-39 25.5t-41.5 -30.5t-13 -99.5q0 -115 80 -115q47 0 99 30q17 -11 32 -34t20 -45q-49 -46 -126 -59v-77
q-15 -4 -50 -4t-54 4z" />
    <glyph glyph-name="sterling.smcp" horiz-adv-x="477" 
d="M222 317l146 1q8 -20 8 -49t-8 -49q-87 0 -130 1q-9 -62 -46 -108l3 -2q51 6 159 6h99q0 -28 -3 -45q-12 -74 -98 -74h-289q-17 73 -17 92t18 48l10 17q25 42 31 65h-57q-8 20 -8 49.5t8 48.5h39q-24 52 -24 90q0 64 52 110.5t135 46.5q118 0 191 -71q-9 -28 -28.5 -52
t-44.5 -36q-56 42 -103 42q-28 0 -45 -16t-17 -42.5t19 -72.5z" />
    <glyph glyph-name="Euro.smcp" horiz-adv-x="496" 
d="M433 412q-61 39 -123 39t-84 -67h135q6 -22 6 -41t-6 -41h-147v-54h147q6 -22 6 -41t-6 -41h-134q23 -66 85.5 -66t120.5 38q23 -13 39.5 -36t19.5 -47q-90 -70 -188 -70t-149 50t-70 131h-75q-5 18 -5 41t5 41h65q-1 8 -1 26v28h-64q-5 18 -5 41t5 41h74q41 181 212 181
q109 0 196 -68q-3 -25 -20 -49.5t-39 -35.5z" />
    <glyph glyph-name="yen.smcp" horiz-adv-x="490" 
d="M448 121h-134v-121q-30 -6 -72 -6t-70 6v121h-134q-7 25 -7 42t7 42h127l-27 57h-100q-7 25 -7 41t7 43h61l-86 188q52 26 95.5 26t61.5 -45l45 -109q15 -35 31 -96h4q15 54 33 95l62 146q26 6 60 6t71 -9l5 -7l-93 -195h60q6 -30 6 -43.5t-6 -40.5h-100l-27 -57h127
q6 -27 6 -42t-6 -42z" />
    <glyph glyph-name="ae.smcp" horiz-adv-x="800" 
d="M494 115l66 3h202q0 -30 -2 -48q-14 -72 -91 -72h-230q-40 0 -62 23t-22 63v23q-11 -1 -31 -1h-86l-46 1l-51 -107q-23 -6 -65 -6t-68 10l-6 9l264 525q25 12 94 12h384q5 -21 5 -54t-12 -66h-243l1 -54v-42q23 1 60 1h135q8 -21 8 -58.5t-8 -56.5h-195v-43l-1 -61v-1z
M323 217l32 -1v230l-1 -1h-4q-55 -121 -76 -165l-31 -64l38 1h42z" />
    <glyph glyph-name="agrave.smcp" horiz-adv-x="571" 
d="M211 100q-22 0 -33 1l-33 -101q-25 -7 -67 -7t-67 11l-5 8l195 538q38 6 86 6t88 -6l191 -543q-37 -16 -77 -16t-61.5 12.5t-33.5 51.5l-15 46q-11 -1 -34 -1h-134zM216 218l32 1h66q4 0 14 -0.5t14 -0.5l-13 42q-8 26 -45 174h-6q-2 -6 -20 -73t-27 -97zM237 817
l154 -167q-7 -20 -25 -36t-37 -22l-183 138q9 28 36 53t55 34z" />
    <glyph glyph-name="aacute.smcp" horiz-adv-x="571" 
d="M211 100q-22 0 -33 1l-33 -101q-25 -7 -67 -7t-67 11l-5 8l195 538q38 6 86 6t88 -6l191 -543q-37 -16 -77 -16t-61.5 12.5t-33.5 51.5l-15 46q-11 -1 -34 -1h-134zM216 218l32 1h66q4 0 14 -0.5t14 -0.5l-13 42q-8 26 -45 174h-6q-2 -6 -20 -73t-27 -97zM199 650
l154 167q28 -9 55.5 -34t35.5 -53l-183 -138q-19 6 -36.5 22t-25.5 36z" />
    <glyph glyph-name="acircumflex.smcp" horiz-adv-x="571" 
d="M211 100q-22 0 -33 1l-33 -101q-25 -7 -67 -7t-67 11l-5 8l195 538q38 6 86 6t88 -6l191 -543q-37 -16 -77 -16t-61.5 12.5t-33.5 51.5l-15 46q-11 -1 -34 -1h-134zM216 218l32 1h66q4 0 14 -0.5t14 -0.5l-13 42q-8 26 -45 174h-6q-2 -6 -20 -73t-27 -97zM387 603l-92 87
l-97 -94q-43 17 -66 57l105 136q24 8 41 8q53 0 81 -8l93 -125q-8 -21 -27.5 -38t-37.5 -23z" />
    <glyph glyph-name="atilde.smcp" horiz-adv-x="571" 
d="M211 100q-22 0 -33 1l-33 -101q-25 -7 -67 -7t-67 11l-5 8l195 538q38 6 86 6t88 -6l191 -543q-37 -16 -77 -16t-61.5 12.5t-33.5 51.5l-15 46q-11 -1 -34 -1h-134zM216 218l32 1h66q4 0 14 -0.5t14 -0.5l-13 42q-8 26 -45 174h-6q-2 -6 -20 -73t-27 -97zM293 624l-45 23
q-16 9 -31.5 9t-33.5 -24l-9 -13q-21 0 -42 13t-28 32l8 19q17 39 47 62.5t64 23.5t66 -17l45 -23q16 -9 32 -9t33 24l9 12q21 0 41.5 -12.5t28.5 -31.5l-8 -20q-17 -39 -47.5 -62.5t-63 -23.5t-66.5 18z" />
    <glyph glyph-name="adieresis.smcp" horiz-adv-x="571" 
d="M211 100q-22 0 -33 1l-33 -101q-25 -7 -67 -7t-67 11l-5 8l195 538q38 6 86 6t88 -6l191 -543q-37 -16 -77 -16t-61.5 12.5t-33.5 51.5l-15 46q-11 -1 -34 -1h-134zM216 218l32 1h66q4 0 14 -0.5t14 -0.5l-13 42q-8 26 -45 174h-6q-2 -6 -20 -73t-27 -97zM320 674
q0 27 8 48q27 16 63 16t62 -16q9 -21 9 -49t-9 -47q-26 -16 -62 -16t-63 16q-8 21 -8 48zM120 674q0 27 9 48q26 16 62 16t63 -16q8 -21 8 -48.5t-8 -47.5q-27 -16 -63 -16t-62 16q-9 21 -9 48z" />
    <glyph glyph-name="aring.smcp" horiz-adv-x="571" 
d="M211 100q-22 0 -33 1l-33 -101q-25 -7 -67 -7t-67 11l-5 8l195 538q38 6 86 6t88 -6l191 -543q-37 -16 -77 -16t-61.5 12.5t-33.5 51.5l-15 46q-11 -1 -34 -1h-134zM216 218l32 1h66q4 0 14 -0.5t14 -0.5l-13 42q-8 26 -45 174h-6q-2 -6 -20 -73t-27 -97zM191 630.5
q-38 36.5 -38 90t38 90t100 36.5t100 -36.5t38 -90t-38 -90t-100 -36.5t-100 36.5zM242 721q0 -22 13.5 -36.5t35.5 -14.5t35.5 14.5t13.5 36.5t-13.5 36.5t-35.5 14.5t-35.5 -14.5t-13.5 -36.5z" />
    <glyph glyph-name="ccedilla.smcp" horiz-adv-x="545" 
d="M229 -77l20 64q-59 5 -103 32t-68 69q-45 80 -45 185q0 144 75.5 218t186 74t169 -54.5t58.5 -127.5q0 -82 -91 -82q-16 0 -50 4q0 69 -19.5 105.5t-70.5 36.5q-104 0 -104 -175q0 -162 116 -162q68 0 143 55q22 -12 43 -41t26 -54q-78 -68 -187 -82q-7 -14 -9 -20
q45 -3 72 -27.5t27 -67.5t-38 -73.5t-94 -30.5t-89 23q2 40 25 65q20 -13 46 -13q38 0 38 30q0 14 -9 22.5t-21.5 8.5t-24.5 -4q-16 8 -22 22z" />
    <glyph glyph-name="egrave.smcp" horiz-adv-x="526" 
d="M223 177l-1 -59v-2q44 4 67 4h199q0 -32 -2 -50q-14 -72 -91 -72h-234q-41 0 -64.5 23t-23.5 63v461l6 5h391q5 -21 5 -54.5t-12 -66.5h-241l1 -53v-41q24 1 61 1h132q8 -19 8 -57.5t-8 -59.5h-193v-42zM223 817l154 -167q-7 -20 -25 -36t-37 -22l-183 138q9 28 36 53
t55 34z" />
    <glyph glyph-name="eacute.smcp" horiz-adv-x="526" 
d="M223 177l-1 -59v-2q44 4 67 4h199q0 -32 -2 -50q-14 -72 -91 -72h-234q-41 0 -64.5 23t-23.5 63v461l6 5h391q5 -21 5 -54.5t-12 -66.5h-241l1 -53v-41q24 1 61 1h132q8 -19 8 -57.5t-8 -59.5h-193v-42zM185 650l154 167q28 -9 55.5 -34t35.5 -53l-183 -138
q-19 6 -36.5 22t-25.5 36z" />
    <glyph glyph-name="ecircumflex.smcp" horiz-adv-x="526" 
d="M223 177l-1 -59v-2q44 4 67 4h199q0 -32 -2 -50q-14 -72 -91 -72h-234q-41 0 -64.5 23t-23.5 63v461l6 5h391q5 -21 5 -54.5t-12 -66.5h-241l1 -53v-41q24 1 61 1h132q8 -19 8 -57.5t-8 -59.5h-193v-42zM373 603l-92 87l-97 -94q-43 17 -66 57l105 136q24 8 41 8
q53 0 81 -8l93 -125q-8 -21 -27.5 -38t-37.5 -23z" />
    <glyph glyph-name="edieresis.smcp" horiz-adv-x="526" 
d="M223 177l-1 -59v-2q44 4 67 4h199q0 -32 -2 -50q-14 -72 -91 -72h-234q-41 0 -64.5 23t-23.5 63v461l6 5h391q5 -21 5 -54.5t-12 -66.5h-241l1 -53v-41q24 1 61 1h132q8 -19 8 -57.5t-8 -59.5h-193v-42zM306 674q0 27 8 48q27 16 63 16t62 -16q9 -21 9 -49t-9 -47
q-26 -16 -62 -16t-63 16q-8 21 -8 48zM106 674q0 27 9 48q26 16 62 16t63 -16q8 -21 8 -48.5t-8 -47.5q-27 -16 -63 -16t-62 16q-9 21 -9 48z" />
    <glyph glyph-name="hbar.smcp" horiz-adv-x="638" 
d="M228 221l1 -59v-162q-31 -6 -76.5 -6t-75.5 6v401h-58q-7 21 -7 44.5t7 44.5h58v60q29 7 75.5 7t76.5 -7v-60h181v60q29 7 75.5 7t75.5 -7v-60h59q6 -22 6 -44t-6 -45h-59v-401q-31 -6 -76 -6t-75 6v162l1 59l-44 -1h-95zM228 340l44 1h95l44 -1l-1 61h-181z" />
    <glyph glyph-name="igrave.smcp" horiz-adv-x="303" 
d="M76 0v550q29 6 75 6t76 -6v-550q-30 -6 -76 -6t-75 6zM100 817l154 -167q-7 -20 -25 -36t-37 -22l-183 138q9 28 36 53t55 34z" />
    <glyph glyph-name="iacute.smcp" horiz-adv-x="303" 
d="M76 0v550q29 6 75 6t76 -6v-550q-30 -6 -76 -6t-75 6zM62 650l154 167q28 -9 55.5 -34t35.5 -53l-183 -138q-19 6 -36.5 22t-25.5 36z" />
    <glyph glyph-name="icircumflex.smcp" horiz-adv-x="303" 
d="M76 0v550q29 6 75 6t76 -6v-550q-30 -6 -76 -6t-75 6zM249 603l-92 87l-97 -94q-43 17 -66 57l105 136q24 8 41 8q53 0 81 -8l93 -125q-8 -21 -27.5 -38t-37.5 -23z" />
    <glyph glyph-name="itilde.smcp" horiz-adv-x="303" 
d="M76 0v550q29 6 75 6t76 -6v-550q-30 -6 -76 -6t-75 6zM155 624l-45 23q-16 9 -31.5 9t-33.5 -24l-9 -13q-21 0 -42 13t-28 32l8 19q17 39 47 62.5t64 23.5t66 -17l45 -23q16 -9 32 -9t33 24l9 12q21 0 41.5 -12.5t28.5 -31.5l-8 -20q-17 -39 -47.5 -62.5t-63 -23.5
t-66.5 18z" />
    <glyph glyph-name="idieresis.smcp" horiz-adv-x="303" 
d="M76 0v550q29 6 75 6t76 -6v-550q-30 -6 -76 -6t-75 6zM182 674q0 27 8 48q27 16 63 16t62 -16q9 -21 9 -49t-9 -47q-26 -16 -62 -16t-63 16q-8 21 -8 48zM-18 674q0 27 9 48q26 16 62 16t63 -16q8 -21 8 -48.5t-8 -47.5q-27 -16 -63 -16t-62 16q-9 21 -9 48z" />
    <glyph glyph-name="ij.smcp" horiz-adv-x="728" 
d="M76 0v550q29 6 75 6t76 -6v-550q-30 -6 -76 -6t-75 6zM355 134q43 -29 85 -29q75 0 75 101v344q30 6 78.5 6t73.5 -6v-339q0 -113 -48.5 -169t-159.5 -56q-43 0 -87 12.5t-68 30.5q12 65 51 105z" />
    <glyph glyph-name="jcircumflex.smcp" horiz-adv-x="426" 
d="M52 134q43 -29 85 -29q75 0 75 101v344q30 6 78.5 6t73.5 -6v-339q0 -113 -48.5 -169t-159.5 -56q-43 0 -87 12.5t-68 30.5q12 65 51 105zM384 603l-92 87l-97 -94q-43 17 -66 57l105 136q24 8 41 8q53 0 81 -8l93 -125q-8 -21 -27.5 -38t-37.5 -23z" />
    <glyph glyph-name="kcommaaccent.smcp" horiz-adv-x="565" 
d="M556 37q-16 -20 -43.5 -32.5t-59.5 -12t-50.5 16.5t-33.5 52l-44 107q-12 30 -26 42q-19 16 -74 12v-222q-31 -6 -76.5 -6t-75.5 6v550q30 6 75.5 6t76.5 -6v-207h11q23 0 28.5 7t13.5 20l79 137q15 27 31 38.5t55.5 11.5t83.5 -7l9 -9l-105 -176q-25 -43 -54 -65
q35 -10 55 -31.5t36 -58.5l37 -91q25 -61 51 -82zM234 -75q33 24 83 24q25 0 47 -8q12 -24 12 -60q0 -59 -40 -103.5t-109 -65.5q-38 13 -46 61q66 38 66 99q0 27 -13 53z" />
    <glyph glyph-name="kgreenlandic.smcp" horiz-adv-x="572" 
d="M556 37q-16 -20 -43.5 -32.5t-59.5 -12t-50.5 16.5t-33.5 52l-44 107q-12 30 -26 42q-19 16 -74 12v-222q-31 -6 -75 -6t-77 6v550l7 7h64q44 0 62.5 -20.5t18.5 -69.5v-124h11q23 0 28.5 7t13.5 20l79 137q15 27 31 38.5t55.5 11.5t83.5 -7l9 -9l-105 -176
q-25 -43 -54 -65q35 -10 55 -31.5t36 -58.5l37 -91q25 -61 51 -82z" />
    <glyph glyph-name="ldot.smcp" horiz-adv-x="490" 
d="M135 555q88 0 88 -94v-343q55 5 91 5h145q-2 -43 -4 -52q-13 -74 -97 -74h-199q-40 0 -63.5 23t-23.5 63v466l6 6h57zM320 266q-11 22 -11 56.5t11 56.5q26 18 65 18t65 -18q9 -21 9 -56.5t-9 -56.5q-23 -17 -65 -17t-65 17z" />
    <glyph glyph-name="lslash.smcp" horiz-adv-x="499" 
d="M241 461v-100l125 41l11 -5q9 -22 9 -49t-7 -58l-138 -44v-128q57 5 92 5h144q-2 -43 -4 -52q-13 -74 -97 -74h-198q-41 0 -64.5 23t-23.5 63v120l-57 -18l-11 5q-9 22 -9 49.5t6 58.5l71 21v230l6 6h58q44 0 65.5 -22.5t21.5 -71.5z" />
    <glyph glyph-name="nacute.smcp" horiz-adv-x="638" 
d="M558 557l6 -7v-547q-36 -9 -91 -9t-83 6l-128 259q-5 10 -26.5 60.5t-28.5 63.5l-3 -1q8 -154 8 -219v-163q-29 -6 -69.5 -6t-69.5 6v547q43 9 95.5 9t76.5 -6l126 -258q6 -12 31.5 -70t28.5 -64l4 1q-13 211 -13 223v92q0 48 20.5 65.5t66.5 17.5h49zM230 650l154 167
q28 -9 55.5 -34t35.5 -53l-183 -138q-19 6 -36.5 22t-25.5 36z" />
    <glyph glyph-name="ntilde.smcp" horiz-adv-x="638" 
d="M558 557l6 -7v-547q-36 -9 -91 -9t-83 6l-128 259q-5 10 -26.5 60.5t-28.5 63.5l-3 -1q8 -154 8 -219v-163q-29 -6 -69.5 -6t-69.5 6v547q43 9 95.5 9t76.5 -6l126 -258q6 -12 31.5 -70t28.5 -64l4 1q-13 211 -13 223v92q0 48 20.5 65.5t66.5 17.5h49zM323 624l-45 23
q-16 9 -31.5 9t-33.5 -24l-9 -13q-21 0 -42 13t-28 32l8 19q17 39 47 62.5t64 23.5t66 -17l45 -23q16 -9 32 -9t33 24l9 12q21 0 41.5 -12.5t28.5 -31.5l-8 -20q-17 -39 -47.5 -62.5t-63 -23.5t-66.5 18z" />
    <glyph glyph-name="oe.smcp" horiz-adv-x="843" 
d="M536 178l-1 -61l69 3h203q0 -32 -3 -50q-12 -72 -91 -72h-271q-80 -13 -137 -13q-104 0 -174 53q-98 71 -98 237t98 238q71 52 174 52q52 0 146 -15h337q5 -21 5 -54.5t-12 -66.5h-246l1 -58v-36q25 1 63 1h136q8 -23 8 -58.5t-8 -59.5h-199v-40zM305 100q40 0 87 13v324
q-51 14 -87 14q-116 0 -116 -175.5t116 -175.5z" />
    <glyph glyph-name="ograve.smcp" horiz-adv-x="604" 
d="M302 454q-115 0 -115 -178.5t115 -178.5t115 178.5t-115 178.5zM131 35q-98 74 -98 239.5t98 239.5q68 51 171.5 51t170.5 -50q99 -77 99 -241t-99 -239q-65 -50 -171 -50t-171 50zM248 817l154 -167q-7 -20 -25 -36t-37 -22l-183 138q9 28 36 53t55 34z" />
    <glyph glyph-name="oacute.smcp" horiz-adv-x="604" 
d="M302 454q-115 0 -115 -178.5t115 -178.5t115 178.5t-115 178.5zM131 35q-98 74 -98 239.5t98 239.5q68 51 171.5 51t170.5 -50q99 -77 99 -241t-99 -239q-65 -50 -171 -50t-171 50zM210 650l154 167q28 -9 55.5 -34t35.5 -53l-183 -138q-19 6 -36.5 22t-25.5 36z" />
    <glyph glyph-name="ocircumflex.smcp" horiz-adv-x="604" 
d="M302 454q-115 0 -115 -178.5t115 -178.5t115 178.5t-115 178.5zM131 35q-98 74 -98 239.5t98 239.5q68 51 171.5 51t170.5 -50q99 -77 99 -241t-99 -239q-65 -50 -171 -50t-171 50zM398 603l-92 87l-97 -94q-43 17 -66 57l105 136q24 8 41 8q53 0 81 -8l93 -125
q-8 -21 -27.5 -38t-37.5 -23z" />
    <glyph glyph-name="otilde.smcp" horiz-adv-x="604" 
d="M302 454q-115 0 -115 -178.5t115 -178.5t115 178.5t-115 178.5zM131 35q-98 74 -98 239.5t98 239.5q68 51 171.5 51t170.5 -50q99 -77 99 -241t-99 -239q-65 -50 -171 -50t-171 50zM304 624l-45 23q-16 9 -31.5 9t-33.5 -24l-9 -13q-21 0 -42 13t-28 32l8 19
q17 39 47 62.5t64 23.5t66 -17l45 -23q16 -9 32 -9t33 24l9 12q21 0 41.5 -12.5t28.5 -31.5l-8 -20q-17 -39 -47.5 -62.5t-63 -23.5t-66.5 18z" />
    <glyph glyph-name="odieresis.smcp" horiz-adv-x="604" 
d="M302 454q-115 0 -115 -178.5t115 -178.5t115 178.5t-115 178.5zM131 35q-98 74 -98 239.5t98 239.5q68 51 171.5 51t170.5 -50q99 -77 99 -241t-99 -239q-65 -50 -171 -50t-171 50zM331 674q0 27 8 48q27 16 63 16t62 -16q9 -21 9 -49t-9 -47q-26 -16 -62 -16t-63 16
q-8 21 -8 48zM131 674q0 27 9 48q26 16 62 16t63 -16q8 -21 8 -48.5t-8 -47.5q-27 -16 -63 -16t-62 16q-9 21 -9 48z" />
    <glyph glyph-name="oslash.smcp" horiz-adv-x="604" 
d="M33 274q0 166 98 240q68 51 171 51q76 0 127 -24l45 62q48 -18 76 -55l-45 -63q67 -78 67 -211q0 -164 -99 -239q-65 -50 -171 -50q-78 0 -133 26l-43 -59q-50 16 -76 54l45 63q-62 75 -62 205zM425 274q0 50 -9 86l-179 -254q25 -18 65 -18q123 0 123 186zM179 274
q0 -49 7 -78l176 251q-26 16 -60 16q-123 0 -123 -189z" />
    <glyph glyph-name="racute.smcp" horiz-adv-x="567" 
d="M517 384q0 -54 -35 -93.5t-79 -49.5q47 -16 75 -74l27 -63q20 -45 45 -67q-15 -19 -42.5 -32.5t-59 -13.5t-51.5 15.5t-35 51.5l-45 102q-11 23 -25.5 30t-43.5 7h-25v-197q-30 -6 -75 -6t-75 6v545l6 6q158 4 217 4q99 0 160 -40.5t61 -130.5zM289 446l-66 1v-136l59 1
q81 0 81 68q0 29 -18 47.5t-56 18.5zM186 650l154 167q28 -9 55.5 -34t35.5 -53l-183 -138q-19 6 -36.5 22t-25.5 36z" />
    <glyph glyph-name="rcaron.smcp" horiz-adv-x="567" 
d="M517 384q0 -54 -35 -93.5t-79 -49.5q47 -16 75 -74l27 -63q20 -45 45 -67q-15 -19 -42.5 -32.5t-59 -13.5t-51.5 15.5t-35 51.5l-45 102q-11 23 -25.5 30t-43.5 7h-25v-197q-30 -6 -75 -6t-75 6v545l6 6q158 4 217 4q99 0 160 -40.5t61 -130.5zM289 446l-66 1v-136l59 1
q81 0 81 68q0 29 -18 47.5t-56 18.5zM181 800l92 -87l99 95q44 -15 66 -57l-106 -137q-26 -9 -43 -9t-35 0.5t-45 8.5l-93 125q10 21 29.5 38t35.5 23z" />
    <glyph glyph-name="rcommaaccent.smcp" horiz-adv-x="567" 
d="M517 384q0 -54 -35 -93.5t-79 -49.5q47 -16 75 -74l27 -63q20 -45 45 -67q-15 -19 -42.5 -32.5t-59 -13.5t-51.5 15.5t-35 51.5l-45 102q-11 23 -25.5 30t-43.5 7h-25v-197q-30 -6 -75 -6t-75 6v545l6 6q158 4 217 4q99 0 160 -40.5t61 -130.5zM289 446l-66 1v-136l59 1
q81 0 81 68q0 29 -18 47.5t-56 18.5zM229 -75q33 24 83 24q25 0 47 -8q12 -24 12 -60q0 -59 -40 -103.5t-109 -65.5q-38 13 -46 61q66 38 66 99q0 27 -13 53z" />
    <glyph glyph-name="germandbls.smcp" horiz-adv-x="1014" 
d="M19 42q0 29 16 62.5t38 48.5q94 -50 178 -50q31 1 50 13.5t19 34.5q0 32 -50 50l-91 33q-144 52 -144 157q0 77 59.5 125.5t164.5 48.5t207 -43q0 -33 -13.5 -64.5t-36.5 -49.5q-90 39 -164 39q-28 -1 -43.5 -12.5t-15.5 -27.5t11.5 -24t38.5 -18l90 -32
q149 -55 149 -174q0 -81 -63.5 -127t-164.5 -47q-142 0 -235 57zM526 42q0 29 16 62.5t38 48.5q94 -50 178 -50q31 1 50 13.5t19 34.5q0 32 -50 50l-91 33q-144 52 -144 157q0 77 59.5 125.5t164.5 48.5t207 -43q0 -33 -13.5 -64.5t-36.5 -49.5q-90 39 -164 39
q-28 -1 -43.5 -12.5t-15.5 -27.5t11.5 -24t38.5 -18l90 -32q149 -55 149 -174q0 -81 -63.5 -127t-164.5 -47q-142 0 -235 57z" />
    <glyph glyph-name="germandbls.cap_smcp" horiz-adv-x="600" 
d="M90 0v256l-77 -1q-6 25 -6 56.5t6 55.5l77 -1v36q0 80 60 122t161.5 42t163 -48.5t61.5 -126.5q0 -29 -7 -56q-51 -18 -51 -50q0 -15 18 -31l27 -26q55 -55 55 -112t-49 -93t-120 -36t-122 21q1 24 12 54t27 47q26 -13 62 -13t36 30q0 20 -24 41l-32 29
q-27 23 -38.5 40.5t-11.5 43t17.5 51t48.5 40.5q1 4 1 14q0 31 -19 51.5t-53 20.5q-72 0 -72 -72v-385q-36 -6 -77 -6t-74 6z" />
    <glyph glyph-name="ugrave.smcp" horiz-adv-x="612" 
d="M548 550v-345q0 -104 -62.5 -162t-179.5 -58t-179.5 58t-62.5 162v345l5 6h55q91 0 91 -96v-254q0 -102 91 -102q49 0 70 26t21 76v344q30 6 76 6t75 -6zM249 817l154 -167q-7 -20 -25 -36t-37 -22l-183 138q9 28 36 53t55 34z" />
    <glyph glyph-name="uacute.smcp" horiz-adv-x="612" 
d="M548 550v-345q0 -104 -62.5 -162t-179.5 -58t-179.5 58t-62.5 162v345l5 6h55q91 0 91 -96v-254q0 -102 91 -102q49 0 70 26t21 76v344q30 6 76 6t75 -6zM211 650l154 167q28 -9 55.5 -34t35.5 -53l-183 -138q-19 6 -36.5 22t-25.5 36z" />
    <glyph glyph-name="ucircumflex.smcp" horiz-adv-x="612" 
d="M548 550v-345q0 -104 -62.5 -162t-179.5 -58t-179.5 58t-62.5 162v345l5 6h55q91 0 91 -96v-254q0 -102 91 -102q49 0 70 26t21 76v344q30 6 76 6t75 -6zM398 603l-92 87l-97 -94q-43 17 -66 57l105 136q24 8 41 8q53 0 81 -8l93 -125q-8 -21 -27.5 -38t-37.5 -23z" />
    <glyph glyph-name="udieresis.smcp" horiz-adv-x="612" 
d="M548 550v-345q0 -104 -62.5 -162t-179.5 -58t-179.5 58t-62.5 162v345l5 6h55q91 0 91 -96v-254q0 -102 91 -102q49 0 70 26t21 76v344q30 6 76 6t75 -6zM331 674q0 27 8 48q27 16 63 16t62 -16q9 -21 9 -49t-9 -47q-26 -16 -62 -16t-63 16q-8 21 -8 48zM131 674
q0 27 9 48q26 16 62 16t63 -16q8 -21 8 -48.5t-8 -47.5q-27 -16 -63 -16t-62 16q-9 21 -9 48z" />
    <glyph glyph-name="yacute.smcp" horiz-adv-x="471" 
d="M278 413l54 137q25 6 57 6t74 -9l6 -8l-160 -377v-162q-29 -6 -74 -6t-74 6v166l-159 371q45 21 86 21q60 0 81 -56l40 -103q21 -55 28 -106h6q34 118 35 120zM147 650l154 167q28 -9 55.5 -34t35.5 -53l-183 -138q-19 6 -36.5 22t-25.5 36z" />
    <glyph glyph-name="ydieresis.smcp" horiz-adv-x="471" 
d="M278 413l54 137q25 6 57 6t74 -9l6 -8l-160 -377v-162q-29 -6 -74 -6t-74 6v166l-159 371q45 21 86 21q60 0 81 -56l40 -103q21 -55 28 -106h6q34 118 35 120zM267 674q0 27 8 48q27 16 63 16t62 -16q9 -21 9 -49t-9 -47q-26 -16 -62 -16t-63 16q-8 21 -8 48zM67 674
q0 27 9 48q26 16 62 16t63 -16q8 -21 8 -48.5t-8 -47.5q-27 -16 -63 -16t-62 16q-9 21 -9 48z" />
    <glyph glyph-name="eth.smcp" horiz-adv-x="613" 
d="M557.5 413q21.5 -59 21.5 -139.5t-21 -139t-80.5 -98.5t-165.5 -40t-223 3l-6 6v212h-67q-6 24 -6 57.5t6 57.5h67v213l6 6q156 4 209 4q118 0 178 -41.5t81.5 -100.5zM230 106l79 1q117 0 117 168t-117 168q-51 0 -79 1v-112h100q6 -30 6 -57.5t-6 -57.5h-100v-111z" />
    <glyph glyph-name="thorn.smcp" horiz-adv-x="534" 
d="M224 474l59 1q102 0 162.5 -47t60.5 -143t-61 -144.5t-162 -48.5h-59v-92q-30 -6 -76 -6t-75 6v550q29 6 75 6t76 -6v-76zM334 339q-18 23 -54 23t-56 1v-160q20 1 47 1q81 0 81 80q0 32 -18 55z" />
    <glyph glyph-name="aogonek.smcp" horiz-adv-x="571" 
d="M6 12l195 538q38 6 86 6t88 -6l191 -543q-86 -41 -86 -96q0 -17 12 -26.5t33.5 -9.5t47.5 14q29 -25 32 -67q-47 -40 -108 -40t-93.5 27t-32.5 72q0 61 65 118q-29 11 -42 56l-15 46q-11 -1 -34 -1h-134q-22 0 -33 1l-33 -101q-25 -7 -67 -7t-67 11zM216 218l32 1h66
q4 0 14 -0.5t14 -0.5l-13 42q-8 26 -45 174h-6q-2 -6 -20 -73t-27 -97z" />
    <glyph glyph-name="cacute.smcp" horiz-adv-x="545" 
d="M381 305q0 69 -19.5 105.5t-70.5 36.5q-104 0 -104 -175q0 -162 116 -162q68 0 143 55q22 -12 43 -41t26 -54q-99 -85 -234 -85q-69 0 -119 25t-77 68q-52 83 -52 195q0 144 75.5 218t186 74t169 -54.5t58.5 -127.5q0 -82 -91 -82q-16 0 -50 4zM204 650l154 167
q28 -9 55.5 -34t35.5 -53l-183 -138q-19 6 -36.5 22t-25.5 36z" />
    <glyph glyph-name="ccaron.smcp" horiz-adv-x="545" 
d="M381 305q0 69 -19.5 105.5t-70.5 36.5q-104 0 -104 -175q0 -162 116 -162q68 0 143 55q22 -12 43 -41t26 -54q-99 -85 -234 -85q-69 0 -119 25t-77 68q-52 83 -52 195q0 144 75.5 218t186 74t169 -54.5t58.5 -127.5q0 -82 -91 -82q-16 0 -50 4zM200 800l92 -87l99 95
q44 -15 66 -57l-106 -137q-26 -9 -43 -9t-35 0.5t-45 8.5l-93 125q10 21 29.5 38t35.5 23z" />
    <glyph glyph-name="dcaron.smcp" horiz-adv-x="604" 
d="M548.5 413q21.5 -59 21.5 -139.5t-21 -139t-80 -98.5t-165 -40t-225 3l-6 6v540l6 6q158 4 211 4q117 0 177 -41.5t81.5 -100.5zM223 110l77 1q116 0 116 164t-116 164q-49 0 -77 1v-330zM194 800l92 -87l99 95q44 -15 66 -57l-106 -137q-26 -9 -43 -9t-35 0.5t-45 8.5
l-93 125q10 21 29.5 38t35.5 23z" />
    <glyph glyph-name="ecaron.smcp" horiz-adv-x="526" 
d="M223 177l-1 -59v-2q44 4 67 4h199q0 -32 -2 -50q-14 -72 -91 -72h-234q-41 0 -64.5 23t-23.5 63v461l6 5h391q5 -21 5 -54.5t-12 -66.5h-241l1 -53v-41q24 1 61 1h132q8 -19 8 -57.5t-8 -59.5h-193v-42zM181 800l92 -87l99 95q44 -15 66 -57l-106 -137q-26 -9 -43 -9
t-35 0.5t-45 8.5l-93 125q10 21 29.5 38t35.5 23z" />
    <glyph glyph-name="eogonek.smcp" horiz-adv-x="526" 
d="M223 177l-1 -58v-2q44 4 67 4h199q0 -33 -2 -51q-9 -50 -49 -65q-4 -2 -5 -2q-76 -34 -76 -91q0 -18 12 -27.5t33.5 -9.5t47.5 14q29 -25 32 -67q-47 -40 -108 -40t-93.5 27t-32.5 73q0 67 63 116h-149q-41 0 -64.5 23t-23.5 63v461l6 5h391q5 -21 5 -55t-12 -67h-241
l1 -52v-40q24 1 61 1h132q8 -19 8 -58.5t-8 -60.5h-193v-41z" />
    <glyph glyph-name="ncaron.smcp" horiz-adv-x="638" 
d="M558 557l6 -7v-547q-36 -9 -91 -9t-83 6l-128 259q-5 10 -26.5 60.5t-28.5 63.5l-3 -1q8 -154 8 -219v-163q-29 -6 -69.5 -6t-69.5 6v547q43 9 95.5 9t76.5 -6l126 -258q6 -12 31.5 -70t28.5 -64l4 1q-13 211 -13 223v92q0 48 20.5 65.5t66.5 17.5h49zM225 800l92 -87
l99 95q44 -15 66 -57l-106 -137q-26 -9 -43 -9t-35 0.5t-45 8.5l-93 125q10 21 29.5 38t35.5 23z" />
    <glyph glyph-name="sacute.smcp" horiz-adv-x="507" 
d="M19 42q0 29 16 62.5t38 48.5q94 -50 178 -50q31 1 50 13.5t19 34.5q0 32 -50 50l-91 33q-144 52 -144 157q0 77 59.5 125.5t164.5 48.5t207 -43q0 -33 -13.5 -64.5t-36.5 -49.5q-90 39 -164 39q-28 -1 -43.5 -12.5t-15.5 -27.5t11.5 -24t38.5 -18l90 -32
q149 -55 149 -174q0 -81 -63.5 -127t-164.5 -47q-142 0 -235 57zM165 650l154 167q28 -9 55.5 -34t35.5 -53l-183 -138q-19 6 -36.5 22t-25.5 36z" />
    <glyph glyph-name="scaron.smcp" horiz-adv-x="507" 
d="M19 42q0 29 16 62.5t38 48.5q94 -50 178 -50q31 1 50 13.5t19 34.5q0 32 -50 50l-91 33q-144 52 -144 157q0 77 59.5 125.5t164.5 48.5t207 -43q0 -33 -13.5 -64.5t-36.5 -49.5q-90 39 -164 39q-28 -1 -43.5 -12.5t-15.5 -27.5t11.5 -24t38.5 -18l90 -32
q149 -55 149 -174q0 -81 -63.5 -127t-164.5 -47q-142 0 -235 57zM161 800l92 -87l99 95q44 -15 66 -57l-106 -137q-26 -9 -43 -9t-35 0.5t-45 8.5l-93 125q10 21 29.5 38t35.5 23z" />
    <glyph glyph-name="tcaron.smcp" horiz-adv-x="458" 
d="M308 429l1 -61v-368q-27 -6 -73 -6t-78 6v368l1 61h-1l-56 -1h-94q-6 28 -6 62.5t6 59.5h447q7 -24 7 -55q0 -67 -75 -67h-25l-53 1h-1zM137 800l92 -87l99 95q44 -15 66 -57l-106 -137q-26 -9 -43 -9t-35 0.5t-45 8.5l-93 125q10 21 29.5 38t35.5 23z" />
    <glyph glyph-name="uring.smcp" horiz-adv-x="612" 
d="M548 550v-345q0 -104 -62.5 -162t-179.5 -58t-179.5 58t-62.5 162v345l5 6h55q91 0 91 -96v-254q0 -102 91 -102q49 0 70 26t21 76v344q30 6 76 6t75 -6zM202 630.5q-38 36.5 -38 90t38 90t100 36.5t100 -36.5t38 -90t-38 -90t-100 -36.5t-100 36.5zM253 721
q0 -22 13.5 -36.5t35.5 -14.5t35.5 14.5t13.5 36.5t-13.5 36.5t-35.5 14.5t-35.5 -14.5t-13.5 -36.5z" />
    <glyph glyph-name="zacute.smcp" horiz-adv-x="521" 
d="M52 139l191 223q36 40 77 74l-2 3q-70 -8 -143 -8h-119q-5 23 -5 50t10 69h398q21 -75 21 -97.5t-17 -41.5l-191 -222q-34 -41 -71 -71l2 -4q2 0 136 7l35 1q75 4 105 19q9 -30 9 -64.5t-28.5 -56t-71.5 -21.5h-338q-16 75 -16 95t18 45zM172 650l154 167q28 -9 55.5 -34
t35.5 -53l-183 -138q-19 6 -36.5 22t-25.5 36z" />
    <glyph glyph-name="zdotaccent.smcp" horiz-adv-x="521" 
d="M52 139l191 223q36 40 77 74l-2 3q-70 -8 -143 -8h-119q-5 23 -5 50t10 69h398q21 -75 21 -97.5t-17 -41.5l-191 -222q-34 -41 -71 -71l2 -4q2 0 136 7l35 1q75 4 105 19q9 -30 9 -64.5t-28.5 -56t-71.5 -21.5h-338q-16 75 -16 95t18 45zM181 693q0 29 11 56
q28 15 73.5 15t70.5 -15q11 -27 11 -56t-11 -56q-25 -15 -73.5 -15t-70.5 15q-11 27 -11 56z" />
    <glyph glyph-name="zcaron.smcp" horiz-adv-x="521" 
d="M52 139l191 223q36 40 77 74l-2 3q-70 -8 -143 -8h-119q-5 23 -5 50t10 69h398q21 -75 21 -97.5t-17 -41.5l-191 -222q-34 -41 -71 -71l2 -4q2 0 136 7l35 1q75 4 105 19q9 -30 9 -64.5t-28.5 -56t-71.5 -21.5h-338q-16 75 -16 95t18 45zM168 800l92 -87l99 95
q44 -15 66 -57l-106 -137q-26 -9 -43 -9t-35 0.5t-45 8.5l-93 125q10 21 29.5 38t35.5 23z" />
    </font>
</defs>
</svg>
